<svg width="31" height="30" viewBox="0 0 31 30" fill="none" xmlns="http://www.w3.org/2000/svg">
<path d="M5.57031 13.7816V19.965C5.57031 22.2293 5.57031 22.2293 7.71025 23.6725L13.5951 27.0691C14.4784 27.5792 15.9216 27.5792 16.805 27.0691L22.6898 23.6725C24.8297 22.2293 24.8297 22.2293 24.8297 19.965V13.7816C24.8297 11.5172 24.8297 11.5172 22.6898 10.074L16.805 6.6775C15.9216 6.1674 14.4784 6.1674 13.5951 6.6775L7.71025 10.074C5.57031 11.5172 5.57031 11.5172 5.57031 13.7816Z" stroke="#9D7ED5" stroke-width="1.86622" stroke-linecap="round" stroke-linejoin="round"/>
<path d="M22.0428 9.564V6.29189C22.0428 3.8036 20.7986 2.55945 18.3104 2.55945H12.0896C9.60132 2.55945 8.35718 3.8036 8.35718 6.29189V9.47691" stroke="#9D7ED5" stroke-width="1.86622" stroke-linecap="round" stroke-linejoin="round"/>
<path d="M15.9839 13.7442L16.6931 14.8515C16.8051 15.0257 17.0539 15.1999 17.2405 15.2497L18.5095 15.5731C19.2934 15.7722 19.5049 16.444 18.9948 17.0661L18.1612 18.0739C18.0368 18.2356 17.9372 18.5218 17.9497 18.7208L18.0243 20.0272C18.0741 20.8359 17.5018 21.2464 16.7553 20.9478L15.536 20.4626C15.3494 20.388 15.0384 20.388 14.8518 20.4626L13.6325 20.9478C12.886 21.2464 12.3137 20.8234 12.3635 20.0272L12.4381 18.7208C12.4505 18.5218 12.351 18.2232 12.2266 18.0739L11.393 17.0661C10.8829 16.444 11.0944 15.7722 11.8782 15.5731L13.1473 15.2497C13.3463 15.1999 13.5952 15.0133 13.6947 14.8515L14.4039 13.7442C14.8518 13.0724 15.5485 13.0724 15.9839 13.7442Z" stroke="#9D7ED5" stroke-width="1.86622" stroke-linecap="round" stroke-linejoin="round"/>
</svg>
