<svg width="42" height="42" viewBox="0 0 42 42" fill="none" xmlns="http://www.w3.org/2000/svg">
<path d="M8.04431 19.1308V27.5267C8.04431 30.6013 8.04431 30.6013 10.9499 32.5609L18.9404 37.1728C20.1398 37.8654 22.0995 37.8654 23.2989 37.1728L31.2894 32.5609C34.195 30.6013 34.195 30.6013 34.195 27.5267V19.1308C34.195 16.0563 34.195 16.0563 31.2894 14.0966L23.2989 9.4848C22.0995 8.79218 20.1398 8.79218 18.9404 9.4848L10.9499 14.0966C8.04431 16.0563 8.04431 16.0563 8.04431 19.1308Z" stroke="white" stroke-width="2.53398" stroke-linecap="round" stroke-linejoin="round"/>
<path d="M30.4109 13.4042V8.96127C30.4109 5.58263 28.7216 3.89331 25.3429 3.89331H16.8963C13.5177 3.89331 11.8284 5.58263 11.8284 8.96127V13.2859" stroke="white" stroke-width="2.53398" stroke-linecap="round" stroke-linejoin="round"/>
<path d="M22.1839 19.0802L23.1468 20.5837C23.2988 20.8202 23.6367 21.0567 23.8901 21.1242L25.6132 21.5635C26.6775 21.8338 26.9647 22.746 26.272 23.5907L25.1402 24.959C24.9713 25.1786 24.8361 25.5672 24.853 25.8375L24.9544 27.6112C25.022 28.7093 24.2449 29.2668 23.2313 28.8613L21.5757 28.2025C21.3223 28.1011 20.9 28.1011 20.6466 28.2025L18.9911 28.8613C17.9775 29.2668 17.2004 28.6924 17.268 27.6112L17.3693 25.8375C17.3862 25.5672 17.2511 25.1617 17.0821 24.959L15.9503 23.5907C15.2577 22.746 15.5449 21.8338 16.6091 21.5635L18.3322 21.1242C18.6025 21.0567 18.9404 20.8033 19.0755 20.5837L20.0385 19.0802C20.6466 18.1679 21.5926 18.1679 22.1839 19.0802Z" stroke="white" stroke-width="2.53398" stroke-linecap="round" stroke-linejoin="round"/>
</svg>
