<svg width="33" height="33" viewBox="0 0 33 33" fill="none" xmlns="http://www.w3.org/2000/svg">
<path d="M16.4 22.8V25.6" stroke="#118AC9" stroke-width="2" stroke-linecap="round" stroke-linejoin="round"/>
<path d="M9.7334 30.1334H23.0667V28.8001C23.0667 27.3334 21.8667 26.1334 20.4001 26.1334H12.4001C10.9334 26.1334 9.7334 27.3334 9.7334 28.8001V30.1334V30.1334Z" stroke="#118AC9" stroke-width="2" stroke-miterlimit="10"/>
<path d="M8.40002 30.1334H24.4" stroke="#118AC9" stroke-width="2" stroke-linecap="round" stroke-linejoin="round"/>
<path d="M16.2 22.1333C11.04 22.1333 6.8667 17.96 6.8667 12.8V8.80001C6.8667 5.85334 9.25337 3.46667 12.2 3.46667H20.2C23.1467 3.46667 25.5334 5.85334 25.5334 8.80001V12.8C25.5334 17.96 21.36 22.1333 16.2 22.1333Z" stroke="#118AC9" stroke-width="2" stroke-linecap="round" stroke-linejoin="round"/>
<path d="M7.49332 16.3333C6.49332 16.0133 5.61332 15.4266 4.91998 14.7333C3.71998 13.4 2.91998 11.8 2.91998 9.93331C2.91998 8.06664 4.38665 6.59998 6.25332 6.59998H7.11998C6.85332 7.21331 6.71998 7.89331 6.71998 8.59998V12.6C6.71998 13.9333 6.99998 15.1866 7.49332 16.3333Z" stroke="#118AC9" stroke-width="2" stroke-linecap="round" stroke-linejoin="round"/>
<path d="M24.9067 16.3333C25.9067 16.0133 26.7867 15.4266 27.4801 14.7333C28.6801 13.4 29.4801 11.8 29.4801 9.93331C29.4801 8.06664 28.0134 6.59998 26.1467 6.59998H25.2801C25.5467 7.21331 25.6801 7.89331 25.6801 8.59998V12.6C25.6801 13.9333 25.4001 15.1866 24.9067 16.3333Z" stroke="#118AC9" stroke-width="2" stroke-linecap="round" stroke-linejoin="round"/>
</svg>
