<svg width="50" height="47" viewBox="0 0 50 47" fill="none" xmlns="http://www.w3.org/2000/svg">
<path d="M18.3038 5.94012C23.3685 7.28105 27.1213 12.406 29.3502 20.9872C31.0772 27.5149 30.1392 27.8045 23.1362 23.02C15.1813 17.571 10.8024 10.9609 13.0182 7.64383C13.8814 6.3304 16.561 5.44964 18.3038 5.94012ZM15.1325 8.21901C14.3332 9.43515 14.8677 11.9808 16.3721 14.1881C17.6842 16.1466 21.7041 19.6731 25.0436 21.8513L27.6973 23.5562L26.4758 19.4557C24.4604 12.825 21.7211 8.97506 18.1167 7.68736C16.1399 6.95709 15.9318 7.00287 15.1325 8.21901Z" fill="#FFC042"/>
<path d="M40.0379 7.63256C43.0322 10.344 42.7807 18.2535 39.3701 28.8866C38.1918 32.5127 38.0671 32.7173 37.0397 32.6112C36.055 32.5045 35.7492 32.1037 34.8538 29.6848C33.0203 24.8475 31.9151 20.1209 31.8124 16.5548C31.5805 10.3959 33.2382 7.33016 37.0337 6.86723C38.6965 6.63933 39.1257 6.75446 40.0379 7.63256ZM35.9604 9.1133C33.6523 11.6213 33.442 16.8949 35.3536 23.8392C36.0354 26.2614 36.7097 28.2377 36.8806 28.2351C37.2223 28.2299 38.0338 25.6635 39.1109 21.1065C40.0287 17.2411 39.9298 11.364 38.9606 9.63543C38.0816 8.18924 37.0101 8.00276 35.9604 9.1133Z" fill="#44D2A8"/>
<path d="M10.1386 21.7601C13.6363 21.7667 18.246 23.9201 24.2678 28.4446C27.7586 31.0079 33.3916 35.7957 33.7008 36.4193C34.3739 37.7764 26.7645 37.8581 20.0876 36.5828C12.3645 35.1024 7.99365 32.5736 5.84471 28.3361C4.86235 26.3555 4.79869 25.8463 5.24902 24.6596C5.94499 22.8257 7.76893 21.7427 10.1386 21.7601ZM7.38447 24.8712C6.47241 27.6975 10.8023 31.8574 16.6605 33.7671C20.2241 34.9538 29.5186 36.2703 29.439 35.6338C29.3617 34.9067 20.5063 28.287 17.0201 26.3041C13.3451 24.2263 9.55411 22.9618 8.47158 23.4451C8.0463 23.6349 7.59144 24.2412 7.38447 24.8712Z" fill="#44D2A8"/>
</svg>
