<svg width="31" height="30" viewBox="0 0 31 30" fill="none" xmlns="http://www.w3.org/2000/svg">
<path d="M25.1531 10.3356V22.4662C25.1531 26.1987 22.9261 27.4428 20.1765 27.4428H10.2231C7.47352 27.4428 5.24646 26.1987 5.24646 22.4662V10.3356C5.24646 6.29201 7.47352 5.35889 10.2231 5.35889C10.2231 6.13027 10.5341 6.827 11.0442 7.33711C11.5544 7.84722 12.2511 8.15826 13.0225 8.15826H17.3771C18.9199 8.15826 20.1765 6.90165 20.1765 5.35889C22.9261 5.35889 25.1531 6.29201 25.1531 10.3356Z" stroke="#FFC042" stroke-width="1.86625" stroke-linecap="round" stroke-linejoin="round"/>
<path d="M20.1764 5.35882C20.1764 6.90159 18.9198 8.1582 17.377 8.1582H13.0225C12.2511 8.1582 11.5543 7.84715 11.0442 7.33704C10.5341 6.82694 10.2231 6.13021 10.2231 5.35882C10.2231 3.81606 11.4797 2.55945 13.0225 2.55945H17.377C18.1484 2.55945 18.8452 2.87049 19.3553 3.3806C19.8654 3.89071 20.1764 4.58744 20.1764 5.35882Z" stroke="#FFC042" stroke-width="1.86625" stroke-linecap="round" stroke-linejoin="round"/>
<path d="M10.2231 16.2454H15.1998" stroke="#FFC042" stroke-width="1.86625" stroke-linecap="round" stroke-linejoin="round"/>
<path d="M10.2231 21.222H20.1764" stroke="#FFC042" stroke-width="1.86625" stroke-linecap="round" stroke-linejoin="round"/>
</svg>
