<svg width="31" height="31" viewBox="0 0 31 31" fill="none" xmlns="http://www.w3.org/2000/svg">
<path d="M15.1998 8.48303V12.6261" stroke="#44D2A8" stroke-width="1.86625" stroke-miterlimit="10" stroke-linecap="round"/>
<path d="M15.2247 2.95898C10.6462 2.95898 6.93854 6.6666 6.93854 11.2451V13.8579C6.93854 14.7039 6.59017 15.973 6.15471 16.6946L4.57462 19.3322C3.60417 20.9621 4.27602 22.7786 6.06762 23.3758C12.0147 25.354 18.4471 25.354 24.3942 23.3758C26.0738 22.8159 26.7954 20.8501 25.8872 19.3322L24.3071 16.6946C23.8716 15.973 23.5233 14.6915 23.5233 13.8579V11.2451C23.5108 6.69148 19.7783 2.95898 15.2247 2.95898Z" stroke="#44D2A8" stroke-width="1.86625" stroke-miterlimit="10" stroke-linecap="round"/>
<path d="M19.3429 23.8859C19.3429 26.1627 17.4766 28.0289 15.1998 28.0289C14.0676 28.0289 13.0225 27.5562 12.276 26.8097C11.5295 26.0632 11.0567 25.0181 11.0567 23.8859" stroke="#44D2A8" stroke-width="1.86625" stroke-miterlimit="10"/>
</svg>
