<svg width="42" height="42" viewBox="0 0 42 42" fill="none" xmlns="http://www.w3.org/2000/svg">
<path d="M15.9887 18.8775C15.8198 18.8606 15.6171 18.8606 15.4312 18.8775C11.4106 18.7423 8.21783 15.4481 8.21783 11.3938C8.21783 7.25494 11.5627 3.89319 15.7184 3.89319C19.8573 3.89319 23.219 7.25494 23.219 11.3938C23.2021 15.4481 20.0093 18.7423 15.9887 18.8775Z" stroke="white" stroke-width="2.53398" stroke-linecap="round" stroke-linejoin="round"/>
<path d="M28.2363 7.27185C31.5136 7.27185 34.149 9.92408 34.149 13.1845C34.149 16.3773 31.615 18.9788 28.4559 19.0971C28.3208 19.0802 28.1688 19.0802 28.0167 19.0971" stroke="white" stroke-width="2.53398" stroke-linecap="round" stroke-linejoin="round"/>
<path d="M7.54207 25.1111C3.45391 27.8478 3.45391 32.3076 7.54207 35.0274C12.1877 38.1357 19.8065 38.1357 24.4522 35.0274C28.5403 32.2907 28.5403 27.8309 24.4522 25.1111C19.8234 22.0196 12.2046 22.0196 7.54207 25.1111Z" stroke="white" stroke-width="2.53398" stroke-linecap="round" stroke-linejoin="round"/>
<path d="M31.4967 34.301C32.713 34.0476 33.8618 33.5577 34.8078 32.8313C37.4431 30.8547 37.4431 27.5944 34.8078 25.6179C33.8786 24.9083 32.7468 24.4353 31.5474 24.165" stroke="white" stroke-width="2.53398" stroke-linecap="round" stroke-linejoin="round"/>
</svg>
