<svg width="31" height="31" viewBox="0 0 31 31" fill="none" xmlns="http://www.w3.org/2000/svg">
<path d="M11.0566 17.889H5.24639C3.87781 17.889 2.75806 19.0088 2.75806 20.3774V27.8424H11.0566V17.889Z" stroke="#FFC042" stroke-width="1.86625" stroke-miterlimit="10" stroke-linecap="round" stroke-linejoin="round"/>
<path d="M16.8546 12.9124H13.5326C12.1641 12.9124 11.0443 14.0321 11.0443 15.4007V27.8424H19.3429V15.4007C19.3429 14.0321 18.2356 12.9124 16.8546 12.9124Z" stroke="#FFC042" stroke-width="1.86625" stroke-miterlimit="10" stroke-linecap="round" stroke-linejoin="round"/>
<path d="M25.153 21.6216H19.3428V27.8424H27.6414V24.1099C27.6414 22.7413 26.5216 21.6216 25.153 21.6216Z" stroke="#FFC042" stroke-width="1.86625" stroke-miterlimit="10" stroke-linecap="round" stroke-linejoin="round"/>
<path d="M15.8468 3.04622L16.5062 4.36503C16.5933 4.55166 16.8297 4.72584 17.0287 4.75072L18.2231 4.94979C18.9821 5.07421 19.1687 5.63406 18.6213 6.16905L17.6881 7.10218C17.5264 7.26392 17.4393 7.56253 17.4891 7.77404L17.7503 8.91869C17.9618 9.82693 17.4766 10.1753 16.6803 9.70252L15.5606 9.04311C15.3615 8.91869 15.0256 8.91869 14.8265 9.04311L13.7068 9.70252C12.9105 10.1753 12.4253 9.82693 12.6368 8.91869L12.8981 7.77404C12.9479 7.56253 12.8608 7.25148 12.699 7.10218L11.7783 6.1815C11.2309 5.63407 11.4051 5.08662 12.1765 4.96221L13.3709 4.76317C13.5699 4.72585 13.8063 4.55167 13.8934 4.37749L14.5528 3.05863C14.9136 2.33702 15.486 2.33704 15.8468 3.04622Z" stroke="#FFC042" stroke-width="1.86625" stroke-linecap="round" stroke-linejoin="round"/>
</svg>
