<svg width="41" height="42" viewBox="0 0 41 42" fill="none" xmlns="http://www.w3.org/2000/svg">
<path d="M32.3797 32.0543L28.7646 24.8409L25.1494 32.0543" stroke="white" stroke-width="2.53398" stroke-linecap="round" stroke-linejoin="round"/>
<path d="M25.8082 30.7704H31.7546" stroke="white" stroke-width="2.53398" stroke-linecap="round" stroke-linejoin="round"/>
<path d="M28.7644 37.6796C24.0343 37.6796 20.1826 33.8448 20.1826 29.0978C20.1826 24.3677 24.0174 20.5161 28.7644 20.5161C33.4945 20.5161 37.3461 24.3508 37.3461 29.0978C37.3461 33.8448 33.5114 37.6796 28.7644 37.6796Z" stroke="white" stroke-width="2.53398" stroke-linecap="round" stroke-linejoin="round"/>
<path d="M8.66157 3.89331H15.2837C18.7806 3.89331 20.4699 5.58266 20.3855 8.99509V15.6172C20.4699 19.1141 18.7806 20.8034 15.2837 20.719H8.66157C5.24914 20.7866 3.55981 19.0972 3.55981 15.6003V8.97818C3.55981 5.58265 5.24914 3.89331 8.66157 3.89331Z" stroke="white" stroke-width="2.53398" stroke-linecap="round" stroke-linejoin="round"/>
<path d="M15.4021 10.3971H8.54346" stroke="white" stroke-width="2.53398" stroke-linecap="round" stroke-linejoin="round"/>
<path d="M11.9559 9.24854V10.3973" stroke="white" stroke-width="2.53398" stroke-linecap="round" stroke-linejoin="round"/>
<path d="M13.6789 10.3804C13.6789 13.3367 11.3645 15.7355 8.52649 15.7355" stroke="white" stroke-width="2.53398" stroke-linecap="round" stroke-linejoin="round"/>
<path d="M15.402 15.7356C14.1688 15.7356 13.0538 15.0768 12.2767 14.0294" stroke="white" stroke-width="2.53398" stroke-linecap="round" stroke-linejoin="round"/>
<path d="M3.55981 25.8545C3.55981 32.3922 8.84739 37.6797 15.3851 37.6797L13.6113 34.7234" stroke="white" stroke-width="2.53398" stroke-linecap="round" stroke-linejoin="round"/>
<path d="M37.3462 15.7186C37.3462 9.18088 32.0587 3.89331 25.521 3.89331L27.2948 6.84962" stroke="white" stroke-width="2.53398" stroke-linecap="round" stroke-linejoin="round"/>
</svg>
