<svg width="189" height="61" viewBox="0 0 189 61" fill="none" xmlns="http://www.w3.org/2000/svg">
<g clip-path="url(#clip0_10845_267)">
<path d="M6.73544 0H181.893C185.085 0 187.673 2.58798 187.673 5.78042V54.336C187.673 57.5284 185.085 60.1164 181.893 60.1164H6.73544C3.543 60.1164 0.955017 57.5284 0.955017 54.336V5.78042C0.955017 2.58798 3.543 0 6.73544 0Z" fill="#363F4D"/>
<path d="M168.858 28.5677C168.816 23.9101 172.672 21.6441 172.847 21.5387C170.665 18.3551 167.28 17.9202 166.09 17.8855C163.248 17.5863 160.491 19.5863 159.043 19.5863C157.566 19.5863 155.336 17.9144 152.933 17.9635C149.84 18.0112 146.948 19.8017 145.36 22.5821C142.086 28.2512 144.528 36.5823 147.666 41.1646C149.234 43.4089 151.069 45.9148 153.469 45.8266C155.817 45.7298 156.695 44.3294 159.528 44.3294C162.336 44.3294 163.159 45.8265 165.608 45.7702C168.128 45.7298 169.714 43.5159 171.229 41.2513C173.043 38.6791 173.771 36.1458 173.8 36.0158C173.741 35.9956 168.905 34.1501 168.858 28.5677Z" fill="white"/>
<path d="M164.233 14.8708C165.496 13.2914 166.361 11.1425 166.12 8.96185C164.292 9.04278 162.007 10.2263 160.69 11.7712C159.525 13.1324 158.484 15.3637 158.754 17.462C160.807 17.6152 162.915 16.4258 164.233 14.8708Z" fill="white"/>
<path d="M31.0637 45.5042H27.7818L25.9841 39.8553H19.7355L18.0231 45.5042H14.8279L21.0187 26.2727H24.8425L31.0637 45.5042ZM25.4422 37.4853L23.8164 32.4635C23.6445 31.9506 23.3222 30.7425 22.8468 28.8407H22.789C22.5997 29.6586 22.2948 30.8668 21.8757 32.4635L20.2788 37.4853H25.4422Z" fill="white"/>
<path d="M46.9844 38.4001C46.9844 40.7585 46.3471 42.6227 45.0725 43.9913C43.9308 45.2094 42.5132 45.8179 40.821 45.8179C38.9944 45.8179 37.6822 45.1618 36.8831 43.8496H36.8253V51.1546H33.7443V36.2021C33.7443 34.7195 33.7053 33.1977 33.6301 31.637H36.3398L36.5117 33.835H36.5695C37.597 32.179 39.1562 31.3524 41.2487 31.3524C42.8846 31.3524 44.2503 31.9983 45.3428 33.2917C46.4382 34.5865 46.9844 36.2888 46.9844 38.4001ZM43.8456 38.5128C43.8456 37.1631 43.5422 36.0503 42.9323 35.1746C42.2661 34.2613 41.3716 33.8046 40.2502 33.8046C39.4901 33.8046 38.7993 34.059 38.1822 34.5605C37.5637 35.0663 37.1591 35.7266 36.9698 36.5446C36.8744 36.9261 36.8267 37.2382 36.8267 37.4839V39.7961C36.8267 40.8047 37.136 41.656 37.7545 42.351C38.373 43.0462 39.1764 43.393 40.1649 43.393C41.3254 43.393 42.2285 42.945 42.8745 42.0519C43.5219 41.1573 43.8456 39.9781 43.8456 38.5128Z" fill="white"/>
<path d="M62.9341 38.4001C62.9341 40.7585 62.2968 42.6227 61.0208 43.9913C59.8806 45.2094 58.4629 45.8179 56.7708 45.8179C54.9441 45.8179 53.632 45.1618 52.8343 43.8496H52.7765V51.1546H49.6955V36.2021C49.6955 34.7195 49.6564 33.1977 49.5813 31.637H52.2909L52.4628 33.835H52.5206C53.5467 32.179 55.106 31.3524 57.1999 31.3524C58.8344 31.3524 60.1999 31.9983 61.2953 33.2917C62.3864 34.5865 62.9341 36.2888 62.9341 38.4001ZM59.7953 38.5128C59.7953 37.1631 59.4904 36.0503 58.8806 35.1746C58.2144 34.2613 57.3228 33.8046 56.1999 33.8046C55.4384 33.8046 54.749 34.059 54.1305 34.5605C53.512 35.0663 53.1089 35.7266 52.9195 36.5446C52.8256 36.9261 52.7765 37.2382 52.7765 37.4839V39.7961C52.7765 40.8047 53.0857 41.656 53.7014 42.351C54.3199 43.0446 55.1233 43.393 56.1147 43.393C57.275 43.393 58.1783 42.945 58.8242 42.0519C59.4716 41.1573 59.7953 39.9781 59.7953 38.5128Z" fill="white"/>
<path d="M80.7666 40.111C80.7666 41.7469 80.1987 43.0779 79.0585 44.1053C77.8056 45.2282 76.0613 45.7889 73.82 45.7889C71.7507 45.7889 70.0917 45.3901 68.8358 44.5909L69.5497 42.023C70.9023 42.8409 72.3865 43.2513 74.0035 43.2513C75.164 43.2513 76.0671 42.9883 76.716 42.4652C77.3619 41.942 77.6843 41.2397 77.6843 40.364C77.6843 39.5836 77.4184 38.9261 76.8851 38.3929C76.3548 37.8596 75.4689 37.3639 74.2318 36.9058C70.8647 35.6501 69.1826 33.8104 69.1826 31.3913C69.1826 29.8103 69.7722 28.5141 70.953 27.5054C72.1293 26.4953 73.6987 25.991 75.6611 25.991C77.4111 25.991 78.8649 26.2958 80.0253 26.9043L79.255 29.4159C78.1712 28.8263 76.9458 28.5315 75.5744 28.5315C74.4906 28.5315 73.6437 28.7988 73.0368 29.3305C72.5237 29.806 72.2665 30.3855 72.2665 31.072C72.2665 31.8321 72.5599 32.4606 73.1495 32.9549C73.6625 33.4115 74.5946 33.9058 75.9472 34.4391C77.6018 35.1052 78.8172 35.8842 79.599 36.7772C80.3779 37.6674 80.7666 38.7815 80.7666 40.111Z" fill="white"/>
<path d="M90.9531 33.9491H87.5571V40.6819C87.5571 42.3943 88.1554 43.2498 89.3548 43.2498C89.9055 43.2498 90.3621 43.2022 90.7234 43.1068L90.8086 45.4464C90.2017 45.6733 89.4026 45.7874 88.4126 45.7874C87.1959 45.7874 86.245 45.4161 85.5586 44.6747C84.875 43.9319 84.5311 42.6862 84.5311 40.9363V33.9462H82.5079V31.6341H84.5311V29.0951L87.5571 28.1818V31.6341H90.9531V33.9491Z" fill="white"/>
<path d="M106.276 38.4565C106.276 40.588 105.666 42.3381 104.449 43.7065C103.173 45.1156 101.479 45.8179 99.368 45.8179C97.3333 45.8179 95.7134 45.143 94.5053 43.7932C93.2972 42.4435 92.6931 40.7398 92.6931 38.6862C92.6931 36.5374 93.3145 34.7773 94.5616 33.4087C95.8059 32.0387 97.4851 31.3538 99.5963 31.3538C101.631 31.3538 103.268 32.0287 104.504 33.3798C105.686 34.6906 106.276 36.3827 106.276 38.4565ZM103.079 38.5562C103.079 37.2773 102.806 36.1804 102.252 35.2657C101.607 34.1588 100.683 33.6067 99.4865 33.6067C98.2481 33.6067 97.3073 34.1602 96.6614 35.2657C96.1078 36.1819 95.8348 37.296 95.8348 38.614C95.8348 39.8929 96.1078 40.9897 96.6614 41.903C97.3275 43.01 98.2582 43.562 99.4591 43.562C100.635 43.562 101.559 42.9984 102.225 41.8741C102.793 40.9421 103.079 39.8336 103.079 38.5562Z" fill="white"/>
<path d="M116.291 34.3466C115.985 34.2902 115.661 34.2613 115.319 34.2613C114.235 34.2613 113.397 34.6703 112.807 35.4896C112.294 36.2122 112.037 37.1255 112.037 38.2282V45.5042H108.958L108.987 36.0041C108.987 34.4058 108.948 32.9506 108.871 31.6385H111.555L111.667 34.2917H111.753C112.078 33.3798 112.591 32.6457 113.293 32.0951C113.979 31.5994 114.721 31.3524 115.52 31.3524C115.805 31.3524 116.062 31.3726 116.291 31.4087V34.3466Z" fill="white"/>
<path d="M130.069 37.9145C130.069 38.4666 130.033 38.9319 129.957 39.312H120.714C120.75 40.682 121.196 41.7296 122.055 42.4522C122.834 43.0982 123.841 43.4219 125.078 43.4219C126.447 43.4219 127.695 43.2036 128.818 42.7658L129.3 44.9046C127.988 45.4768 126.439 45.7615 124.651 45.7615C122.501 45.7615 120.813 45.1285 119.585 43.8641C118.36 42.5996 117.745 40.9016 117.745 38.7715C117.745 36.6804 118.316 34.9391 119.459 33.5503C120.656 32.0676 122.273 31.3264 124.308 31.3264C126.306 31.3264 127.819 32.0676 128.847 33.5503C129.661 34.7281 130.069 36.1848 130.069 37.9145ZM127.131 37.1154C127.152 36.2021 126.951 35.4131 126.533 34.7469C125.999 33.89 125.181 33.4622 124.078 33.4622C123.071 33.4622 122.251 33.8798 121.626 34.718C121.113 35.3842 120.807 36.1833 120.714 37.1139L127.131 37.1154Z" fill="white"/>
<path d="M88.4788 12.938C88.0719 12.938 87.7389 12.605 87.7389 12.1981C87.7389 11.8035 88.0719 11.4583 88.4788 11.4583C88.8734 11.4583 89.2063 11.8035 89.2063 12.1981C89.2063 12.605 88.8734 12.938 88.4788 12.938ZM93.7937 17.2787V18.4749H92.4125C92.3509 20.4357 90.8587 21.8784 88.8734 21.8784H88.8118C86.7893 21.8784 85.2849 20.3739 85.2849 18.3516V15.8729H86.4687V18.3516C86.4687 19.7328 87.4306 20.6946 88.8118 20.6946H88.8734C90.2422 20.6946 91.2164 19.7328 91.2164 18.3516V12.5804H92.4125V17.2787H93.7937Z" fill="white"/>
<path d="M97.9111 12.2104C99.3909 12.2104 100.513 13.3327 100.513 14.8124V15.8236C100.513 17.2541 99.3662 18.4256 97.9728 18.4256C97.1712 18.4256 96.419 18.142 95.8764 17.624C95.5435 18.142 94.9638 18.4749 94.2609 18.4749H93.7184L93.2004 18.2776V17.4761L93.7184 17.2787H94.2609C94.8036 17.2787 95.1735 16.8964 95.1735 16.3539V14.8124C95.1735 13.3327 96.2956 12.2104 97.7754 12.2104H97.9111ZM99.3169 15.8236V14.8124C99.3169 13.9738 98.7373 13.3943 97.9111 13.3943H97.7754C96.9493 13.3943 96.3696 13.9738 96.3696 14.8124V16.4772C96.7273 16.9581 97.3192 17.2417 97.9728 17.2417C98.7003 17.2417 99.3169 16.6004 99.3169 15.8236Z" fill="white"/>
<path d="M112.707 17.2787V18.4749H111.277C111.141 20.3617 109.674 21.7305 107.75 21.7305H107.688C105.666 21.7305 104.162 20.226 104.162 18.1912V15.725H105.345V18.1912C105.345 19.5848 106.307 20.5343 107.688 20.5343H107.75C109.119 20.5343 110.093 19.5848 110.093 18.1912V9.89215H111.289V17.2787H112.707Z" fill="white"/>
<path d="M112.532 18.475V17.2788H114.628C114.899 17.2788 115.183 17.0938 115.183 16.6992V12.6298H116.367V17.1062C116.367 17.8831 115.775 18.475 114.998 18.475H112.532ZM113.679 21.1262C113.272 21.1262 112.939 20.7933 112.939 20.3863C112.939 19.9918 113.272 19.6588 113.679 19.6588C114.073 19.6588 114.406 19.9918 114.406 20.3863C114.406 20.7933 114.073 21.1262 113.679 21.1262ZM115.886 21.1262C115.479 21.1262 115.146 20.7933 115.146 20.3863C115.146 19.9918 115.479 19.6588 115.886 19.6588C116.28 19.6588 116.613 19.9918 116.613 20.3863C116.613 20.7933 116.28 21.1262 115.886 21.1262Z" fill="white"/>
<path d="M120.361 11.4213C119.966 11.4213 119.621 11.0884 119.621 10.6814C119.621 10.2868 119.966 9.95386 120.361 9.95386C120.768 9.95386 121.101 10.2868 121.101 10.6814C121.101 11.0884 120.768 11.4213 120.361 11.4213ZM122.161 17.2788V18.475H120.977V18.6846C120.977 20.152 119.88 21.2619 118.412 21.2619H117.783V20.0658H118.412C119.214 20.0658 119.794 19.4985 119.794 18.6846V12.5558H120.977V17.2788H122.161Z" fill="white"/>
<path d="M123.942 11.6555C123.535 11.6555 123.202 11.3226 123.202 10.9156C123.202 10.521 123.535 10.1757 123.942 10.1757C124.336 10.1757 124.669 10.521 124.669 10.9156C124.669 11.3226 124.336 11.6555 123.942 11.6555ZM125.619 17.2787H126.026V18.4749H125.458C124.891 18.4749 124.398 18.1912 124.04 17.7842C123.72 18.1912 123.226 18.4749 122.486 18.4749H122.018L121.5 18.2775V17.476L122.018 17.2787H122.499C123.189 17.2787 123.448 16.8348 123.461 16.2798L123.448 12.642H124.644V16.2552C124.644 16.8224 124.916 17.2787 125.619 17.2787Z" fill="white"/>
<path d="M127.147 11.7541C126.74 11.7541 126.407 11.4213 126.407 11.0143C126.407 10.6197 126.74 10.2867 127.147 10.2867C127.543 10.2867 127.876 10.6197 127.876 11.0143C127.876 11.4213 127.543 11.7541 127.147 11.7541ZM129.355 11.7541C128.96 11.7541 128.616 11.4213 128.616 11.0143C128.616 10.6197 128.96 10.2867 129.355 10.2867C129.762 10.2867 130.095 10.6197 130.095 11.0143C130.095 11.4213 129.762 11.7541 129.355 11.7541ZM125.791 18.4749V17.2787H127.469C127.739 17.2787 128.024 17.0938 128.024 16.6992V12.6298H129.207V17.1061C129.207 17.883 128.616 18.4749 127.839 18.4749H125.791Z" fill="white"/>
</g>
<defs>
<clipPath id="clip0_10845_267">
<rect width="188.442" height="60.1164" fill="white"/>
</clipPath>
</defs>
</svg>
