<svg width="366" height="293" viewBox="0 0 366 293" fill="none" xmlns="http://www.w3.org/2000/svg">
<mask id="mask0_10845_506" style="mask-type:luminance" maskUnits="userSpaceOnUse" x="-141" y="-214" width="507" height="507">
<path d="M180.769 292.767L365.966 -28.0024L45.1963 -213.199L-140 107.571L180.769 292.767Z" fill="white"/>
</mask>
<g mask="url(#mask0_10845_506)">
<path d="M12.8753 29.4608C17.9153 35.2268 22.9554 41.6019 27.8869 48.436L12.8753 29.4608Z" fill="white"/>
<path d="M12.8753 29.4608C17.9153 35.2268 22.9554 41.6019 27.8869 48.436" stroke="white" stroke-width="10" stroke-linecap="round"/>
<path d="M-11.644 24.8464C7.64889 47.0735 24.9664 79.2913 34.93 109.111" stroke="#44D2A8" stroke-width="20" stroke-linecap="round"/>
<path d="M54.3343 67.2583C73.5452 85.0258 102.834 118.352 119.41 146.047" stroke="#FFBF41" stroke-width="20" stroke-linecap="round"/>
<path d="M101.528 77.6104L101.528 77.6109C101.584 78.1761 101.358 78.7337 100.924 79.1008L98.5171 81.135L98.517 81.135C98.0569 81.5239 98.242 82.2724 98.8318 82.4014C98.8318 82.4014 98.8318 82.4014 98.8318 82.4014L101.91 83.0743L101.91 83.0744C102.465 83.196 102.925 83.5826 103.14 84.1091L101.528 77.6104ZM101.528 77.6104L101.216 74.4753L101.528 77.6104ZM104.331 87.0255L103.14 84.1092L101.216 74.4748C101.157 73.8741 101.811 73.4669 102.324 73.7845L105.001 75.4449L105.002 75.4451C105.485 75.7441 106.085 75.7864 106.605 75.5578C106.605 75.5577 106.605 75.5576 106.606 75.5575L109.491 74.2935L109.491 74.2933C110.043 74.051 110.634 74.5475 110.49 75.1326L110.49 75.1328L109.739 78.1928C109.739 78.1929 109.739 78.193 109.739 78.1931C109.739 78.1931 109.739 78.1931 109.739 78.1932C109.603 78.7453 109.748 79.3286 110.125 79.7534L110.126 79.7538L112.221 82.1071C112.622 82.5577 112.333 83.2725 111.731 83.3168L108.589 83.548C108.022 83.5895 107.511 83.9074 107.224 84.3992C107.224 84.3992 107.224 84.3993 107.224 84.3994L105.633 87.1179L105.633 87.1182C105.329 87.6386 104.56 87.5848 104.331 87.0257C104.331 87.0257 104.331 87.0257 104.331 87.0256C104.331 87.0256 104.331 87.0256 104.331 87.0255Z" fill="white" stroke="white"/>
<path d="M-1.04127 106.54L-0.729102 109.675C-0.689435 110.077 -0.84984 110.474 -1.15828 110.734L-3.56499 112.768C-4.34179 113.425 -4.02877 114.688 -3.03427 114.905L0.0436077 115.578C0.438721 115.665 0.765521 115.939 0.918084 116.313L2.10879 119.23C2.49393 120.172 3.7916 120.265 4.30529 119.386L5.89646 116.667C6.10034 116.317 6.46317 116.092 6.86632 116.062L10.0082 115.831C11.023 115.756 11.5122 114.551 10.8357 113.79L8.73983 111.437C8.47155 111.135 8.36878 110.72 8.46537 110.328L9.21629 107.267C9.45904 106.28 8.46262 105.442 7.53113 105.851L4.64484 107.115C4.27543 107.278 3.84868 107.248 3.5055 107.035L0.827647 105.375C-0.0375448 104.839 -1.14105 105.527 -1.04127 106.54Z" fill="#44D2A8"/>
<path d="M40.5784 11.5244C98.5382 53.475 173.513 69.9059 207.812 72.1252" stroke="white" stroke-width="17" stroke-linecap="round"/>
<path d="M45.4957 -11.1124C90.4116 26.0889 144.428 14.7844 175.625 0.658871" stroke="#FFBF41" stroke-width="17" stroke-linecap="round"/>
<path d="M5.44034 -27.3168C59.1377 -4.55785 107.644 -30.8773 133.48 -53.3556" stroke="white" stroke-width="17" stroke-linecap="round"/>
<path d="M-24.7521 -30.7087C27.7163 -19.0917 65.9838 -44.292 89.2447 -70.8553" stroke="#FEC452" stroke-width="17" stroke-linecap="round"/>
<path d="M147.939 25.9084L148.251 29.044C148.291 29.4459 148.13 29.8422 147.822 30.1029L145.415 32.1371C144.638 32.7936 144.951 34.0564 145.946 34.2739L149.024 34.9468C149.419 35.0333 149.746 35.3081 149.898 35.6821L151.089 38.5988C151.474 39.5409 152.772 39.6334 153.285 38.7545L154.876 36.0355C155.08 35.6861 155.443 35.4602 155.846 35.4307L158.988 35.1995C160.003 35.1248 160.492 33.9192 159.816 33.1588L157.72 30.8053C157.452 30.5033 157.349 30.0887 157.445 29.6963L158.196 26.6359C158.439 25.6483 157.443 24.8105 156.511 25.2195L153.625 26.4839C153.255 26.6465 152.829 26.6165 152.485 26.404L149.808 24.7435C148.942 24.2074 147.839 24.8957 147.939 25.9084Z" fill="#44D2A8"/>
<path d="M203.861 46.6652C201.64 46.1959 199.46 47.6161 198.99 49.8368C198.521 52.0582 199.94 54.2394 202.161 54.709C204.382 55.1776 206.563 53.7574 207.032 51.5367C207.502 49.3157 206.082 47.1348 203.861 46.6652Z" fill="#FEC452"/>
<g opacity="0.253765">
<path d="M72.5049 19.5985C72.6672 20.1514 73.2468 20.4677 73.7995 20.3055C74.3523 20.1432 74.6689 19.5636 74.5068 19.0109C74.3443 18.4582 73.7648 18.1419 73.212 18.304C72.6592 18.4661 72.3427 19.0458 72.5049 19.5985Z" fill="#2BA07D"/>
</g>
<path d="M152.633 131.059L152.633 131.059C151.783 129.256 149.631 128.485 147.828 129.336L152.633 131.059ZM152.633 131.059C153.485 132.862 152.713 135.014 150.911 135.865L152.633 131.059ZM150.91 135.865C149.107 136.716 146.955 135.944 146.104 134.142L150.91 135.865ZM146.104 134.142C145.252 132.338 146.024 130.187 147.828 129.336L146.104 134.142Z" fill="#44D2A8" stroke="#44D2A8"/>
<g opacity="0.253765">
<path d="M23.7805 24.3262C24.0266 24.847 24.6483 25.0699 25.1692 24.8241C25.69 24.5781 25.913 23.9565 25.667 23.4355C25.4214 22.9147 24.7995 22.692 24.2787 22.9376C23.7575 23.1835 23.5345 23.8051 23.7805 24.3262Z" fill="#9D7DD5"/>
</g>
</g>
</svg>
