<svg width="204" height="61" viewBox="0 0 204 61" fill="none" xmlns="http://www.w3.org/2000/svg">
<g clip-path="url(#clip0_10845_286)">
<path d="M7.07312 0H197.363C200.556 0 203.144 2.58798 203.144 5.78042V54.336C203.144 57.5284 200.556 60.1164 197.363 60.1164H7.07312C3.88068 60.1164 1.29269 57.5284 1.29269 54.336V5.78042C1.29269 2.58798 3.88068 0 7.07312 0Z" fill="#363F4D"/>
<path d="M114.196 45.16H117V26.3709H114.196V45.16ZM139.455 33.1396L136.241 41.2852H136.144L132.808 33.1396H129.788L134.791 44.5243L131.938 50.8574H134.863L142.574 33.1402L139.455 33.1396ZM123.551 43.0258C122.634 43.0258 121.352 42.566 121.352 41.4301C121.352 39.9801 122.949 39.4241 124.324 39.4241C125.557 39.4241 126.138 39.6895 126.887 40.0523C126.669 41.7929 125.171 43.0258 123.551 43.0258ZM123.891 32.7286C121.86 32.7286 119.758 33.6233 118.887 35.6054L121.376 36.6445C121.908 35.6054 122.899 35.2673 123.938 35.2673C125.389 35.2673 126.863 36.1367 126.887 37.6842V37.8773C126.379 37.5872 125.291 37.1523 123.962 37.1523C121.278 37.1523 118.547 38.6264 118.547 41.382C118.547 43.8958 120.747 45.5155 123.212 45.5155C125.098 45.5155 126.138 44.6695 126.789 43.678H126.887V45.1293H129.595V37.9254C129.595 34.5897 127.104 32.7286 123.891 32.7286ZM106.559 35.4268H102.57V28.9869H106.559C108.655 28.9869 109.845 30.7223 109.845 32.2068C109.845 33.6628 108.655 35.4268 106.559 35.4268ZM106.487 26.3713H99.767V45.1605H102.57V38.0424H106.487C109.595 38.0424 112.65 35.7927 112.65 32.2075C112.65 28.6229 109.594 26.3713 106.487 26.3713ZM69.845 43.0289C67.9076 43.0289 66.2862 41.4062 66.2862 39.1796C66.2862 36.927 67.9076 35.2814 69.845 35.2814C71.7577 35.2814 73.2589 36.9271 73.2589 39.1796C73.2589 41.4062 71.7577 43.0289 69.845 43.0289ZM73.065 34.1914H72.9681C72.3389 33.441 71.1276 32.7631 69.6031 32.7631C66.4065 32.7631 63.477 35.5721 63.477 39.1796C63.477 42.7625 66.4065 45.5468 69.6031 45.5468C71.1276 45.5468 72.3388 44.8687 72.9681 44.0945H73.065V45.0138C73.065 47.4602 71.7577 48.7669 69.6512 48.7669C67.9328 48.7669 66.8675 47.5323 66.4312 46.4914L63.9863 47.5081C64.6878 49.2023 66.5516 51.2853 69.6513 51.2853C72.9448 51.2853 75.7292 49.3479 75.7292 44.6263V33.1503H73.0651L73.065 34.1914ZM77.6665 45.1594H80.4739V26.3703H77.6665V45.1594ZM84.6144 38.9612C84.5423 36.4915 86.5282 35.2327 87.9561 35.2327C89.0703 35.2327 90.0135 35.7898 90.3295 36.5883L84.6144 38.9612ZM93.3306 36.8302C92.7981 35.4025 91.1761 32.7631 87.8591 32.7631C84.5656 32.7631 81.83 35.3536 81.83 39.155C81.83 42.7385 84.5423 45.547 88.1732 45.547C91.1027 45.547 92.7982 43.7558 93.5008 42.7143L91.3215 41.2614C90.5949 42.3269 89.6027 43.029 88.1732 43.029C86.7455 43.029 85.7282 42.3751 85.0753 41.0919L93.6211 37.5571L93.3306 36.8302ZM25.2381 34.7244V37.4361H31.7269C31.5331 38.9613 31.0247 40.0749 30.2498 40.8499C29.3052 41.7938 27.8282 42.8352 25.238 42.8352C21.2429 42.8352 18.1199 39.6152 18.1199 35.6202C18.1199 31.6253 21.2429 28.4048 25.238 28.4048C27.3931 28.4048 28.9665 29.2524 30.1287 30.342L32.042 28.4288C30.4194 26.8794 28.2648 25.6931 25.238 25.6931C19.7653 25.6931 15.1652 30.1483 15.1652 35.6202C15.1652 41.0918 19.7653 45.547 25.238 45.547C28.1916 45.547 30.4194 44.5784 32.1624 42.7626C33.9542 40.9708 34.5112 38.4529 34.5112 36.4187C34.5112 35.79 34.4624 35.2088 34.3656 34.7244H25.2381ZM41.889 43.0289C39.9516 43.0289 38.2808 41.431 38.2808 39.155C38.2808 36.8548 39.9516 35.2815 41.889 35.2815C43.8257 35.2815 45.4963 36.8548 45.4963 39.155C45.4963 41.431 43.8257 43.0289 41.889 43.0289ZM41.889 32.7631C38.353 32.7631 35.4722 35.4505 35.4722 39.155C35.4722 42.8352 38.353 45.547 41.889 45.547C45.4237 45.547 48.305 42.8352 48.305 39.155C48.305 35.4505 45.4237 32.7631 41.889 32.7631ZM55.8854 43.0289C53.9493 43.0289 52.278 41.431 52.278 39.155C52.278 36.8548 53.9494 35.2815 55.8854 35.2815C57.8227 35.2815 59.4929 36.8548 59.4929 39.155C59.4929 41.431 57.8227 43.0289 55.8854 43.0289ZM55.8854 32.7631C52.3507 32.7631 49.4699 35.4505 49.4699 39.155C49.4699 42.8352 52.3507 45.547 55.8854 45.547C59.4214 45.547 62.3021 42.8352 62.3021 39.155C62.3021 35.4505 59.4214 32.7631 55.8854 32.7631Z" fill="white"/>
<path d="M177.168 28.1935L160.625 11.6232L181.673 23.6934L177.168 28.1935ZM156.307 10.6498C155.333 11.1589 154.681 12.0875 154.681 13.2929V46.3361C154.681 47.5417 155.333 48.4702 156.307 48.9793L175.541 29.8108L156.307 10.6498ZM188.18 27.542L183.764 24.9887L178.839 29.8182L183.764 34.6479L188.27 32.0946C189.619 31.0238 189.619 28.6128 188.18 27.542ZM160.625 48.0134L181.673 35.9432L177.168 31.4431L160.625 48.0134Z" fill="white"/>
<path d="M100.448 11.8771C100.041 11.8771 99.7085 11.5441 99.7085 11.1371C99.7085 10.7425 100.041 10.3972 100.448 10.3972C100.843 10.3972 101.176 10.7425 101.176 11.1371C101.176 11.5441 100.843 11.8771 100.448 11.8771ZM105.763 16.2177V17.4139H104.382C104.32 19.3746 102.828 20.8174 100.843 20.8174H100.781C98.759 20.8174 97.2545 19.313 97.2545 17.2905V14.8119H98.4383V17.2905C98.4383 18.6717 99.4002 19.6336 100.781 19.6336H100.843C102.212 19.6336 103.186 18.6717 103.186 17.2905V11.5194H104.382V16.2177H105.763Z" fill="white"/>
<path d="M109.881 11.1494C111.36 11.1494 112.483 12.2716 112.483 13.7514V14.7626C112.483 16.193 111.336 17.3645 109.942 17.3645C109.141 17.3645 108.388 17.0809 107.846 16.563C107.513 17.0809 106.933 17.4139 106.231 17.4139H105.688L105.17 17.2165V16.415L105.688 16.2177H106.231C106.773 16.2177 107.143 15.8355 107.143 15.2928V13.7514C107.143 12.2716 108.265 11.1494 109.745 11.1494H109.881ZM111.286 14.7626V13.7514C111.286 12.9129 110.707 12.3332 109.881 12.3332H109.745C108.919 12.3332 108.339 12.9129 108.339 13.7514V15.4161C108.697 15.8971 109.289 16.1807 109.942 16.1807C110.67 16.1807 111.286 15.5395 111.286 14.7626Z" fill="white"/>
<path d="M124.677 16.2177V17.4139H123.247C123.11 19.3006 121.643 20.6694 119.72 20.6694H119.658C117.635 20.6694 116.131 19.165 116.131 17.1303V14.6639H117.315V17.1303C117.315 18.5237 118.277 19.4732 119.658 19.4732H119.72C121.088 19.4732 122.063 18.5237 122.063 17.1303V8.83112H123.258V16.2177H124.677Z" fill="white"/>
<path d="M124.501 17.4139V16.2177H126.597C126.869 16.2177 127.152 16.0327 127.152 15.6381V11.5687H128.336V16.0451C128.336 16.822 127.744 17.4139 126.967 17.4139H124.501ZM125.648 20.0651C125.241 20.0651 124.908 19.7322 124.908 19.3252C124.908 18.9307 125.241 18.5977 125.648 18.5977C126.042 18.5977 126.375 18.9307 126.375 19.3252C126.375 19.7322 126.042 20.0651 125.648 20.0651ZM127.855 20.0651C127.448 20.0651 127.115 19.7322 127.115 19.3252C127.115 18.9307 127.448 18.5977 127.855 18.5977C128.25 18.5977 128.583 18.9307 128.583 19.3252C128.583 19.7322 128.25 20.0651 127.855 20.0651Z" fill="white"/>
<path d="M132.33 10.3602C131.936 10.3602 131.59 10.0273 131.59 9.62032C131.59 9.22571 131.936 8.89276 132.33 8.89276C132.737 8.89276 133.07 9.22571 133.07 9.62032C133.07 10.0273 132.737 10.3602 132.33 10.3602ZM134.13 16.2177V17.4139H132.946V17.6235C132.946 19.091 131.849 20.2009 130.382 20.2009H129.753V19.0047H130.382C131.183 19.0047 131.763 18.4374 131.763 17.6235V11.4947H132.946V16.2177H134.13Z" fill="white"/>
<path d="M135.911 10.5946C135.504 10.5946 135.171 10.2616 135.171 9.8547C135.171 9.46008 135.504 9.11481 135.911 9.11481C136.306 9.11481 136.639 9.46008 136.639 9.8547C136.639 10.2616 136.306 10.5946 135.911 10.5946ZM137.588 16.2178H137.995V17.414H137.427C136.861 17.414 136.367 17.1304 136.01 16.7234C135.689 17.1304 135.196 17.414 134.456 17.414H133.987L133.469 17.2166V16.4151L133.987 16.2178H134.468C135.159 16.2178 135.418 15.7738 135.43 15.2189L135.418 11.5812H136.614V15.1943C136.614 15.7616 136.885 16.2178 137.588 16.2178Z" fill="white"/>
<path d="M139.118 10.6932C138.711 10.6932 138.378 10.3602 138.378 9.95327C138.378 9.55866 138.711 9.22571 139.118 9.22571C139.512 9.22571 139.845 9.55866 139.845 9.95327C139.845 10.3602 139.512 10.6932 139.118 10.6932ZM141.325 10.6932C140.93 10.6932 140.585 10.3602 140.585 9.95327C140.585 9.55866 140.93 9.22571 141.325 9.22571C141.731 9.22571 142.064 9.55866 142.064 9.95327C142.064 10.3602 141.731 10.6932 141.325 10.6932ZM137.761 17.4139V16.2177H139.438C139.709 16.2177 139.993 16.0327 139.993 15.6381V11.5687H141.177V16.0451C141.177 16.822 140.585 17.4139 139.808 17.4139H137.761Z" fill="white"/>
</g>
<defs>
<clipPath id="clip0_10845_286">
<rect width="203.471" height="60.1164" fill="white" transform="translate(0.441772)"/>
</clipPath>
</defs>
</svg>
