<svg width="211" height="65" viewBox="0 0 211 65" fill="none" xmlns="http://www.w3.org/2000/svg">
<path d="M12.9724 8.72452C12.3727 8.86928 11.7627 9.01404 11.1423 9.15879C10.5426 9.28287 9.94291 9.40694 9.34321 9.53102C8.92962 9.61374 8.56773 9.69645 8.25754 9.77917C7.92667 9.86189 7.61648 9.94461 7.32697 10.0273C6.93406 10.1307 6.64455 10.2238 6.45844 10.3065C6.25164 10.4099 6.08621 10.5133 5.96213 10.6167L5.83806 10.4616C5.92077 10.3168 6.03451 10.1617 6.17927 9.9963C6.30334 9.83087 6.41708 9.70679 6.52047 9.62408C6.74795 9.45864 6.95474 9.33457 7.14086 9.25185C7.32697 9.14845 7.55444 9.04505 7.82327 8.94166C8.17482 8.83826 8.60909 8.72452 9.12607 8.60045C9.62238 8.45569 10.1083 8.32128 10.584 8.1972C11.163 8.05245 11.7213 7.91803 12.259 7.79395C12.7967 7.66988 13.1792 7.56648 13.4067 7.48376L13.4687 7.57682L12.9724 8.72452ZM11.9701 17.7837C11.8874 17.9491 11.8461 18.1249 11.8461 18.311C11.8461 18.6005 11.8978 18.8693 12.0012 19.1175C12.1252 19.3449 12.301 19.6034 12.5285 19.8929C12.6939 20.0997 12.88 20.3272 13.0868 20.5754C13.3143 20.8028 13.5314 21.0303 13.7382 21.2578C13.945 21.4646 14.1311 21.6507 14.2966 21.8161C14.4827 21.9816 14.6067 22.0953 14.6688 22.1573C15.2685 22.7364 15.5683 23.3154 15.5683 23.8944C15.5683 24.246 15.5063 24.5872 15.3822 24.918C15.2581 25.2489 15.0824 25.5694 14.8549 25.8796L10.5743 32.2695H10.4192C10.3778 32.0834 10.2227 31.8456 9.95389 31.5561C9.68506 31.2666 9.36453 30.9564 8.9923 30.6255C8.62008 30.3153 8.21683 29.9845 7.78256 29.6329C7.36897 29.3021 6.99675 28.9815 6.66588 28.6713C6.25229 28.2784 5.85938 27.8752 5.48715 27.4616C5.1356 27.0687 4.82541 26.6344 4.55658 26.1588C4.28775 25.6625 4.07062 25.1352 3.90518 24.5768C3.76043 23.9978 3.68805 23.3464 3.68805 22.6226C3.68805 21.6714 3.86382 20.7615 4.21537 19.8929C4.5876 19.0244 5.10459 18.2593 5.76632 17.5975C6.44874 16.9151 7.25524 16.3775 8.18581 15.9845C9.11638 15.5916 10.1503 15.3952 11.2877 15.3952V15.6433C10.3778 15.664 9.54031 15.8501 8.77517 16.2017C8.03071 16.5326 7.38965 16.9668 6.85199 17.5045C6.31433 18.0421 5.8904 18.6418 5.58021 19.3036C5.27002 19.9653 5.11492 20.6374 5.11492 21.3198C5.11492 21.9816 5.22866 22.5916 5.45613 23.1499C5.68361 23.7083 6.00414 24.246 6.41772 24.7629C6.85199 25.2799 7.35864 25.7866 7.93766 26.2829C8.51668 26.7792 9.15774 27.2858 9.86084 27.8028C10.9155 28.63 11.5359 29.2193 11.722 29.5709H11.784C11.9081 29.3434 12.0632 29.0849 12.2493 28.7954C12.4354 28.5059 12.6215 28.2164 12.8076 27.9269C13.0144 27.6374 13.2006 27.3582 13.366 27.0894C13.5521 26.8412 13.6969 26.6344 13.8003 26.469C13.8623 26.3656 13.914 26.2518 13.9554 26.1278C14.0174 26.0037 14.0484 25.9003 14.0484 25.8176C14.0484 25.7142 14.0277 25.6108 13.9864 25.5074C13.945 25.3833 13.8623 25.2489 13.7382 25.1041C13.4901 24.8353 13.1695 24.5458 12.7766 24.2356C12.3837 23.9254 11.9701 23.5946 11.5359 23.243C11.1223 22.8915 10.7811 22.5296 10.5122 22.1573C10.2641 21.7644 10.14 21.3302 10.14 20.8545C10.14 20.5443 10.202 20.2445 10.3261 19.955C10.4709 19.6655 10.626 19.3863 10.7914 19.1175C10.9775 18.8486 11.1636 18.6005 11.3498 18.373C11.5359 18.1249 11.6806 17.8974 11.784 17.6906L11.9701 17.7837ZM10.7294 13.1618C10.7294 13.472 10.6156 13.7408 10.3882 13.9683C10.1814 14.1751 9.92288 14.2785 9.61269 14.2785C9.30249 14.2785 9.03366 14.1751 8.80619 13.9683C8.5994 13.7408 8.496 13.472 8.496 13.1618C8.496 12.8516 8.5994 12.5931 8.80619 12.3863C9.03366 12.1589 9.30249 12.0451 9.61269 12.0451C9.92288 12.0451 10.1814 12.1589 10.3882 12.3863C10.6156 12.5931 10.7294 12.8516 10.7294 13.1618ZM20.4635 24.918C20.8151 25.2075 21.2183 25.4971 21.6733 25.7866C22.1282 26.0554 22.5625 26.2932 22.9761 26.5L22.914 26.7482C22.335 26.7068 21.7146 26.6448 21.0529 26.562C20.3912 26.4793 19.8121 26.3656 19.3158 26.2208C18.9022 26.0968 18.53 25.9623 18.1991 25.8176C17.8683 25.6521 17.5891 25.4247 17.3616 25.1352C17.1342 24.8457 16.9584 24.4838 16.8343 24.0495C16.7309 23.6152 16.6792 23.0569 16.6792 22.3745V13.41L18.5093 11.5798H18.6644V21.0096C18.6644 21.63 18.7058 22.147 18.7885 22.5606C18.8919 22.9535 19.016 23.2947 19.1607 23.5842C19.3262 23.853 19.5226 24.0909 19.7501 24.2976C19.9776 24.5044 20.2154 24.7112 20.4635 24.918ZM15.5625 11.1456V10.246L17.4857 8.32285H17.7959C18.6851 8.81915 19.595 9.16036 20.5256 9.34647C21.4561 9.53259 22.3764 9.62564 23.2863 9.62564C24.2375 9.62564 25.075 9.53259 25.7988 9.34647C26.5433 9.13968 27.0913 8.95357 27.4428 8.78813L27.5359 8.94323C27.267 9.15002 26.9362 9.36715 26.5433 9.59463C26.1504 9.8221 25.7057 10.0392 25.2094 10.246C24.7338 10.4321 24.2168 10.5872 23.6585 10.7113C23.1001 10.8354 22.5315 10.8974 21.9524 10.8974C21.4148 10.8974 20.9288 10.8871 20.4945 10.8664C20.0603 10.825 19.657 10.763 19.2848 10.6803C18.9126 10.5976 18.5507 10.4942 18.1991 10.3701C17.8683 10.246 17.5167 10.0909 17.1445 9.90482H16.9584L15.6866 11.1456H15.5625ZM21.5322 9.56058C21.5322 9.66398 21.646 9.80873 21.8734 9.99485C21.9975 10.0982 22.163 10.2533 22.3697 10.4601C22.5972 10.6669 22.742 10.8427 22.804 10.9875C22.8247 11.0288 22.8454 11.1012 22.8661 11.2046C22.9074 11.2873 22.9281 11.3907 22.9281 11.5148C22.9281 11.8043 22.8454 12.1352 22.6799 12.5074C22.5352 12.8589 22.256 13.2105 21.8424 13.562H21.7494C21.5219 13.4586 21.3048 13.3759 21.098 13.3139C20.8705 13.2312 20.674 13.1381 20.5086 13.0347C20.3432 12.9313 20.2088 12.8072 20.1054 12.6625C20.002 12.5177 19.9503 12.3006 19.9503 12.0111C19.9503 11.887 19.9813 11.7216 20.0433 11.5148C20.0847 11.2873 20.1571 11.0909 20.2605 10.9254C20.4466 10.5946 20.643 10.3154 20.8498 10.0879C21.0566 9.86043 21.2427 9.68466 21.4082 9.56058H21.5322ZM21.0359 10.5842C20.8912 10.729 20.7878 10.8634 20.7257 10.9875C20.6223 11.1529 20.5706 11.308 20.5706 11.4527C20.5706 11.7009 20.7154 11.918 21.0049 12.1041C21.2117 12.2075 21.4082 12.3006 21.5943 12.3833C21.7804 12.4454 21.9665 12.5177 22.1526 12.6004C22.2147 12.4143 22.2457 12.2592 22.2457 12.1352C22.2457 11.949 22.1836 11.8043 22.0596 11.7009C21.9562 11.5975 21.8424 11.4941 21.7183 11.3907C21.4495 11.1632 21.2841 10.9875 21.222 10.8634C21.1393 10.7393 21.0876 10.6462 21.0669 10.5842H21.0359ZM16.11 29.4778C16.5856 29.6226 17.0922 29.757 17.6299 29.8811C18.1882 30.0258 18.6742 30.0982 19.0878 30.0982C19.9356 30.0982 20.6801 29.9638 21.3212 29.695C21.9622 29.4261 22.4895 29.0849 22.9031 28.6713C23.3374 28.2784 23.6579 27.8545 23.8647 27.3996C24.0922 26.9446 24.2059 26.531 24.2059 26.1588C24.2059 25.7452 24.0198 25.3523 23.6476 24.9801C23.296 24.5872 22.9031 24.2046 22.4689 23.8324C22.0346 23.4395 21.6313 23.0569 21.2591 22.6847C20.9076 22.2918 20.7318 21.8885 20.7318 21.4749C20.7318 21.3508 20.7732 21.1751 20.8559 20.9476C20.9593 20.7201 21.073 20.4926 21.1971 20.2652C21.3212 20.0377 21.4452 19.8206 21.5693 19.6138C21.6934 19.407 21.7864 19.2519 21.8485 19.1485C21.9312 19.0037 22.0139 18.859 22.0966 18.7142C22.1794 18.5695 22.2414 18.4454 22.2827 18.342L22.4689 18.404C22.4482 18.4454 22.4275 18.5074 22.4068 18.5901C22.3861 18.6522 22.3758 18.7349 22.3758 18.8383C22.3758 19.0244 22.4068 19.2209 22.4689 19.4277C22.5309 19.6138 22.655 19.8412 22.8411 20.1101C23.1099 20.5237 23.3684 20.8856 23.6166 21.1957C23.8854 21.4853 24.1232 21.7748 24.33 22.0643C24.5368 22.3331 24.7126 22.6123 24.8573 22.9018C25.0021 23.1706 25.0951 23.4808 25.1365 23.8324H26.0981V26.5H24.8883C24.785 27.0377 24.6299 27.596 24.4231 28.175C24.2369 28.754 23.9888 29.2814 23.6786 29.757C23.3684 30.2326 22.9962 30.6255 22.5619 30.9357C22.1277 31.2459 21.6107 31.401 21.011 31.401C20.6801 31.401 20.2769 31.339 19.8012 31.2149C19.3463 31.0908 18.881 30.9357 18.4054 30.7496C17.9297 30.5842 17.4748 30.4084 17.0405 30.2223C16.6269 30.0568 16.2857 29.9121 16.0169 29.788L16.11 29.4778ZM25.0185 24.1426L26.1041 23.8324H27.1898V26.5H26.1041L25.0185 25.8796V24.1426ZM26.109 24.1426L27.1947 23.8324H28.2803V26.5H27.1947L26.109 25.8796V24.1426ZM27.1995 24.1426L28.2852 23.8324H29.3708V26.5H28.2852L27.1995 25.8796V24.1426ZM28.29 24.1426L29.3757 23.8324H30.4614V26.5H29.3757L28.29 25.8796V24.1426ZM29.3805 24.1426L30.4662 23.8324H31.5519V26.5H30.4662L29.3805 25.8796V24.1426ZM30.471 24.1426L31.5567 23.8324H32.6424V26.5H31.5567L30.471 25.8796V24.1426ZM31.5616 24.1426L32.6472 23.8324H33.7329V26.5H32.6472L31.5616 25.8796V24.1426ZM32.6521 24.1426L33.7377 23.8324H34.8234V26.5H33.7377L32.6521 25.8796V24.1426ZM33.7426 24.1426L34.8283 23.8324H35.9139V26.5H34.8283L33.7426 25.8796V24.1426ZM34.8331 24.1426L35.9188 23.8324H37.0044V26.5H35.9188L34.8331 25.8796V24.1426ZM35.9236 24.1426L37.0093 23.8324H38.0949V26.5H37.0093L35.9236 25.8796V24.1426ZM37.0141 24.1426L38.0998 23.8324H39.1855V26.5H38.0998L37.0141 25.8796V24.1426ZM38.1046 24.1426L39.1903 23.8324H40.276V26.5H39.1903L38.1046 25.8796V24.1426ZM39.1951 24.1426L40.2808 23.8324H41.3665V26.5H40.2808L39.1951 25.8796V24.1426ZM40.2857 24.1426L41.3713 23.8324H42.457V26.5H41.3713L40.2857 25.8796V24.1426ZM41.3762 24.1426L42.4618 23.8324H43.5475V26.5H42.4618L41.3762 25.8796V24.1426ZM42.4667 24.1426L43.5524 23.8324H44.638V26.5H43.5524L42.4667 25.8796V24.1426ZM43.5572 24.1426L44.6429 23.8324H45.7285V26.5H44.6429L43.5572 25.8796V24.1426ZM44.6477 24.1426L45.7334 23.8324H46.819V26.5H45.7334L44.6477 25.8796V24.1426ZM45.7382 24.1426L46.8239 23.8324H47.9096V26.5H46.8239L45.7382 25.8796V24.1426ZM51.9132 3.22676V3.31982C51.9132 3.48526 51.9752 3.66103 52.0993 3.84714C52.2441 4.03326 52.4095 4.22971 52.5956 4.43651C52.761 4.62262 52.9161 4.81907 53.0609 5.02587C53.2057 5.21198 53.2987 5.44979 53.3401 5.73931C53.3607 5.82202 53.3711 5.90474 53.3711 5.98746C53.3711 6.07018 53.3711 6.16323 53.3711 6.26663C53.3297 6.43206 53.278 6.5975 53.216 6.76293C53.1746 6.92837 53.1023 7.0938 52.9989 7.25924C52.7714 7.56943 52.4819 7.80724 52.1303 7.97268C51.8201 8.09675 51.4376 8.21049 50.9826 8.31389C50.5484 8.3966 50.1141 8.48966 49.6798 8.59306C49.2249 8.71713 48.8113 8.84121 48.4391 8.96529C48.0462 9.08936 47.767 9.22378 47.6015 9.36853L47.4465 9.21344C47.5498 9.048 47.7256 8.83087 47.9738 8.56204C48.2219 8.31389 48.4701 8.13811 48.7182 8.03471L49.4317 7.78656C49.8659 7.62113 50.2795 7.49705 50.6724 7.41433C51.086 7.31094 51.4479 7.22822 51.7581 7.16618C52.0683 7.08346 52.3164 7.01109 52.5026 6.94905C52.6887 6.88701 52.7817 6.81463 52.7817 6.73191C52.7817 6.60784 52.606 6.5458 52.2544 6.5458C51.9029 6.5458 51.5513 6.52512 51.1998 6.48376C50.993 6.46308 50.7965 6.39071 50.6104 6.26663C50.445 6.14255 50.3622 5.95644 50.3622 5.70829C50.3622 5.54285 50.4346 5.32572 50.5794 5.05689C50.7035 4.76738 50.8482 4.49854 51.0136 4.25039C51.1791 3.98156 51.3342 3.74375 51.4789 3.53695C51.6237 3.30948 51.7167 3.17507 51.7581 3.13371L51.9132 3.22676ZM51.1377 4.99485C51.1377 5.07757 51.1894 5.17062 51.2928 5.27402C51.3962 5.37742 51.5927 5.42912 51.8822 5.42912C51.9235 5.42912 51.9856 5.43946 52.0683 5.46013C52.151 5.46013 52.2234 5.46013 52.2854 5.46013V5.36708C52.1407 5.28436 51.9856 5.16028 51.8201 4.99485C51.6547 4.80873 51.572 4.58126 51.572 4.31243H51.5099C51.4065 4.45719 51.3135 4.5916 51.2308 4.71568C51.1687 4.83975 51.1377 4.93281 51.1377 4.99485ZM51.9779 25.0111L50.9853 24.3907C50.2615 23.9358 49.6618 23.4084 49.1862 22.8087C48.7106 22.1884 48.4727 21.537 48.4727 20.8545C48.4727 20.0894 48.7002 19.3036 49.1552 18.4971C49.6308 17.6906 50.1581 16.9358 50.7371 16.2327C50.8612 15.9018 51.099 15.5503 51.4506 15.1781C51.8021 14.7851 52.0916 14.475 52.3191 14.2475L52.4742 14.3716C52.3708 14.537 52.2881 14.7024 52.2261 14.8679C52.164 15.0333 52.133 15.2298 52.133 15.4572C52.133 15.8088 52.2467 16.181 52.4742 16.5739C52.7017 16.9668 53.0532 17.4941 53.5289 18.1559C53.839 18.5901 54.1286 19.0968 54.3974 19.6758C54.6869 20.2548 54.8317 20.9683 54.8317 21.8161C54.8317 22.0643 54.811 22.3331 54.7696 22.6226C54.7489 22.9121 54.7179 23.2016 54.6766 23.4912C55.0695 23.6359 55.4314 23.729 55.7622 23.7703C56.1138 23.8117 56.4136 23.8324 56.6618 23.8324V26.5C56.2482 26.5 55.7726 26.4483 55.2349 26.3449C54.7179 26.2415 54.1906 26.0864 53.6529 25.8796C53.5495 26.0864 53.3841 26.3966 53.1566 26.8102C52.9291 27.2238 52.6603 27.6063 52.3501 27.9579H52.195C52.071 27.7097 51.9159 27.4926 51.7297 27.3065C51.5643 27.1411 51.3162 26.9963 50.9853 26.8722C50.6751 26.7482 50.2719 26.6551 49.7755 26.5931C49.2792 26.531 48.6589 26.5 47.9144 26.5L46.8287 25.8796V24.1426L47.9144 23.8324H48.1626C48.4314 23.8324 48.7312 23.8737 49.0621 23.9564C49.393 24.0392 49.7238 24.1426 50.0547 24.2666C50.3856 24.3907 50.7061 24.5355 51.0163 24.7009C51.3265 24.8457 51.6057 25.0007 51.8538 25.1662L51.9779 25.0111ZM50.489 17.8457C50.4269 17.9491 50.3339 18.1145 50.2098 18.342C50.1064 18.5488 50.0547 18.7969 50.0547 19.0865C50.0547 19.3346 50.1168 19.6034 50.2408 19.8929C50.3856 20.1618 50.5717 20.4409 50.7992 20.7305C51.0266 21.02 51.2851 21.3095 51.5747 21.599C51.8848 21.8678 52.2054 22.1263 52.5362 22.3745C52.8051 22.6019 53.0842 22.7881 53.3738 22.9328H53.4048C53.3014 22.4572 53.1359 22.0539 52.9085 21.7231C52.7017 21.3922 52.5156 21.1234 52.3501 20.9166C52.164 20.7098 51.9676 20.4823 51.7608 20.2342C51.554 19.9653 51.3575 19.6965 51.1714 19.4277C51.006 19.1588 50.8612 18.9003 50.7371 18.6522C50.6131 18.404 50.551 18.1869 50.551 18.0008V17.8457H50.489ZM52.8464 12.4484C52.8464 12.7379 52.743 12.9964 52.5362 13.2239C52.3294 13.4306 52.0813 13.534 51.7918 13.534C51.4816 13.534 51.2231 13.4306 51.0163 13.2239C50.8095 12.9964 50.7061 12.7379 50.7061 12.4484C50.7061 12.1589 50.8095 11.9107 51.0163 11.7039C51.2231 11.4764 51.4816 11.3627 51.7918 11.3627C52.0813 11.3627 52.3294 11.4764 52.5362 11.7039C52.743 11.9107 52.8464 12.1589 52.8464 12.4484ZM50.2719 12.4484C50.2719 12.7379 50.1581 12.9964 49.9306 13.2239C49.7238 13.4306 49.4757 13.534 49.1862 13.534C48.876 13.534 48.6175 13.4306 48.4107 13.2239C48.2039 12.9964 48.1005 12.7379 48.1005 12.4484C48.1005 12.1589 48.2039 11.9107 48.4107 11.7039C48.6175 11.4764 48.876 11.3627 49.1862 11.3627C49.4757 11.3627 49.7238 11.4764 49.9306 11.7039C50.1581 11.9107 50.2719 12.1589 50.2719 12.4484ZM59.0573 9.25342H59.2124V24.3597C59.2124 24.8146 59.171 25.2075 59.0883 25.5384C59.0262 25.8693 58.9332 26.1588 58.8091 26.4069C58.685 26.6551 58.5299 26.8826 58.3438 27.0894C58.1577 27.2962 57.9509 27.5029 57.7234 27.7097H57.5373V27.4306C57.5373 26.8102 57.2478 26.5 56.6688 26.5L55.5831 25.8796V24.1426L56.6688 23.8324H57.2271V11.0835L59.0573 9.25342ZM67.9823 26.0347C68.6026 26.0347 69.2644 25.9623 69.9675 25.8176C70.6706 25.6521 71.2806 25.4867 71.7976 25.3213L71.8596 25.4764C70.5982 26.1588 69.4195 26.6551 68.3235 26.9653C67.2275 27.2755 66.3176 27.4306 65.5938 27.4306C64.6839 27.4306 63.9188 27.2755 63.2984 26.9653C62.678 26.6758 62.1714 26.2829 61.7785 25.7866C61.4062 25.2903 61.1374 24.7112 60.972 24.0495C60.8065 23.3878 60.7238 22.695 60.7238 21.9712V11.0835L62.5539 9.25342H62.709V19.3346C62.709 20.6788 62.8538 21.7851 63.1433 22.6536C63.4535 23.5222 63.8567 24.2046 64.353 24.7009C64.8493 25.1972 65.4077 25.5487 66.0281 25.7555C66.6691 25.9417 67.3205 26.0347 67.9823 26.0347ZM77.7671 32.9343C77.1674 33.079 76.5573 33.2134 75.937 33.3375C75.3373 33.4823 74.7376 33.6167 74.1379 33.7408C73.7243 33.8235 73.3624 33.9062 73.0522 33.9889C72.7213 34.0716 72.4111 34.1543 72.1216 34.2371C71.7287 34.3405 71.4392 34.4335 71.2531 34.5162C71.0463 34.6196 70.8809 34.723 70.7568 34.8264L70.6327 34.6713C70.7154 34.5473 70.8292 34.3922 70.9739 34.206C71.098 34.0406 71.2117 33.9165 71.3151 33.8338C71.5426 33.6684 71.7494 33.534 71.9355 33.4306C72.1216 33.3479 72.3491 33.2548 72.6179 33.1514C72.9695 33.048 73.4037 32.9239 73.9207 32.7792C74.417 32.6551 74.903 32.531 75.3786 32.4069C75.9576 32.2622 76.516 32.1278 77.0536 32.0037C77.5913 31.8796 77.9739 31.7762 78.2013 31.6935L78.2634 31.8176L77.7671 32.9343ZM71.3323 29.4778C71.8079 29.6226 72.3146 29.757 72.8523 29.8811C73.4106 30.0258 73.8966 30.0982 74.3101 30.0982C75.158 30.0982 75.9025 29.9638 76.5435 29.695C77.1846 29.4261 77.7119 29.0849 78.1255 28.6713C78.5598 28.2784 78.8803 27.8545 79.0871 27.3996C79.3146 26.9446 79.4283 26.531 79.4283 26.1588C79.4283 25.7452 79.2422 25.3523 78.8699 24.9801C78.5184 24.5872 78.1255 24.2046 77.6912 23.8324C77.257 23.4395 76.8537 23.0569 76.4815 22.6847C76.1299 22.2918 75.9542 21.8885 75.9542 21.4749C75.9542 21.3508 75.9955 21.1751 76.0782 20.9476C76.1816 20.7201 76.2954 20.4926 76.4194 20.2652C76.5435 20.0377 76.6676 19.8206 76.7917 19.6138C76.9157 19.407 77.0088 19.2519 77.0708 19.1485C77.1536 19.0037 77.2363 18.859 77.319 18.7142C77.4017 18.5695 77.4638 18.4454 77.5051 18.342L77.6912 18.404C77.6705 18.4454 77.6499 18.5074 77.6292 18.5901C77.6085 18.6522 77.5982 18.7349 77.5982 18.8383C77.5982 19.0244 77.6292 19.2209 77.6912 19.4277C77.7533 19.6138 77.8773 19.8412 78.0635 20.1101C78.3323 20.5237 78.5908 20.8856 78.8389 21.1957C79.1078 21.4853 79.3456 21.7748 79.5524 22.0643C79.7592 22.3331 79.9349 22.6123 80.0797 22.9018C80.2244 23.1706 80.3175 23.4808 80.3589 23.8324H81.3205V26.5H80.1107C80.0073 27.0377 79.8522 27.596 79.6454 28.175C79.4593 28.754 79.2112 29.2814 78.901 29.757C78.5908 30.2326 78.2185 30.6255 77.7843 30.9357C77.35 31.2459 76.833 31.401 76.2333 31.401C75.9025 31.401 75.4992 31.339 75.0236 31.2149C74.5686 31.0908 74.1034 30.9357 73.6277 30.7496C73.1521 30.5842 72.6972 30.4084 72.2629 30.2223C71.8493 30.0568 71.5081 29.9121 71.2393 29.788L71.3323 29.4778ZM80.2408 24.1426L81.3265 23.8324H82.4122V26.5H81.3265L80.2408 25.8796V24.1426ZM81.3314 24.1426L82.417 23.8324H83.5027V26.5H82.417L81.3314 25.8796V24.1426ZM82.4219 24.1426L83.5075 23.8324H84.5932V26.5H83.5075L82.4219 25.8796V24.1426ZM83.5124 24.1426L84.5981 23.8324H85.6837V26.5H84.5981L83.5124 25.8796V24.1426ZM84.6029 24.1426L85.6886 23.8324H86.7742V26.5H85.6886L84.6029 25.8796V24.1426ZM85.6934 24.1426L86.7791 23.8324H87.8647V26.5H86.7791L85.6934 25.8796V24.1426ZM86.7839 24.1426L87.8696 23.8324H88.9553V26.5H87.8696L86.7839 25.8796V24.1426ZM87.8744 24.1426L88.9601 23.8324H90.0458V26.5H88.9601L87.8744 25.8796V24.1426ZM88.9649 24.1426L90.0506 23.8324H91.1363V26.5H90.0506L88.9649 25.8796V24.1426ZM90.0555 24.1426L91.1411 23.8324H92.2268V26.5H91.1411L90.0555 25.8796V24.1426ZM91.146 24.1426L92.2316 23.8324H93.3173V26.5H92.2316L91.146 25.8796V24.1426ZM92.2365 24.1426L93.3222 23.8324H94.4078V26.5H93.3222L92.2365 25.8796V24.1426ZM93.327 24.1426L94.4127 23.8324H95.4983V26.5H94.4127L93.327 25.8796V24.1426ZM94.4175 24.1426L95.5032 23.8324H96.5888V26.5H95.5032L94.4175 25.8796V24.1426ZM95.508 24.1426L96.5937 23.8324H97.6794V26.5H96.5937L95.508 25.8796V24.1426ZM96.5985 24.1426L97.6842 23.8324H98.7699V26.5H97.6842L96.5985 25.8796V24.1426ZM97.6891 24.1426L98.7747 23.8324H99.8604V26.5H98.7747L97.6891 25.8796V24.1426ZM98.7796 24.1426L99.8652 23.8324H100.951V26.5H99.8652L98.7796 25.8796V24.1426ZM99.8701 24.1426L100.956 23.8324H102.041V26.5H100.956L99.8701 25.8796V24.1426ZM100.961 24.1426L102.046 23.8324H103.132V26.5H102.046L100.961 25.8796V24.1426ZM107.395 12.0259C107.375 12.0672 107.364 12.1189 107.364 12.181C107.364 12.2223 107.364 12.2637 107.364 12.305C107.364 12.4084 107.406 12.5739 107.488 12.8013C107.571 13.0288 107.612 13.2356 107.612 13.4217C107.612 13.5665 107.561 13.7319 107.457 13.918C107.354 14.0835 107.22 14.2592 107.054 14.4454C106.909 14.6315 106.754 14.8072 106.589 14.9727C106.423 15.1174 106.289 15.2415 106.186 15.3449H106.031C105.968 15.2415 105.865 15.1381 105.72 15.0347C105.576 14.9313 105.431 14.8279 105.286 14.7245C105.183 14.89 105.048 15.0761 104.883 15.2829C104.697 15.4897 104.552 15.6448 104.449 15.7482H104.293C104.004 15.5414 103.725 15.3139 103.456 15.0657C103.187 14.7969 103.053 14.466 103.053 14.0731C103.053 13.7836 103.135 13.5355 103.301 13.3287C103.446 13.1012 103.59 12.9254 103.735 12.8013L103.89 12.8634C103.849 13.0288 103.828 13.1632 103.828 13.2666C103.828 13.6595 103.89 13.949 104.014 14.1352C104.138 14.3213 104.376 14.5591 104.728 14.8486C104.81 14.7452 104.893 14.6418 104.976 14.5384C105.059 14.4143 105.1 14.3109 105.1 14.2282C105.1 14.0835 105.038 13.918 104.914 13.7319C104.79 13.5251 104.728 13.3183 104.728 13.1115C104.728 12.9461 104.81 12.8013 104.976 12.6773C105.121 12.5325 105.265 12.3981 105.41 12.274L105.565 12.3361C105.545 12.3981 105.534 12.5118 105.534 12.6773C105.534 12.822 105.576 12.9771 105.658 13.1426C105.741 13.2873 105.782 13.4527 105.782 13.6389V13.7629C106.072 13.9697 106.32 14.1972 106.527 14.4454C106.692 14.2592 106.775 14.0938 106.775 13.949C106.775 13.7423 106.734 13.5355 106.651 13.3287C106.568 13.1219 106.527 12.9461 106.527 12.8013C106.527 12.6566 106.61 12.5118 106.775 12.3671C106.94 12.2016 107.095 12.0672 107.24 11.9638L107.395 12.0259ZM106.992 11.2504L105.41 11.5916C104.769 11.7157 104.314 11.8294 104.045 11.9328C103.756 12.0362 103.528 12.1499 103.363 12.274L103.239 12.1189C103.363 11.9328 103.518 11.7467 103.704 11.5606C103.89 11.3538 104.056 11.209 104.2 11.1263C104.697 10.8988 105.203 10.7334 105.72 10.63C106.237 10.5266 106.785 10.3819 107.364 10.1957L107.426 10.2888L106.992 11.2504ZM105.897 18.5281C105.877 18.5695 105.846 18.6418 105.804 18.7452C105.784 18.8486 105.773 18.952 105.773 19.0554C105.773 19.2209 105.794 19.407 105.835 19.6138C105.897 19.7999 106.011 20.0274 106.177 20.2962C106.611 20.9579 106.962 21.5783 107.231 22.1573C107.521 22.7157 107.666 23.3567 107.666 24.0805C107.666 24.3907 107.583 24.7423 107.417 25.1352C107.273 25.5281 107.087 25.9313 106.859 26.3449C106.652 26.7378 106.425 27.1204 106.177 27.4926C105.928 27.8855 105.711 28.2164 105.525 28.4852H105.37C105.163 27.8442 104.884 27.3479 104.533 26.9963C104.181 26.6654 103.716 26.5 103.137 26.5L102.051 25.8796V24.1426L103.137 23.8324C103.592 23.8324 104.088 23.9875 104.626 24.2976C105.184 24.6078 105.608 25.2075 105.897 26.0968H105.928C106.073 25.8279 106.146 25.5591 106.146 25.2903C106.146 25.0007 106.063 24.7216 105.897 24.4527C105.732 24.1839 105.546 23.9151 105.339 23.6462C104.988 23.2533 104.677 22.9018 104.409 22.5916C104.14 22.2814 104.005 21.9195 104.005 21.5059C104.005 21.1544 104.15 20.7718 104.44 20.3582C104.729 19.9446 104.988 19.5828 105.215 19.2726C105.318 19.1278 105.412 18.9831 105.494 18.8383C105.598 18.6935 105.67 18.5591 105.711 18.4351L105.897 18.5281ZM104.253 29.9121C104.253 30.2223 104.14 30.4808 103.912 30.6876C103.705 30.915 103.447 31.0288 103.137 31.0288C102.827 31.0288 102.568 30.915 102.361 30.6876C102.134 30.4808 102.02 30.2223 102.02 29.9121C102.02 29.6019 102.134 29.3331 102.361 29.1056C102.568 28.8988 102.827 28.7954 103.137 28.7954C103.447 28.7954 103.705 28.8988 103.912 29.1056C104.14 29.3331 104.253 29.6019 104.253 29.9121ZM121.517 13.3523L115.685 14.6551C115.23 14.7585 114.796 14.8515 114.383 14.9343C113.969 15.0377 113.555 15.1411 113.142 15.2445C112.501 15.4099 112.036 15.5546 111.746 15.6787C111.456 15.8235 111.219 15.9682 111.033 16.113L110.908 15.9269C111.033 15.7408 111.188 15.534 111.374 15.3065C111.56 15.0997 111.736 14.9446 111.901 14.8412C112.253 14.6344 112.594 14.4793 112.925 14.3759C113.235 14.2725 113.586 14.1588 113.979 14.0347C114.372 13.9313 114.962 13.7866 115.747 13.6004C116.513 13.3937 117.247 13.2075 117.95 13.0421C118.405 12.9387 118.86 12.8353 119.315 12.7319C119.77 12.6285 120.173 12.5355 120.524 12.4527C120.897 12.37 121.207 12.2976 121.455 12.2356C121.703 12.1736 121.858 12.1322 121.92 12.1115L121.982 12.2046L121.517 13.3523ZM123.763 27.5546C123.763 27.2031 123.629 26.9343 123.36 26.7482C123.091 26.5827 122.781 26.5 122.429 26.5H108.098L108.036 26.438L110.053 22.0953H110.177C110.259 22.5296 110.404 22.8708 110.611 23.1189C110.818 23.3464 111.076 23.5118 111.386 23.6152C111.717 23.7186 112.1 23.7807 112.534 23.8013C112.989 23.822 113.485 23.8324 114.023 23.8324H121.281C121.695 23.8324 122.047 23.8944 122.336 24.0185C122.626 24.1426 122.874 24.2976 123.081 24.4838C123.287 24.6492 123.442 24.825 123.546 25.0111C123.67 25.1972 123.753 25.342 123.794 25.4454H123.856C123.856 24.887 123.732 24.4424 123.484 24.1115C123.256 23.7807 122.967 23.5325 122.615 23.3671C122.284 23.181 121.923 23.0569 121.53 22.9948C121.157 22.9328 120.816 22.9018 120.506 22.9018H114.023C113.403 22.9018 112.886 22.8604 112.472 22.7777C112.058 22.6743 111.728 22.5296 111.479 22.3434C111.231 22.1573 111.045 21.9402 110.921 21.692C110.797 21.4232 110.714 21.113 110.673 20.7615L111.883 18.1249H112.038C112.203 18.9314 112.513 19.5104 112.968 19.8619C113.423 20.2135 114.199 20.3893 115.295 20.3893H120.01C120.589 20.3893 121.147 20.4616 121.685 20.6064C122.222 20.7305 122.698 20.9373 123.112 21.2268C123.525 21.4956 123.866 21.8471 124.135 22.2814C124.404 22.7157 124.58 23.2327 124.663 23.8324H125.624V26.5H124.383C124.28 26.7482 124.187 26.9549 124.104 27.1204C124.021 27.3065 123.959 27.4513 123.918 27.5546H123.763ZM128.534 12.0347L126.766 12.438C126.063 12.5827 125.556 12.7171 125.246 12.8412C124.915 12.9653 124.667 13.079 124.502 13.1824L124.378 13.0583C124.522 12.8309 124.698 12.6034 124.905 12.3759C125.091 12.1485 125.267 11.983 125.432 11.8796C125.991 11.6108 126.549 11.4247 127.107 11.3213C127.686 11.1972 128.296 11.0214 128.937 10.794L129.03 10.918L128.534 12.0347ZM128.374 18.5281C128.353 18.5695 128.322 18.6418 128.281 18.7452C128.26 18.8486 128.25 18.952 128.25 19.0554C128.25 19.2209 128.271 19.407 128.312 19.6138C128.374 19.7999 128.488 20.0274 128.653 20.2962C129.088 20.9579 129.439 21.5783 129.708 22.1573C129.997 22.7157 130.142 23.3567 130.142 24.0805C130.142 24.3907 130.06 24.7423 129.894 25.1352C129.749 25.5281 129.563 25.9313 129.336 26.3449C129.129 26.7378 128.901 27.1204 128.653 27.4926C128.405 27.8855 128.188 28.2164 128.002 28.4852H127.847C127.64 27.8442 127.361 27.3479 127.009 26.9963C126.658 26.6654 126.192 26.5 125.613 26.5L124.528 25.8796V24.1426L125.613 23.8324C126.068 23.8324 126.565 23.9875 127.102 24.2976C127.661 24.6078 128.085 25.2075 128.374 26.0968H128.405C128.55 25.8279 128.622 25.5591 128.622 25.2903C128.622 25.0007 128.54 24.7216 128.374 24.4527C128.209 24.1839 128.023 23.9151 127.816 23.6462C127.464 23.2533 127.154 22.9018 126.885 22.5916C126.616 22.2814 126.482 21.9195 126.482 21.5059C126.482 21.1544 126.627 20.7718 126.916 20.3582C127.206 19.9446 127.464 19.5828 127.692 19.2726C127.795 19.1278 127.888 18.9831 127.971 18.8383C128.074 18.6935 128.147 18.5591 128.188 18.4351L128.374 18.5281ZM128.808 15.8605C128.808 16.15 128.705 16.4085 128.498 16.6359C128.291 16.8427 128.043 16.9461 127.754 16.9461C127.444 16.9461 127.185 16.8427 126.978 16.6359C126.771 16.4085 126.668 16.15 126.668 15.8605C126.668 15.571 126.771 15.3228 126.978 15.116C127.185 14.8885 127.444 14.7748 127.754 14.7748C128.043 14.7748 128.291 14.8885 128.498 15.116C128.705 15.3228 128.808 15.571 128.808 15.8605ZM126.234 15.8605C126.234 16.15 126.12 16.4085 125.893 16.6359C125.686 16.8427 125.438 16.9461 125.148 16.9461C124.838 16.9461 124.579 16.8427 124.373 16.6359C124.166 16.4085 124.062 16.15 124.062 15.8605C124.062 15.571 124.166 15.3228 124.373 15.116C124.579 14.8885 124.838 14.7748 125.148 14.7748C125.438 14.7748 125.686 14.8885 125.893 15.116C126.12 15.3228 126.234 15.571 126.234 15.8605ZM15.517 38.7245C14.9173 38.8693 14.3072 39.014 13.6868 39.1588C13.0871 39.2829 12.4874 39.4069 11.8877 39.531C11.4742 39.6137 11.1123 39.6965 10.8021 39.7792C10.4712 39.8619 10.161 39.9446 9.87151 40.0273C9.4786 40.1307 9.18909 40.2238 9.00297 40.3065C8.79618 40.4099 8.63075 40.5133 8.50667 40.6167L8.38259 40.4616C8.46531 40.3168 8.57905 40.1617 8.7238 39.9963C8.84788 39.8309 8.96162 39.7068 9.06501 39.6241C9.29249 39.4586 9.49928 39.3346 9.68539 39.2518C9.87151 39.1485 10.099 39.0451 10.3678 38.9417C10.7194 38.8383 11.1536 38.7245 11.6706 38.6004C12.1669 38.4557 12.6529 38.3213 13.1285 38.1972C13.7075 38.0524 14.2659 37.918 14.8035 37.794C15.3412 37.6699 15.7238 37.5665 15.9512 37.4838L16.0133 37.5768L15.517 38.7245ZM6.53551 56.2459C7.25928 56.0598 7.98306 55.8116 8.70684 55.5015C9.4513 55.1913 10.1234 54.8397 10.7231 54.4468C11.5089 53.9505 12.1293 53.4128 12.5842 52.8338C13.0392 52.2548 13.2666 51.7482 13.2666 51.3139C13.2666 50.9003 13.2253 50.5591 13.1426 50.2903C13.0598 50.0007 13.0185 49.6285 13.0185 49.1736C13.0185 48.8841 13.0805 48.5739 13.2046 48.243C13.3287 47.9121 13.4424 47.6226 13.5458 47.3745C13.7733 46.8368 14.0214 46.2888 14.2903 45.7305C14.5591 45.1721 14.8383 44.6241 15.1278 44.0865C15.2312 43.7763 15.3553 43.4454 15.5 43.0938C15.6448 42.7216 15.7999 42.4011 15.9653 42.1323L16.1824 42.2253C16.017 42.5148 15.9343 42.856 15.9343 43.2489C15.9343 43.4351 15.9653 43.6418 16.0273 43.8693C16.0894 44.0968 16.2134 44.3243 16.3996 44.5517C16.7925 44.9446 17.175 45.3479 17.5473 45.7615C17.9195 46.1751 18.2607 46.599 18.5709 47.0333C18.7363 47.2814 18.8811 47.5606 19.0052 47.8708C19.1499 48.1603 19.2533 48.4808 19.3153 48.8324H20.37V51.5H19.1292C18.9638 51.9343 18.7363 52.3789 18.4468 52.8338C18.1573 53.2888 17.7747 53.754 17.2991 54.2297H17.144C17.1027 54.0849 16.9889 53.8988 16.8028 53.6713C16.6374 53.4439 16.3168 53.1233 15.8412 52.7097C15.5724 52.4823 15.2725 52.2548 14.9417 52.0273C14.6315 51.8205 14.342 51.6034 14.0731 51.3759C13.9077 51.9963 13.7112 52.6374 13.4838 53.2991C13.2563 53.9815 12.8324 54.5916 12.212 55.1292C11.9225 55.3774 11.5399 55.5842 11.0643 55.7496C10.5887 55.9357 10.082 56.0805 9.54435 56.1839C9.02737 56.2873 8.50005 56.37 7.96238 56.432C7.42472 56.4941 6.95943 56.5354 6.56653 56.5561L6.53551 56.2459ZM14.7866 46.2888C14.6832 46.4129 14.6108 46.5576 14.5694 46.7231C14.5281 46.8678 14.5074 46.9919 14.5074 47.0953C14.5074 47.6123 14.7349 48.0982 15.1898 48.5532C15.3966 48.7393 15.6448 48.9564 15.9343 49.2046C16.2238 49.4527 16.503 49.7112 16.7718 49.9801C17.0406 50.2282 17.2888 50.4867 17.5162 50.7555C17.7437 51.0037 17.8988 51.2208 17.9815 51.4069H18.0746C18.1159 51.2415 18.1366 51.1071 18.1366 51.0037C18.1366 50.5694 18.0229 50.1972 17.7954 49.887C17.5886 49.5768 17.3508 49.2873 17.082 49.0185C16.8545 48.8117 16.6064 48.5946 16.3375 48.3671C16.0894 48.1189 15.8309 47.8501 15.562 47.5606C15.2725 47.2504 15.0864 46.9919 15.0037 46.7851C14.921 46.5576 14.8693 46.3922 14.8486 46.2888H14.7866ZM19.2933 49.1426L20.379 48.8324H21.4646V51.5H20.379L19.2933 50.8796V49.1426ZM20.3838 49.1426L21.4695 48.8324H22.5551V51.5H21.4695L20.3838 50.8796V49.1426ZM21.4743 49.1426L22.56 48.8324H23.6457V51.5H22.56L21.4743 50.8796V49.1426ZM22.5648 49.1426L23.6505 48.8324H24.7362V51.5H23.6505L22.5648 50.8796V49.1426ZM23.6553 49.1426L24.741 48.8324H25.8267V51.5H24.741L23.6553 50.8796V49.1426ZM24.7459 49.1426L25.8315 48.8324H26.9172V51.5H25.8315L24.7459 50.8796V49.1426ZM25.8364 49.1426L26.922 48.8324H28.0077V51.5H26.922L25.8364 50.8796V49.1426ZM26.9269 49.1426L28.0126 48.8324H29.0982V51.5H28.0126L26.9269 50.8796V49.1426ZM28.0174 49.1426L29.1031 48.8324H30.1887V51.5H29.1031L28.0174 50.8796V49.1426ZM29.1079 49.1426L30.1936 48.8324H31.2792V51.5H30.1936L29.1079 50.8796V49.1426ZM30.1984 49.1426L31.2841 48.8324H32.3698V51.5H31.2841L30.1984 50.8796V49.1426ZM31.2889 49.1426L32.3746 48.8324H33.4603V51.5H32.3746L31.2889 50.8796V49.1426ZM32.3795 49.1426L33.4651 48.8324H34.5508V51.5H33.4651L32.3795 50.8796V49.1426ZM33.47 49.1426L34.5556 48.8324H35.6413V51.5H34.5556L33.47 50.8796V49.1426ZM34.5605 49.1426L35.6461 48.8324H36.7318V51.5H35.6461L34.5605 50.8796V49.1426ZM35.651 49.1426L36.7367 48.8324H37.8223V51.5H36.7367L35.651 50.8796V49.1426ZM36.7415 49.1426L37.8272 48.8324H38.9128V51.5H37.8272L36.7415 50.8796V49.1426ZM37.832 49.1426L38.9177 48.8324H40.0033V51.5H38.9177L37.832 50.8796V49.1426ZM38.9225 49.1426L40.0082 48.8324H41.0939V51.5H40.0082L38.9225 50.8796V49.1426ZM40.013 49.1426L41.0987 48.8324H42.1844V51.5H41.0987L40.013 50.8796V49.1426ZM41.1036 49.1426L42.1892 48.8324H43.2749V51.5H42.1892L41.1036 50.8796V49.1426ZM42.1941 49.1426L43.2797 48.8324H44.3654V51.5H43.2797L42.1941 50.8796V49.1426ZM43.2846 49.1426L44.3702 48.8324H45.4559V51.5H44.3702L43.2846 50.8796V49.1426ZM44.3751 49.1426L45.4608 48.8324H46.5464V51.5H45.4608L44.3751 50.8796V49.1426ZM45.4656 49.1426L46.5513 48.8324H47.6369V51.5H46.5513L45.4656 50.8796V49.1426ZM46.5561 49.1426L47.6418 48.8324H48.7275V51.5H47.6418L46.5561 50.8796V49.1426ZM47.6466 49.1426L48.7323 48.8324H49.818V51.5H48.7323L47.6466 50.8796V49.1426ZM48.7371 49.1426L49.8228 48.8324H50.9085V51.5H49.8228L48.7371 50.8796V49.1426ZM49.8277 49.1426L50.9133 48.8324H51.999V51.5H50.9133L49.8277 50.8796V49.1426ZM50.9182 49.1426L52.0038 48.8324H53.0895V51.5H52.0038L50.9182 50.8796V49.1426ZM52.0087 49.1426L53.0943 48.8324H54.18V51.5H53.0943L52.0087 50.8796V49.1426ZM53.0992 49.1426L54.1849 48.8324H55.2705V51.5H54.1849L53.0992 50.8796V49.1426ZM54.1897 49.1426L55.2754 48.8324H56.361V51.5H55.2754L54.1897 50.8796V49.1426ZM55.2802 49.1426L56.3659 48.8324H57.4516V51.5H56.3659L55.2802 50.8796V49.1426ZM56.3707 49.1426L57.4564 48.8324H58.5421V51.5H57.4564L56.3707 50.8796V49.1426ZM57.4612 49.1426L58.5469 48.8324H59.6326V51.5H58.5469L57.4612 50.8796V49.1426ZM58.5518 49.1426L59.6374 48.8324H60.7231V51.5H59.6374L58.5518 50.8796V49.1426ZM59.6423 49.1426L60.7279 48.8324H61.8136V51.5H60.7279L59.6423 50.8796V49.1426ZM60.7328 49.1426L61.8185 48.8324H62.9041V51.5H61.8185L60.7328 50.8796V49.1426ZM61.8233 49.1426L62.909 48.8324H63.9946V51.5H62.909L61.8233 50.8796V49.1426ZM62.9138 49.1426L63.9995 48.8324H65.0851V51.5H63.9995L62.9138 50.8796V49.1426ZM64.0043 49.1426L65.09 48.8324H66.1757V51.5H65.09L64.0043 50.8796V49.1426ZM65.0948 49.1426L66.1805 48.8324H67.2662V51.5H66.1805L65.0948 50.8796V49.1426ZM66.1853 49.1426L67.271 48.8324H68.3567V51.5H67.271L66.1853 50.8796V49.1426ZM67.2759 49.1426L68.3615 48.8324H69.4472V51.5H68.3615L67.2759 50.8796V49.1426ZM68.3664 49.1426L69.452 48.8324H70.5377V51.5H69.452L68.3664 50.8796V49.1426ZM69.4569 49.1426L70.5426 48.8324H71.6282V51.5H70.5426L69.4569 50.8796V49.1426ZM70.5474 49.1426L71.6331 48.8324H72.7187V51.5H71.6331L70.5474 50.8796V49.1426ZM71.6379 49.1426L72.7236 48.8324H73.8092V51.5H72.7236L71.6379 50.8796V49.1426ZM72.7284 49.1426L73.8141 48.8324H74.8998V51.5H73.8141L72.7284 50.8796V49.1426ZM73.8189 49.1426L74.9046 48.8324H75.9903V51.5H74.9046L73.8189 50.8796V49.1426ZM74.9095 49.1426L75.9951 48.8324H77.0808V51.5H75.9951L74.9095 50.8796V49.1426ZM76 49.1426L77.0856 48.8324H78.1713V51.5H77.0856L76 50.8796V49.1426ZM77.0905 49.1426L78.1761 48.8324H79.2618V51.5H78.1761L77.0905 50.8796V49.1426ZM78.181 49.1426L79.2667 48.8324H80.3523V51.5H79.2667L78.181 50.8796V49.1426ZM79.2715 49.1426L80.3572 48.8324H81.4428V51.5H80.3572L79.2715 50.8796V49.1426ZM80.362 49.1426L81.4477 48.8324H82.5334V51.5H81.4477L80.362 50.8796V49.1426ZM81.4525 49.1426L82.5382 48.8324H83.6239V51.5H82.5382L81.4525 50.8796V49.1426ZM86.3894 43.5281C86.3687 43.5695 86.3377 43.6418 86.2963 43.7452C86.2757 43.8486 86.2653 43.952 86.2653 44.0554C86.2653 44.2209 86.286 44.407 86.3274 44.6138C86.3894 44.7999 86.5031 45.0274 86.6686 45.2962C87.1028 45.9579 87.4544 46.5783 87.7232 47.1573C88.0127 47.7157 88.1575 48.3567 88.1575 49.0805C88.1575 49.3907 88.0748 49.7423 87.9093 50.1352C87.7646 50.5281 87.5785 50.9313 87.351 51.3449C87.1442 51.7378 86.9167 52.1204 86.6686 52.4926C86.4204 52.8855 86.2033 53.2164 86.0172 53.4852H85.8621C85.6553 52.8442 85.3761 52.3479 85.0246 51.9963C84.673 51.6654 84.2077 51.5 83.6287 51.5L82.543 50.8796V49.1426L83.6287 48.8324C84.0837 48.8324 84.58 48.9875 85.1176 49.2976C85.676 49.6078 86.0999 50.2075 86.3894 51.0968H86.4204C86.5652 50.8279 86.6376 50.5591 86.6376 50.2903C86.6376 50.0007 86.5548 49.7216 86.3894 49.4527C86.224 49.1839 86.0379 48.9151 85.8311 48.6462C85.4795 48.2533 85.1693 47.9018 84.9005 47.5916C84.6317 47.2814 84.4972 46.9195 84.4972 46.5059C84.4972 46.1544 84.642 45.7718 84.9315 45.3582C85.221 44.9446 85.4795 44.5828 85.707 44.2726C85.8104 44.1278 85.9034 43.9831 85.9862 43.8383C86.0896 43.6935 86.1619 43.5591 86.2033 43.4351L86.3894 43.5281ZM86.5135 57.6107C86.5135 57.9003 86.4101 58.1484 86.2033 58.3552C85.9965 58.5827 85.7483 58.6964 85.4588 58.6964C85.1486 58.6964 84.8901 58.5827 84.6834 58.3552C84.4766 58.1484 84.3732 57.9003 84.3732 57.6107C84.3732 57.3212 84.4766 57.0627 84.6834 56.8353C84.8901 56.6285 85.1486 56.5251 85.4588 56.5251C85.7483 56.5251 85.9965 56.6285 86.2033 56.8353C86.4101 57.0627 86.5135 57.3212 86.5135 57.6107ZM83.9389 57.6107C83.9389 57.9003 83.8355 58.1484 83.6287 58.3552C83.4012 58.5827 83.1427 58.6964 82.8532 58.6964C82.543 58.6964 82.2845 58.5827 82.0778 58.3552C81.871 58.1484 81.7676 57.9003 81.7676 57.6107C81.7676 57.3212 81.871 57.0627 82.0778 56.8353C82.2845 56.6285 82.543 56.5251 82.8532 56.5251C83.1427 56.5251 83.4012 56.6285 83.6287 56.8353C83.8355 57.0627 83.9389 57.3212 83.9389 57.6107ZM91.2167 57.9343C90.617 58.079 90.007 58.2134 89.3866 58.3375C88.7869 58.4823 88.1872 58.6167 87.5875 58.7408C87.1739 58.8235 86.812 58.9062 86.5018 58.9889C86.171 59.0716 85.8608 59.1543 85.5713 59.2371C85.1784 59.3405 84.8889 59.4335 84.7027 59.5162C84.4959 59.6196 84.3305 59.723 84.2064 59.8264L84.0824 59.6713C84.1651 59.5473 84.2788 59.3922 84.4236 59.206C84.5476 59.0406 84.6614 58.9165 84.7648 58.8338C84.9923 58.6684 85.199 58.534 85.3852 58.4306C85.5713 58.3479 85.7987 58.2548 86.0676 58.1514C86.4191 58.048 86.8534 57.9239 87.3704 57.7792C87.8667 57.6551 88.3526 57.531 88.8283 57.4069C89.4073 57.2622 89.9656 57.1278 90.5033 57.0037C91.041 56.8796 91.4235 56.7762 91.651 56.6935L91.713 56.8176L91.2167 57.9343ZM84.782 54.4778C85.2576 54.6226 85.7643 54.757 86.3019 54.8811C86.8603 55.0258 87.3462 55.0982 87.7598 55.0982C88.6077 55.0982 89.3521 54.9638 89.9932 54.695C90.6342 54.4261 91.1616 54.0849 91.5752 53.6713C92.0094 53.2784 92.3299 52.8545 92.5367 52.3996C92.7642 51.9446 92.878 51.531 92.878 51.1588C92.878 50.7452 92.6918 50.3523 92.3196 49.9801C91.9681 49.5872 91.5752 49.2046 91.1409 48.8324C90.7066 48.4395 90.3034 48.0569 89.9311 47.6847C89.5796 47.2918 89.4038 46.8885 89.4038 46.4749C89.4038 46.3508 89.4452 46.1751 89.5279 45.9476C89.6313 45.7201 89.745 45.4926 89.8691 45.2652C89.9932 45.0377 90.1173 44.8206 90.2413 44.6138C90.3654 44.407 90.4585 44.2519 90.5205 44.1485C90.6032 44.0037 90.6859 43.859 90.7687 43.7142C90.8514 43.5695 90.9134 43.4454 90.9548 43.342L91.1409 43.404C91.1202 43.4454 91.0995 43.5074 91.0788 43.5901C91.0582 43.6522 91.0478 43.7349 91.0478 43.8383C91.0478 44.0244 91.0788 44.2209 91.1409 44.4277C91.2029 44.6138 91.327 44.8412 91.5131 45.1101C91.7819 45.5237 92.0404 45.8856 92.2886 46.1957C92.5574 46.4853 92.7952 46.7748 93.002 47.0643C93.2088 47.3331 93.3846 47.6123 93.5294 47.9018C93.6741 48.1706 93.7672 48.4808 93.8085 48.8324H94.7701V51.5H93.5604C93.457 52.0377 93.3019 52.596 93.0951 53.175C92.909 53.754 92.6608 54.2814 92.3506 54.757C92.0404 55.2326 91.6682 55.6255 91.2339 55.9357C90.7997 56.2459 90.2827 56.401 89.683 56.401C89.3521 56.401 88.9489 56.339 88.4732 56.2149C88.0183 56.0908 87.553 55.9357 87.0774 55.7496C86.6018 55.5842 86.1468 55.4084 85.7126 55.2223C85.299 55.0568 84.9578 54.9121 84.6889 54.788L84.782 54.4778ZM100.789 38.7245C100.189 38.8693 99.5793 39.014 98.9589 39.1588C98.3592 39.2829 97.7595 39.4069 97.1598 39.531C96.7462 39.6137 96.3843 39.6965 96.0741 39.7792C95.7433 39.8619 95.4331 39.9446 95.1436 40.0273C94.7506 40.1307 94.4611 40.2238 94.275 40.3065C94.0682 40.4099 93.9028 40.5133 93.7787 40.6167L93.6546 40.4616C93.7374 40.3168 93.8511 40.1617 93.9959 39.9963C94.1199 39.8309 94.2337 39.7068 94.3371 39.6241C94.5645 39.4586 94.7713 39.3346 94.9574 39.2518C95.1436 39.1485 95.371 39.0451 95.6399 38.9417C95.9914 38.8383 96.4257 38.7245 96.9427 38.6004C97.439 38.4557 97.9249 38.3213 98.4006 38.1972C98.9796 38.0524 99.5379 37.918 100.076 37.794C100.613 37.6699 100.996 37.5665 101.223 37.4838L101.285 37.5768L100.789 38.7245ZM93.6905 49.1426L94.7762 48.8324H110.627C111.04 48.8324 111.392 48.8944 111.682 49.0185C111.971 49.1426 112.219 49.2976 112.426 49.4838C112.633 49.6492 112.788 49.825 112.891 50.0111C113.015 50.1972 113.098 50.342 113.139 50.4454H113.201C113.201 49.887 113.077 49.4424 112.829 49.1115C112.602 48.7807 112.312 48.5325 111.961 48.3671C111.609 48.181 111.237 48.0569 110.844 47.9948C110.472 47.9328 110.141 47.9018 109.851 47.9018H96.4822C96.0686 47.9018 95.7584 47.8087 95.5517 47.6226C95.3655 47.4365 95.2725 47.1987 95.2725 46.9092C95.9135 46.661 96.627 46.3612 97.4128 46.0096C98.2193 45.6374 99.0154 45.2342 99.8013 44.7999C100.608 44.3656 101.383 43.89 102.128 43.373C102.893 42.856 103.565 42.308 104.144 41.729C104.744 41.15 105.219 40.5399 105.571 39.8989C105.922 39.2578 106.098 38.5857 106.098 37.8826C106.098 37.1175 105.922 36.4454 105.571 35.8664C105.219 35.2874 104.744 34.8118 104.144 34.4395C103.565 34.0466 102.882 33.7571 102.097 33.571C101.332 33.3849 100.525 33.2918 99.6772 33.2918C99.5324 33.2918 99.3877 33.3022 99.2429 33.3228C99.1188 33.3228 98.9844 33.3332 98.8397 33.3539V33.0747C99.1292 33.0333 99.4394 32.992 99.7702 32.9506C100.101 32.9093 100.463 32.8886 100.856 32.8886C101.683 32.8886 102.49 33.0023 103.275 33.2298C104.061 33.4573 104.754 33.7985 105.354 34.2534C105.974 34.6877 106.47 35.246 106.843 35.9284C107.215 36.6109 107.401 37.407 107.401 38.3169C107.401 38.9373 107.267 39.5784 106.998 40.2401C106.75 40.8812 106.388 41.5222 105.912 42.1633C105.436 42.8043 104.868 43.4247 104.206 44.0244C103.544 44.6034 102.81 45.1204 102.004 45.5754L102.035 45.6374L103.12 45.3893H109.355C109.934 45.3893 110.492 45.4616 111.03 45.6064C111.568 45.7305 112.043 45.9373 112.457 46.2268C112.871 46.4956 113.212 46.8471 113.481 47.2814C113.77 47.7157 113.956 48.2327 114.039 48.8324H114.97V51.5H113.729C113.522 52.0377 113.367 52.3892 113.264 52.5546H113.108C113.108 52.2031 112.974 51.9343 112.705 51.7482C112.436 51.5827 112.126 51.5 111.775 51.5H94.7762L93.6905 50.8796V49.1426ZM117.369 34.2534H117.525V49.3597C117.525 49.8146 117.483 50.2075 117.4 50.5384C117.338 50.8693 117.245 51.1588 117.121 51.4069C116.997 51.6551 116.842 51.8826 116.656 52.0894C116.47 52.2962 116.263 52.5029 116.036 52.7097H115.849V52.4306C115.849 51.8102 115.56 51.5 114.981 51.5L113.895 50.8796V49.1426L114.981 48.8324H115.539V36.0835L117.369 34.2534ZM126.294 51.0347C126.915 51.0347 127.577 50.9623 128.28 50.8176C128.983 50.6521 129.593 50.4867 130.11 50.3213L130.172 50.4764C128.91 51.1588 127.732 51.6551 126.636 51.9653C125.54 52.2755 124.63 52.4306 123.906 52.4306C122.996 52.4306 122.231 52.2755 121.611 51.9653C120.99 51.6758 120.484 51.2829 120.091 50.7866C119.718 50.2903 119.45 49.7112 119.284 49.0495C119.119 48.3878 119.036 47.695 119.036 46.9712V36.0835L120.866 34.2534H121.021V44.3346C121.021 45.6788 121.166 46.7851 121.455 47.6536C121.766 48.5222 122.169 49.2046 122.665 49.7009C123.161 50.1972 123.72 50.5487 124.34 50.7555C124.981 50.9417 125.633 51.0347 126.294 51.0347Z" fill="#118AC9"/>
<path d="M148.846 19.3804C148.853 19.3703 148.868 19.3687 148.876 19.3774C148.999 19.5004 148.978 19.5989 148.951 19.6911C148.683 20.6125 148.302 21.4857 147.681 22.242C147.49 22.4758 147.258 22.6546 146.996 22.8127C146.679 23.0121 146.34 23.0946 145.966 22.9571C145.856 22.9168 145.733 22.9866 145.671 23.0861C145.651 23.1183 145.632 23.1506 145.613 23.184C144.943 24.5316 144.477 25.948 144.16 27.4125C143.976 28.2582 143.814 29.1039 143.743 29.9703C143.687 30.6441 143.652 31.3179 143.793 31.9848C143.821 32.1292 143.856 32.2736 143.906 32.4111C144.329 33.6694 145.486 34.3844 146.841 34.2263C147.681 34.1232 148.485 33.8963 149.233 33.5044C151.689 32.2186 154.032 30.7816 156.198 29.0627C157.391 28.1138 158.499 27.0962 159.465 25.9274C159.959 25.3361 160.39 24.7035 160.764 24.0366C160.933 23.734 160.961 23.4453 160.87 23.1152C160.348 21.2519 159.741 19.4161 158.993 17.6284C158.358 16.1089 157.666 14.6169 156.989 13.118C156.565 12.1829 156.128 11.2547 155.683 10.3265C155.556 10.0652 155.493 9.80393 155.5 9.52202C155.514 8.58693 155.528 7.65184 155.549 6.70988C155.549 6.6697 155.551 6.63017 155.554 6.59149C155.566 6.43862 155.688 6.29222 155.789 6.40734C155.951 6.59986 156.128 6.78551 156.255 6.99865C156.932 8.07126 157.61 9.13699 158.266 10.2233C158.866 11.2066 159.282 12.2792 159.698 13.3449C160.333 14.9744 160.969 16.5971 161.413 18.2885C161.681 19.3061 161.893 20.3443 162.098 21.3757C162.338 22.5789 162.542 23.7959 162.747 25.006C162.909 25.9411 163.318 26.7525 163.953 27.4675C164.843 28.4576 165.936 29.1589 167.157 29.6884C167.566 29.8671 167.997 30.0046 168.441 30.1009C168.604 30.1353 168.731 30.1147 168.865 30.0253C169.613 29.5096 170.375 29.0145 171.116 28.492C171.441 28.2582 171.716 27.9626 172.019 27.7013C172.217 27.5294 172.266 27.3163 172.217 27.0619C171.984 25.8724 171.751 24.676 171.25 23.5553C170.932 22.8608 170.601 22.1733 170.255 21.4926C170.121 21.2244 170.079 20.9838 170.156 20.695C170.382 19.8287 170.58 18.9623 170.791 18.096C170.793 18.0887 170.795 18.0815 170.797 18.0744C170.829 17.9644 171.014 17.9047 171.067 18.0066C171.158 18.1579 171.236 18.316 171.306 18.4741C171.56 19.038 171.85 19.5811 172.196 20.0968C172.647 20.7775 173.303 21.1488 174.101 21.3138C174.948 21.4857 175.773 21.3963 176.592 21.1694C177.163 21.0113 177.686 20.7637 178.165 20.4268C178.483 20.2068 178.525 20.0899 178.42 19.7186C178.229 19.0379 177.975 18.3848 177.615 17.766C177.453 17.4841 177.29 17.2021 177.128 16.9271C177.058 16.8102 177.015 16.6933 177.058 16.5558C177.269 15.864 177.476 15.1722 177.72 14.4992C177.782 14.3281 177.946 14.1871 178.053 14.335C178.702 15.2357 179.16 16.2052 179.337 17.2984C179.527 18.4741 179.443 19.6293 179.125 20.7775C179.026 21.1282 178.913 21.4788 178.815 21.8295C178.631 22.4758 178.243 22.9846 177.693 23.3765C176.747 24.0503 175.682 24.3322 174.51 24.2497C174.188 24.2252 173.876 24.1656 173.56 24.081C173.337 24.0214 173.121 24.1293 173.134 24.3597C173.141 25.1779 173.085 25.9961 172.944 26.8075C172.802 27.5982 172.612 28.382 172.365 29.1521C172.238 29.5646 171.991 29.9153 171.73 30.259C171.714 30.2814 171.697 30.3033 171.68 30.3251C171.491 30.5663 171.594 30.8609 171.899 30.8847C173.381 31.0154 174.87 31.0085 176.359 30.9122C178.37 30.7816 180.36 30.5134 182.329 30.094C182.781 29.9978 183.232 29.874 183.677 29.7502C183.896 29.6967 184.022 29.4663 184.022 29.2401C184.022 29.1988 184.022 29.158 184.022 29.1177C183.945 27.4538 183.867 25.783 183.79 24.1191C183.754 23.404 183.726 22.6889 183.691 21.9739C183.62 20.4681 183.557 18.9623 183.472 17.4565C183.373 15.7651 183.26 14.0668 183.155 12.3754C183.084 11.2684 183.013 10.1546 182.943 9.0476C182.915 8.58006 182.83 8.11939 182.682 7.67247C182.639 7.54871 182.597 7.43182 182.646 7.28743C182.992 6.31796 183.324 5.34849 183.656 4.37902C183.668 4.3292 183.744 4.31629 183.782 4.35049C183.874 4.4319 183.876 4.56128 183.917 4.6678C184.305 5.82291 184.7 6.97115 185.067 8.13314C185.377 9.12323 185.66 10.1271 185.949 11.1241C185.991 11.2616 186.005 11.4128 186.019 11.5572C186.027 11.6879 186.048 11.8391 185.892 11.901C185.737 11.9629 185.645 11.846 185.561 11.7429C185.434 11.5778 185.314 11.4128 185.187 11.2478C185.095 11.1309 185.01 11.014 184.912 10.8972C184.866 10.8383 184.771 10.9186 184.777 10.9926C185.261 16.9648 185.472 22.9242 185.752 28.9093C185.759 29.0589 185.899 29.209 186.041 29.1589C186.711 28.9527 187.388 28.7464 188.052 28.5195C189.498 28.0245 190.945 27.5294 192.377 27.0206C193.351 26.6699 194.29 26.2505 195.186 25.7349C195.52 25.5469 195.645 25.2696 195.56 24.9029C195.384 24.1259 195.108 23.3902 194.678 22.7096C194.403 22.2764 194.142 21.8295 193.866 21.3963C193.761 21.2382 193.732 21.08 193.768 20.8944C193.916 20.1037 194.064 19.313 194.212 18.5223C194.216 18.5005 194.22 18.4783 194.224 18.456C194.263 18.2485 194.509 18.1485 194.629 18.3229C194.791 18.536 194.946 18.7492 195.094 18.9692C195.56 19.6843 195.941 20.4543 196.28 21.2382C196.633 22.0701 196.703 22.9365 196.597 23.8234C196.477 24.8479 196.167 25.8311 195.779 26.78C195.468 27.5294 194.946 28.1207 194.205 28.5264C192.871 29.2689 191.46 29.8396 190.014 30.3484C188.814 30.7678 187.607 31.1804 186.408 31.5929C186.12 31.6948 185.888 31.9177 185.911 32.2219C185.912 32.2369 185.913 32.2519 185.914 32.2667C185.942 33.0712 185.984 33.8756 186.019 34.6801C186.069 35.9108 186.125 37.1347 186.161 38.3655C186.203 39.7956 186.281 41.2326 186.238 42.6628C186.196 44.1548 186.111 45.6468 185.815 47.1113C185.653 47.9158 185.434 48.7065 185.144 49.4765C185.102 49.5866 185.067 49.7034 184.996 49.7928C184.954 49.8547 184.848 49.896 184.77 49.896C184.672 49.896 184.622 49.8066 184.615 49.7103C184.615 49.5934 184.615 49.4765 184.615 49.3597C184.7 47.5307 184.756 45.7018 184.693 43.8729C184.636 42.1471 184.559 40.4213 184.481 38.6955C184.418 37.3066 184.34 35.9177 184.262 34.5288C184.227 33.9031 184.199 33.2706 184.164 32.6449C184.164 32.4393 183.947 32.2868 183.747 32.3355C182.512 32.5899 181.285 32.8718 180.05 33.1056C177.396 33.6075 174.729 33.8344 172.026 33.6831C170.735 33.6075 169.458 33.4356 168.202 33.1262C167.976 33.0712 167.806 33.0987 167.609 33.2156C166.353 33.965 165.104 34.7214 163.834 35.4433C161.046 37.0385 158.188 38.4961 155.21 39.72C154.66 39.9469 154.11 40.1806 153.545 40.3869C152.783 40.6688 151.985 40.8132 151.174 40.8888C149.622 41.0401 148.062 41.1707 146.517 41.4114C145.747 41.5351 144.978 41.6864 144.23 41.8858C144.146 41.9064 144.054 41.9339 143.969 41.9477C143.842 41.9614 143.736 41.9133 143.652 41.817C143.609 41.762 143.616 41.652 143.673 41.6245C143.75 41.5833 143.835 41.542 143.92 41.5214C144.752 41.3289 145.557 41.0263 146.347 40.7101C150.468 39.053 154.561 37.3341 158.576 35.4364C160.729 34.4188 162.81 33.2843 164.899 32.1636C165.04 32.0885 165.114 31.9126 164.982 31.8215C164.965 31.8098 164.949 31.7982 164.934 31.7854C164.546 31.4623 164.151 31.146 163.77 30.8091C162.697 29.8603 162.062 28.6776 161.822 27.2888C161.687 26.486 161.534 25.689 161.375 24.8351C161.358 24.746 161.217 24.7119 161.194 24.7998C161.096 25.2261 161.018 25.6592 160.919 26.0855C160.785 26.6906 160.524 27.2544 160.15 27.7563C159.839 28.1688 159.515 28.5745 159.169 28.9595C158.435 29.7777 157.666 30.5616 156.84 31.2835C154.611 33.2156 152.232 34.9414 149.572 36.2821C148.824 36.6603 148.055 36.9972 147.222 37.1553C146.749 37.2447 146.277 37.2929 145.79 37.231C144.943 37.1278 144.258 36.7497 143.729 36.0965C143.32 35.5946 143.066 35.017 142.897 34.4051C142.537 33.0987 142.487 31.7786 142.664 30.4447C143.017 27.8251 143.814 25.3361 144.922 22.9365C144.989 22.788 145.056 22.6344 145.118 22.4978C145.137 22.4561 145.162 22.4066 145.141 22.3658C144.647 21.3826 144.689 20.3581 144.915 19.3199C145.07 18.6048 145.338 17.9172 145.656 17.2503C146.531 15.4007 147.533 13.6199 148.584 11.8598C149.064 11.0622 149.558 10.2783 150.052 9.49452C150.235 9.20574 150.44 8.93759 150.638 8.66257C150.715 8.56256 150.886 8.515 150.944 8.62698C150.968 8.67291 150.968 8.72727 150.948 8.78633C150.899 8.92384 150.828 9.05448 150.758 9.17824C149.593 11.2891 148.422 13.4068 147.258 15.5176C147.053 15.8889 146.848 16.2671 146.651 16.6452C146.312 17.3053 146.058 17.986 145.91 18.7079C145.804 19.2167 145.811 19.7255 145.959 20.2274C146.185 20.9769 146.884 21.2588 147.596 20.8944C147.914 20.7362 148.14 20.4818 148.302 20.1793C148.408 19.9868 148.507 19.7874 148.627 19.6018C148.676 19.5196 148.767 19.4648 148.844 19.3829C148.845 19.3821 148.846 19.3813 148.846 19.3804Z" fill="#118AC9"/>
<path d="M194.663 50.7246C194.65 50.7173 194.636 50.7333 194.645 50.7454C195.349 51.6826 196.152 52.3905 197.295 52.6606C198.015 52.8325 198.728 52.7775 199.434 52.585C200.506 52.2962 201.459 51.7736 202.355 51.1479C202.449 51.08 202.536 51.002 202.62 50.9231C202.779 50.7731 202.87 50.5622 202.87 50.3435C202.856 48.3564 202.863 46.3625 202.828 44.3754C202.8 42.7046 202.736 41.0407 202.666 39.3768C202.574 37.3622 202.461 35.3408 202.348 33.3262C202.277 32.0405 202.207 30.7547 202.129 29.469C202.059 28.2726 201.974 27.0762 201.903 25.8799C201.833 24.6697 201.762 23.4527 201.692 22.2426C201.614 20.7987 201.529 19.348 201.459 17.9041C201.409 16.9071 201.367 15.917 201.339 14.92C201.332 14.6313 201.282 14.37 201.035 14.1775C200.965 14.1225 200.908 14.0468 200.873 13.9712C200.838 13.8956 200.81 13.7993 200.831 13.7237C200.859 13.5793 200.901 13.4349 200.972 13.3111C201.289 12.6923 201.494 12.0391 201.685 11.3722C201.704 11.3049 201.717 11.2336 201.746 11.166C201.795 11.0524 201.956 11.0176 202.045 11.104C202.143 11.2141 202.228 11.3309 202.32 11.4547C203.668 13.2355 204.867 15.1126 205.926 17.0652C206.229 17.6222 206.525 18.1791 206.843 18.7292C207.93 20.6131 208.734 22.607 209.362 24.6766C209.87 26.3474 210.308 28.0319 210.59 29.7509C210.943 31.8823 211.077 34.0275 210.957 36.1796C210.71 40.5732 209.489 44.6986 207.372 48.5833C206.787 49.6559 206.102 50.6735 205.319 51.6224C205.234 51.7255 205.142 51.8218 205.044 51.9111C205.015 51.9386 204.924 51.9249 204.881 51.8974C204.839 51.8699 204.79 51.7874 204.804 51.753C204.853 51.6292 204.917 51.5124 204.987 51.4023C205.573 50.4673 206.102 49.4978 206.575 48.5008C207.718 46.0668 208.494 43.5228 208.932 40.8826C209.221 39.1293 209.362 37.3691 209.334 35.5952C209.271 31.4079 208.424 27.3787 206.737 23.5215C206.624 23.2671 206.504 23.0127 206.377 22.7652C205.467 20.9844 204.514 19.2242 203.498 17.4984C203.45 17.4195 203.403 17.3425 203.356 17.2664C203.28 17.1439 203.117 17.1009 203.131 17.244C203.174 18.0347 203.209 18.8254 203.258 19.6092C203.294 20.2487 203.35 20.895 203.392 21.5344C203.498 23.109 203.597 24.6904 203.703 26.2649C203.837 28.2795 203.985 30.294 204.105 32.3086C204.197 33.8281 204.26 35.3477 204.331 36.8672C204.479 39.8512 204.528 42.8353 204.479 45.8193C204.451 47.2976 204.324 48.7758 203.957 50.2128C203.71 51.1961 203.343 52.138 202.898 53.0525C202.722 53.4169 202.461 53.7194 202.143 53.967C200.972 54.8814 199.666 55.5071 198.149 55.6584C197.571 55.7134 197.013 55.6515 196.463 55.4796C195.644 55.2252 194.946 54.7783 194.381 54.1526C194.162 53.912 193.972 53.6507 193.838 53.3482C193.612 52.8256 193.386 52.2962 193.16 51.7736C193.141 51.7316 193.121 51.6874 193.103 51.6446C193.077 51.5856 193.017 51.5269 192.956 51.5467C192.857 51.5811 192.758 51.6155 192.659 51.6567C190.825 52.5093 188.898 53.1281 186.993 53.7951C186.033 54.1251 185.088 54.5101 184.156 54.9158C183.062 55.3902 182.081 56.0365 181.178 56.7929C180.141 57.6661 179.231 58.663 178.356 59.6806C177.586 60.5814 176.817 61.4821 176.048 62.3759C175.603 62.8985 175.074 63.3316 174.524 63.7373C173.818 64.253 173.014 64.5211 172.139 64.5555C171.355 64.583 170.621 64.3905 169.944 64.0054C169.281 63.6273 168.759 63.1116 168.342 62.4928C167.898 61.8259 167.601 61.0902 167.382 60.327C167.305 60.0588 167.248 59.7838 167.185 59.5156C167.134 59.2943 166.891 59.1667 166.68 59.2504C166.676 59.2517 166.673 59.253 166.67 59.2544C165.449 59.7219 164.193 60.0657 162.894 60.2445C161.434 60.4438 159.987 60.4163 158.562 60.0382C156.332 59.4469 154.645 58.168 153.509 56.2153C152.825 55.0396 152.458 53.7676 152.31 52.4268C152.048 50.0891 152.493 47.8545 153.361 45.6818C153.636 44.9873 153.968 44.3135 154.335 43.6535C154.384 43.5641 154.434 43.4747 154.49 43.3853C154.589 43.2409 154.801 43.1928 154.97 43.2822C155.012 43.3028 155.055 43.3784 155.048 43.4266C155.026 43.5228 154.991 43.6191 154.942 43.7085C154.363 44.8086 153.961 45.9706 153.643 47.1601C153.417 48.0126 153.305 48.8858 153.312 49.7659C153.326 53.1419 155.295 55.8715 158.562 57.0129C160.058 57.5354 161.603 57.673 163.177 57.5011C164.475 57.3635 165.71 57.0129 166.896 56.4903C167.008 56.4422 167.114 56.3872 167.22 56.3391C167.368 56.2703 167.446 56.1603 167.481 56.0022C167.517 55.8028 167.566 55.6034 167.608 55.404C167.912 54.1114 168.427 52.8944 169.062 51.7324C169.38 51.1479 169.718 50.5841 170.057 50.0135C170.185 49.7936 170.321 49.5736 170.459 49.3485C170.554 49.1926 170.557 48.9894 170.445 48.8446C170.12 48.4252 169.951 47.9508 169.888 47.4282C169.789 46.5412 169.902 45.6749 170.128 44.8223C170.389 43.846 170.685 42.8765 170.967 41.907C171.003 41.7833 171.066 41.6664 171.137 41.5564C171.158 41.522 171.25 41.4945 171.292 41.5083C171.334 41.522 171.377 41.5839 171.398 41.6389C171.412 41.6733 171.405 41.7283 171.398 41.7695C171.377 41.8864 171.348 41.9964 171.313 42.1133C170.974 43.2822 170.727 44.4717 170.48 45.6612C170.403 46.0462 170.367 46.445 170.445 46.8369C170.494 47.0844 170.572 47.3182 170.706 47.5313C171.038 48.0333 171.68 48.0264 171.99 47.5107C172.082 47.3663 172.125 47.1876 172.167 47.0157C172.216 46.8163 172.223 46.61 172.266 46.4106C172.267 46.4067 172.268 46.4029 172.269 46.399C172.295 46.3009 172.466 46.2959 172.477 46.3969C172.534 47.0432 172.513 47.6826 172.287 48.3014C172.244 48.4252 172.188 48.5489 172.125 48.6658C171.933 49.0277 171.785 49.1918 171.475 49.3017C171.277 49.372 171.089 49.4856 170.988 49.6697C170.452 50.701 169.923 51.7324 169.387 52.7637C168.935 53.6248 168.661 54.5473 168.395 55.4759C168.343 55.6564 168.435 55.8231 168.603 55.7409C169.824 55.1702 171.017 54.5514 172.188 53.8982C174.065 52.8462 175.872 51.6911 177.615 50.4466C177.833 50.2885 178.045 50.1235 178.25 49.9516C178.377 49.8484 178.483 49.7247 178.595 49.6078C178.779 49.4153 178.807 49.1953 178.701 48.9615C178.666 48.879 178.638 48.7965 178.602 48.7208C178.313 48.0814 178.045 47.4213 177.727 46.7956C177.198 45.7574 176.789 44.6779 176.408 43.5778C176.154 42.8559 175.9 42.1408 175.639 41.4257C175.479 40.9708 175.273 40.407 175.425 39.9493C175.51 39.6921 175.594 39.439 175.674 39.1843C175.797 38.7858 175.916 38.3873 176.041 37.9682C176.086 37.8177 176.291 37.7551 176.38 37.8848C176.732 38.3386 177.085 38.7924 177.438 39.253C178.031 40.03 178.624 40.8001 179.202 41.5839C179.386 41.8314 179.541 42.0996 179.696 42.3677C179.76 42.4708 179.724 42.5877 179.647 42.6427C179.569 42.7046 179.478 42.7046 179.393 42.6634C179.287 42.6152 179.181 42.5534 179.082 42.4915C178.786 42.3196 178.497 42.1408 178.193 41.9689C178.179 41.9606 178.164 41.953 178.148 41.9458C178.019 41.8845 177.879 41.9431 177.925 42.0789C178.158 42.6359 178.398 43.1859 178.631 43.7428C178.969 44.5542 179.28 45.3793 179.485 46.2387C179.837 47.7376 179.717 49.1953 179.202 50.646C178.814 51.753 178.151 52.6193 177.163 53.3C175.371 54.5308 173.578 55.7615 171.68 56.841C170.593 57.4598 169.457 57.9961 168.321 58.5393C168.271 58.5624 168.221 58.5864 168.17 58.6113C168.005 58.692 167.879 58.8688 167.919 59.0481C168.003 59.5431 168.159 60.0176 168.399 60.4576C168.709 61.0214 169.154 61.4477 169.768 61.6746C171.454 62.2934 173.014 62.1078 174.39 60.9183C175.632 59.8457 176.768 58.6906 177.812 57.4323C178.292 56.8548 178.793 56.2841 179.308 55.734C180.155 54.8333 181.093 54.0357 182.187 53.4238C182.618 53.1831 183.055 52.9562 183.507 52.7637C185.405 51.9524 187.353 51.258 189.3 50.5635C190.204 50.2404 191.107 49.9172 192.003 49.594C192.368 49.467 192.596 49.0995 192.549 48.7156C192.534 48.588 192.517 48.4619 192.504 48.3358C192.37 47.2288 192.194 46.1356 192.172 45.0148C192.172 44.8223 192.172 44.6367 192.165 44.4442C192.137 43.8322 192.264 43.2547 192.504 42.6909C192.659 42.3265 192.822 41.962 192.991 41.6045C193.273 41.0132 193.675 40.5044 194.127 40.03C194.565 39.5831 195.108 39.5693 195.672 39.7275C195.919 39.7962 196.131 39.9475 196.315 40.1194C196.547 40.3325 196.738 40.5732 196.893 40.8482C197.26 41.5014 197.585 42.1752 197.825 42.8903C198.107 43.7497 198.135 44.6161 198.008 45.4961C197.846 46.6237 197.422 47.6688 196.914 48.6865C196.766 48.9821 196.562 49.2296 196.329 49.4634C195.955 49.8484 195.524 50.1647 195.073 50.4604C194.954 50.5417 194.836 50.623 194.677 50.724C194.673 50.7268 194.668 50.727 194.663 50.7246ZM193.809 48.6039C193.808 48.6039 193.807 48.6026 193.808 48.6024C194.165 48.5061 194.446 48.3626 194.727 48.2395C195.313 47.9783 195.877 47.6689 196.371 47.2494C196.555 47.0982 196.717 46.9263 196.886 46.7544C197.034 46.6031 197.063 46.4175 197.006 46.225C196.985 46.1562 196.964 46.0874 196.936 46.0187C196.569 45.1661 196.173 44.3342 195.687 43.5435C195.545 43.3166 195.383 43.1034 195.207 42.904C195.094 42.7734 194.939 42.6634 194.783 42.5809C194.515 42.4296 194.226 42.4296 193.979 42.6152C193.591 42.904 193.28 43.2616 193.118 43.7153C193.047 43.9147 193.04 44.1141 193.076 44.3204C193.252 45.3724 193.421 46.4312 193.598 47.4832C193.661 47.8405 193.732 48.1977 193.809 48.603C193.809 48.6035 193.809 48.6039 193.809 48.6039Z" fill="#118AC9"/>
<path d="M194.27 35.3126C194.269 35.3126 194.269 35.3114 194.269 35.3106C194.551 34.9469 194.819 34.5969 195.086 34.2469C195.551 33.6388 196.393 33.5097 197.003 33.9733C197.124 34.0653 197.244 34.1568 197.366 34.2469C197.4 34.272 197.433 34.2971 197.467 34.3222C198.234 34.8902 198.403 35.8921 197.826 36.652C197.524 37.0495 197.214 37.4453 196.998 37.7059C196.89 37.8355 196.693 37.8791 196.561 37.7741C195.806 37.2172 195.058 36.6534 194.31 36.0896C194.093 35.928 193.789 35.9589 193.621 36.1707C193.439 36.4 193.277 36.6387 193.096 36.8596C192.859 37.1567 192.626 37.4641 192.39 37.7728C192.324 37.8586 192.192 37.9178 192.109 37.8497C191.226 37.1897 190.344 36.5296 189.469 35.8696C189.421 35.8226 189.407 35.7461 189.433 35.6841C189.44 35.6692 189.447 35.655 189.455 35.6427C190.041 34.8795 190.62 34.1163 191.205 33.3599C191.289 33.2513 191.45 33.2411 191.565 33.3164C191.842 33.4986 192.092 33.7076 192.356 33.9031C192.666 34.13 192.976 34.3707 193.287 34.5976C193.61 34.8305 193.913 35.0907 194.271 35.3103C194.272 35.3109 194.272 35.3126 194.27 35.3126Z" fill="#118AC9"/>
<path d="M187.868 16.6896C187.868 16.6908 187.869 16.6912 187.87 16.6901C188.283 15.9506 188.688 15.2287 189.105 14.5032C189.277 14.2036 189.654 14.0913 189.957 14.2571C190.301 14.4448 190.63 14.6354 190.965 14.817C191.088 14.8837 191.211 14.9517 191.333 15.0201C191.986 15.3843 192.749 15.1678 193.125 14.5214C193.327 14.1733 193.529 13.819 193.713 13.4884C193.729 13.4586 193.768 13.4351 193.8 13.422C193.818 13.4146 193.827 13.4123 193.845 13.4166C193.85 13.4176 193.854 13.4191 193.859 13.4212C194.797 13.9369 195.743 14.4526 196.681 14.9683C196.717 14.9889 196.752 15.0233 196.78 15.0508C196.815 15.0845 196.801 15.1448 196.777 15.1869C196.346 15.9493 195.904 16.7273 195.456 17.521C195.366 17.6804 195.161 17.7677 195.002 17.6773C194.233 17.251 193.464 16.8247 192.694 16.4053C192.636 16.3739 192.576 16.3426 192.515 16.3102C192.359 16.2284 192.144 16.2583 192.059 16.4122C191.749 16.9485 191.452 17.4848 191.149 18.0211C191.027 18.2349 190.766 18.3151 190.547 18.2035C189.758 17.8022 188.15 16.9041 187.869 16.6885C187.868 16.6879 187.868 16.6886 187.868 16.6896Z" fill="#118AC9"/>
<path d="M192.948 57.3631C192.8 57.1224 192.715 56.9024 192.765 56.6618C192.793 56.5243 192.849 56.4142 193.004 56.373C193.47 56.2561 193.795 55.9673 194.042 55.5823C194.103 55.4746 194.292 55.4254 194.302 55.549C194.303 55.5643 194.303 55.5802 194.303 55.596C194.324 56.153 194.162 56.6687 193.887 57.1499C193.64 57.5762 193.308 57.9269 192.927 58.25C192.503 58.6007 192.094 58.9651 191.678 59.3295C191.516 59.4808 191.36 59.6458 191.219 59.8108C191.09 59.9569 191.048 60.0218 191.01 60.1812C190.976 60.3208 191.036 60.4749 191.17 60.4228C191.283 60.3746 191.388 60.3265 191.494 60.2715C192.292 59.8108 193.096 59.3502 193.894 58.8757C194.642 58.4288 195.326 57.9063 195.862 57.2187C195.898 57.1706 195.947 57.1362 195.989 57.0949C196.011 57.0735 196.05 57.0742 196.076 57.0905C196.129 57.1235 196.109 57.1895 196.109 57.2462C196.109 57.4731 196.039 57.6794 195.919 57.8719C195.806 58.0575 195.679 58.2432 195.538 58.4151C194.874 59.2126 194.042 59.8108 193.089 60.2371C192.461 60.519 191.812 60.7597 191.12 60.8216C191.078 60.8216 191.029 60.8353 190.986 60.8491C190.919 60.8654 190.885 60.9413 190.869 61.0084C190.848 61.0922 190.825 61.182 190.796 61.2685C190.76 61.3785 190.732 61.4954 190.683 61.5985C190.485 61.9904 190.083 62.0935 189.702 61.8598C189.42 61.6879 189.264 61.4197 189.173 61.1241C189.165 61.0986 189.157 61.0731 189.15 61.0473C189.102 60.8827 188.888 60.8136 188.77 60.9384C188.086 61.6191 187.274 62.1142 186.385 62.4786C186.061 62.6092 185.722 62.6711 185.376 62.6505C184.762 62.6161 184.438 62.3067 184.395 61.7223C184.388 61.5916 184.381 61.461 184.381 61.3304C184.381 60.8353 184.565 60.4159 184.911 60.0652C185.263 59.7008 185.687 59.4258 186.117 59.1508C186.168 59.1178 186.241 59.1831 186.26 59.2405C186.262 59.2471 186.264 59.2538 186.265 59.2608C186.267 59.2951 186.269 59.3295 186.271 59.3639C186.292 59.7497 186.107 60.1128 185.8 60.3471C185.581 60.519 185.348 60.6909 185.15 60.8834C185.038 60.9934 184.946 61.1378 184.875 61.2822C184.769 61.4954 184.875 61.681 185.115 61.6879C185.397 61.6948 185.687 61.6879 185.962 61.6398C186.399 61.571 186.795 61.3785 187.155 61.1447C187.853 60.684 188.467 60.1202 189.032 59.5152C189.109 59.4314 189.194 59.3451 189.239 59.236C189.294 59.1035 189.155 58.9524 189.017 58.9926C188.749 59.0958 188.495 59.2195 188.234 59.3295C188.1 59.3914 187.959 59.4533 187.818 59.4946C187.394 59.6046 187.126 59.4258 187.119 59.0064C187.119 58.6557 187.147 58.3051 187.204 57.9613C187.324 57.2531 187.648 56.6274 188.135 56.0911C188.255 55.9605 188.389 55.8436 188.573 55.8023C188.996 55.7061 189.335 55.9605 189.314 56.3799C189.314 56.43 189.308 56.4801 189.299 56.5316C189.27 56.6924 189.082 56.7838 188.94 56.703C188.742 56.593 188.559 56.6205 188.396 56.758C188.291 56.8405 188.199 56.9368 188.121 57.0468C187.846 57.4387 187.677 57.8719 187.55 58.3257C187.543 58.3532 187.543 58.3807 187.543 58.4151C187.536 58.5182 187.606 58.6007 187.698 58.5801C187.86 58.5457 188.022 58.5113 188.171 58.4563C188.439 58.3532 188.7 58.2432 188.954 58.1194C189.342 57.9269 189.702 57.9406 189.843 58.5526C189.97 59.082 189.949 59.6046 189.561 60.0446C189.518 60.086 189.485 60.1366 189.453 60.1863C189.294 60.43 189.311 60.6121 189.497 60.8628C189.73 61.1791 190.196 61.2203 190.436 60.8422C190.57 60.629 190.69 60.409 190.711 60.1546C190.782 59.4945 191.113 58.9651 191.6 58.5251C191.897 58.2569 192.214 58.0163 192.525 57.755C192.654 57.6492 192.783 57.5369 192.943 57.4C192.954 57.3907 192.956 57.3748 192.948 57.3631Z" fill="#118AC9"/>
<path d="M188.092 4.28692C188.012 4.37006 187.897 4.26948 187.931 4.15904C188.079 3.66399 188.305 3.20332 188.566 2.7564C188.714 2.502 188.855 2.2476 188.989 1.98632C189.09 1.7751 188.907 1.58396 188.68 1.63982C188.613 1.65613 188.547 1.67773 188.481 1.69755C188.079 1.82131 187.684 1.95882 187.289 2.08946C186.477 2.35761 185.673 2.62576 184.826 2.77015C183.739 2.96267 182.645 2.96955 181.552 2.87329C181.38 2.86011 181.209 2.83852 181.041 2.82823C180.862 2.81718 180.685 2.9163 180.761 3.07956C180.867 3.34083 180.98 3.59523 181.072 3.85651C181.305 4.50282 181.305 5.14913 181.051 5.78857C181.045 5.80222 181.04 5.81602 181.035 5.82989C180.951 6.0583 180.711 6.03059 180.684 5.78857C180.67 5.5823 180.684 5.37603 180.641 5.17664C180.564 4.73659 180.38 4.3378 180.084 3.99402C179.731 3.57461 179.364 3.16894 179.004 2.7564C178.919 2.65327 178.821 2.56388 178.736 2.46075C178.553 2.24073 178.496 2.00008 178.595 1.72505C178.687 1.46378 178.757 1.19562 178.856 0.934348C178.927 0.741829 178.997 0.721202 179.202 0.789959C179.315 0.831213 179.42 0.879342 179.533 0.920596C181.114 1.54628 182.744 1.73193 184.438 1.55316C185.701 1.41565 186.915 1.09936 188.093 0.65932C188.389 0.549309 188.679 0.432423 188.975 0.329288C189.102 0.281158 189.229 0.239906 189.363 0.226154C189.716 0.1849 189.977 0.446176 189.928 0.789959C189.914 0.906846 189.885 1.02373 189.836 1.12687C189.674 1.53253 189.533 1.95882 189.321 2.33698C188.968 2.96267 188.566 3.56773 188.178 4.17279C188.151 4.21262 188.125 4.25245 188.092 4.28692Z" fill="#118AC9"/>
<path d="M200.941 7.08226C200.939 7.07926 200.935 7.07959 200.934 7.08278C200.9 7.18196 200.88 7.262 200.852 7.33554C200.725 7.61744 200.584 7.89247 200.471 8.18125C200.379 8.4219 200.217 8.54566 199.963 8.62129C199.187 8.84131 198.411 9.07508 197.641 9.32261C194.007 10.464 190.486 11.8735 187.12 13.6268C187.112 13.6309 187.105 13.6349 187.097 13.6389C186.971 13.7026 186.813 13.6609 186.866 13.5305C187.021 13.1524 187.191 12.7742 187.339 12.396C187.431 12.1554 187.586 12.0179 187.812 11.9079C189.639 11.0278 191.495 10.2027 193.393 9.46012C195.666 8.57316 197.973 7.80308 200.344 7.2049C200.526 7.15722 200.708 7.08255 200.937 7.08785C200.94 7.08791 200.942 7.08485 200.941 7.08226Z" fill="#118AC9"/>
<path d="M163.508 10.8795C163.416 10.9218 163.297 10.8314 163.339 10.7386C163.494 10.3605 163.664 9.98229 163.812 9.59725C163.897 9.37723 164.031 9.23284 164.25 9.13658C165.506 8.57278 166.74 7.98147 168.004 7.43829C170.805 6.23505 173.684 5.22432 176.648 4.45425C176.824 4.40612 176.994 4.36487 177.17 4.32361C177.287 4.30083 177.373 4.43984 177.323 4.54831C177.159 4.9104 177.002 5.24957 176.846 5.58873C176.775 5.74 176.634 5.78125 176.486 5.82251C175.829 6.01503 175.166 6.21442 174.51 6.41382C170.742 7.58268 167.093 9.02657 163.6 10.8349C163.57 10.8506 163.54 10.8649 163.508 10.8795Z" fill="#118AC9"/>
<path d="M151.343 24.1318C151.343 24.1301 151.341 24.1295 151.34 24.131C151.257 24.2804 151.191 24.3958 151.132 24.4981C151.122 24.5152 151.108 24.5302 151.09 24.5369C151.021 24.5616 150.979 24.5203 150.948 24.4898C150.609 24.1804 150.27 23.8641 149.931 23.5547C149.79 23.4241 149.72 23.2728 149.748 23.0872C149.826 22.6127 149.896 22.1315 149.981 21.657C149.995 21.5476 150.141 21.5031 150.238 21.556C150.405 21.6472 150.542 21.7759 150.679 21.9046C151.286 22.4615 151.787 23.094 152.197 23.8022C152.528 24.3798 152.782 24.9849 152.98 25.6174C153.051 25.8443 153.114 26.0643 153.192 26.2912C153.216 26.3737 153.346 26.3455 153.365 26.2616C153.414 26.042 153.439 25.8509 153.439 25.6518C153.439 25.3286 153.453 25.0055 153.453 24.6892C153.46 23.6166 153.65 22.5646 153.94 21.5333C154.045 21.1551 154.236 20.832 154.525 20.5638C154.991 20.1306 155.52 20.0963 156.028 20.4744C156.692 20.9626 157.03 21.6227 157.143 22.4134C157.184 22.7171 157.116 22.9887 156.935 23.2393C156.869 23.3312 156.722 23.3323 156.671 23.2316C156.579 23.0459 156.501 22.8534 156.409 22.6746C156.24 22.3308 156.014 22.0146 155.704 21.7739C155.591 21.6845 155.457 21.6089 155.316 21.5539C155.019 21.4439 154.751 21.5333 154.525 21.7327C154.201 22.0214 154.031 22.3859 153.996 22.8121C153.968 23.1491 153.94 23.486 153.911 23.816C153.841 24.8061 153.77 25.8031 153.7 26.7932C153.679 27.1301 153.636 27.467 153.439 27.7558C153.333 27.907 153.185 27.9208 153.079 27.7695C153.015 27.6732 152.959 27.5701 152.916 27.4601C152.796 27.1438 152.677 26.8275 152.578 26.5044C152.324 25.6999 151.921 24.9711 151.435 24.2767C151.406 24.2423 151.385 24.2012 151.343 24.1327C151.343 24.1324 151.343 24.1321 151.343 24.1318Z" fill="#118AC9"/>
<path d="M173.472 13.2271C173.472 13.2273 173.472 13.2277 173.472 13.2281C173.409 13.4135 173.359 13.5783 173.289 13.7363C173.204 13.922 173.127 14.1214 173 14.2726C172.428 14.9739 171.384 14.8983 170.911 14.1351C170.784 13.9357 170.699 13.7157 170.671 13.475C170.636 13.1106 170.6 12.7462 170.586 12.3818C170.573 12.1545 170.556 11.9272 170.524 11.7043C170.484 11.4305 170.14 11.2687 170.163 10.9929C170.18 10.7538 170.221 10.5171 170.287 10.2878C170.365 10.017 170.708 9.84776 170.748 10.1266C170.819 10.546 170.897 10.9654 170.939 11.3848C170.981 11.763 170.995 12.1412 171.024 12.5193C171.052 12.9112 171.242 13.2138 171.581 13.42C172.089 13.7226 172.781 13.5232 173.049 13.0006C173.155 12.7943 173.141 12.5743 173.077 12.3612C172.957 11.9555 172.865 11.5361 172.717 11.1373C172.54 10.6662 172.559 10.2157 172.705 9.74111C172.736 9.63902 172.883 9.60062 172.936 9.69342C173 9.82406 173.056 9.96157 173.112 10.0991C173.324 10.6491 173.529 11.1992 173.74 11.7424C173.811 11.9211 173.882 12.093 173.959 12.2718C174.171 12.7531 174.552 13.035 175.074 13.1244C175.14 13.1372 175.207 13.1559 175.277 13.166C175.421 13.1869 175.517 13.0291 175.455 12.8975C175.159 12.3406 174.87 11.7767 174.545 11.2336C174.262 10.7605 174.21 10.3031 174.406 9.8386C174.463 9.7032 174.607 9.6247 174.686 9.74843C174.764 9.87219 174.827 10.0028 174.898 10.1335C175.208 10.7316 175.512 11.3367 175.843 11.928C176.175 12.5331 176.182 13.1588 176.013 13.8051C175.907 14.2039 175.716 14.3345 175.3 14.3345C174.651 14.3345 174.136 14.0938 173.769 13.5713C173.698 13.4753 173.635 13.3793 173.565 13.2833C173.564 13.2828 173.564 13.2822 173.564 13.2816C173.557 13.2692 173.542 13.2678 173.473 13.2255C173.472 13.2249 173.471 13.2262 173.472 13.2271Z" fill="#118AC9"/>
<path d="M180.412 33.5601C180.456 33.5601 180.511 33.5978 180.508 33.6419C180.496 33.7828 180.485 33.9155 180.479 34.0482C180.458 34.3989 180.493 34.4745 180.846 34.6052C181.255 34.7564 181.644 34.9421 182.011 35.169C182.102 35.224 182.187 35.279 182.272 35.3409C182.836 35.719 183.055 36.2484 182.928 36.9016C182.702 38.043 182.011 38.8131 180.903 39.2187C180.649 39.315 180.38 39.3425 180.105 39.3012C179.498 39.2119 179.103 38.8612 178.969 38.2768C178.856 37.7955 178.891 37.3142 178.99 36.8398C179.237 35.719 179.668 34.667 180.282 33.6838C180.305 33.644 180.343 33.6137 180.379 33.581C180.394 33.5678 180.392 33.5601 180.412 33.5601ZM179.83 35.7179C179.83 35.7186 179.83 35.7194 179.829 35.72C179.625 36.1047 179.569 36.4757 179.52 36.8466C179.449 37.3829 179.781 37.823 180.324 37.9467C181.1 38.1255 181.7 37.7886 182.145 37.2729C182.236 37.1629 182.229 37.0598 182.145 36.9498C182.102 36.8879 182.053 36.8329 181.996 36.7847C181.391 36.2428 180.666 35.9199 179.836 35.7135C179.833 35.7128 179.83 35.715 179.83 35.7179Z" fill="#118AC9"/>
<path d="M169.345 38.4282C169.345 38.4278 169.345 38.4274 169.345 38.427C169.394 38.2486 169.415 38.1525 169.45 38.0563C169.549 37.7813 169.662 37.5063 169.747 37.2312C169.824 36.97 169.966 36.8187 170.234 36.7156C171.723 36.1243 173.219 35.5604 174.743 35.0723C175.47 34.8385 176.204 34.6254 176.937 34.4122C176.953 34.4075 176.969 34.4034 176.986 34.3998C177.11 34.372 177.224 34.51 177.17 34.6254C176.987 34.9623 176.796 35.2923 176.627 35.6361C176.535 35.8217 176.394 35.918 176.197 35.9799C174.581 36.4749 172.979 37.0181 171.398 37.6231C170.855 37.8294 170.311 38.0494 169.768 38.2626C169.656 38.3034 169.551 38.351 169.35 38.4321C169.348 38.4332 169.345 38.4312 169.345 38.4282Z" fill="#118AC9"/>
<path d="M164.822 36.9765C164.825 36.9765 164.827 36.9795 164.826 36.9824C164.601 37.5573 164.418 38.0301 164.235 38.5029C164.193 38.606 164.115 38.6679 164.016 38.7092C163.918 38.7504 163.826 38.7917 163.727 38.8398C161.723 39.7405 159.761 40.7169 157.849 41.7963C157.781 41.8331 157.717 41.8777 157.644 41.9134C157.539 41.9648 157.43 41.8626 157.454 41.7482C157.517 41.4457 157.609 41.15 157.651 40.8475C157.694 40.5381 157.842 40.3593 158.117 40.2081C160.114 39.1011 162.153 38.0835 164.263 37.1896C164.411 37.1278 164.566 37.0729 164.82 36.9768C164.821 36.9766 164.821 36.9765 164.822 36.9765Z" fill="#118AC9"/>
<path d="M177.636 29.6631C177.636 29.6654 177.633 29.6667 177.631 29.6654C177.052 29.2394 176.475 28.8068 175.893 28.3675C175.459 28.04 175.365 27.4539 175.695 27.0216C175.893 26.7603 176.09 26.5059 176.288 26.2446C176.461 26.0199 176.634 25.8009 176.791 25.5926C176.821 25.5523 176.865 25.5158 176.916 25.5158C176.945 25.5158 176.97 25.5313 176.993 25.5485C177.758 26.1172 178.522 26.6795 179.287 27.2484C179.364 27.3023 179.392 27.4012 179.341 27.48C178.975 28.0373 177.875 29.4465 177.637 29.6611C177.636 29.6616 177.636 29.6623 177.636 29.6631Z" fill="#118AC9"/>
<path d="M164.193 47.5723C164.26 47.4899 164.388 47.494 164.473 47.5577C165.191 48.0927 165.895 48.619 166.612 49.1584C166.734 49.2503 166.793 49.433 166.698 49.5525C166.218 50.185 165.731 50.8176 165.244 51.4502C165.168 51.5498 165.026 51.5698 164.92 51.503C164.421 51.19 163.277 50.3466 162.69 49.8547C162.619 49.7949 162.573 49.6783 162.633 49.6075C163.155 48.9268 163.671 48.2461 164.193 47.5723Z" fill="#118AC9"/>
<path d="M167.552 18.927C167.555 18.9241 167.56 18.9255 167.561 18.9295C167.617 19.1229 167.658 19.2177 167.665 19.3125C167.714 19.9726 167.686 20.6258 167.502 21.2721C167.404 21.6296 167.255 21.9597 167.037 22.2622C166.585 22.881 165.992 22.936 165.442 22.3997C165.096 22.0628 164.863 21.6571 164.722 21.2033C164.609 20.8389 164.546 20.4676 164.532 20.0826C164.489 19.065 164.652 18.068 164.92 17.0917C165.209 16.0328 165.534 14.9809 165.844 13.9289C165.879 13.8051 165.936 13.6814 165.985 13.5645C166.006 13.5163 166.056 13.4682 166.098 13.427C166.162 13.3651 166.303 13.3926 166.324 13.4751C166.345 13.5438 166.366 13.6195 166.359 13.6882C166.345 13.8189 166.31 13.9495 166.275 14.0733C165.879 15.469 165.569 16.8854 165.28 18.3018C165.174 18.8175 165.103 19.3469 165.251 19.8695C165.322 20.1101 165.4 20.3508 165.52 20.5639C165.894 21.2033 166.698 21.1965 167.086 20.5639C167.234 20.3164 167.277 20.0414 167.319 19.7663C167.347 19.5669 167.375 19.3607 167.418 19.1613C167.425 19.1132 167.467 19.072 167.551 18.9281C167.552 18.9277 167.552 18.9273 167.552 18.927Z" fill="#118AC9"/>
<path d="M165.919 4.18816C165.916 4.18671 165.913 4.18426 165.912 4.18126C165.814 3.97047 165.744 3.81348 165.667 3.6565C165.533 3.36084 165.35 3.09269 165.103 2.87267C164.644 2.47388 164.2 2.52889 163.861 3.03769C163.72 3.25083 163.656 3.48461 163.635 3.73901C163.557 4.84599 163.466 5.95297 163.381 7.06683C163.367 7.30748 163.317 7.53437 163.176 7.73377C163.127 7.81851 162.996 7.84558 162.918 7.78622C162.846 7.73221 162.814 7.65048 162.781 7.56875C162.682 7.30748 162.576 7.05308 162.499 6.78493C162.308 6.14549 161.998 5.56106 161.624 5.01788C161.616 5.00724 161.608 4.99677 161.6 4.98636C161.529 4.89701 161.383 4.91486 161.325 5.01344C161.285 5.08214 161.202 5.10681 161.136 5.06206C161.018 4.9821 160.93 4.87462 160.833 4.79098C160.657 4.63284 160.488 4.46783 160.311 4.30968C160.198 4.19967 160.128 4.07591 160.156 3.91777C160.219 3.53028 160.282 3.14951 160.351 2.76216C160.353 2.75335 160.353 2.74744 160.355 2.73861C160.368 2.65822 160.49 2.6381 160.563 2.67488C160.597 2.69198 160.629 2.71089 160.657 2.73516C160.939 2.99643 161.229 3.25083 161.483 3.53961C162.068 4.20655 162.471 4.96975 162.746 5.79483C162.816 6.01485 162.88 6.24175 162.958 6.46865C162.987 6.55435 163.12 6.53805 163.141 6.44995C163.19 6.2447 163.19 6.0507 163.19 5.85671C163.205 5.27228 163.19 4.68785 163.282 4.10342C163.36 3.58086 163.473 3.06519 163.628 2.56326C163.727 2.22636 163.924 1.95821 164.207 1.74506C164.524 1.50441 164.877 1.49066 165.216 1.70381C165.865 2.12322 166.175 2.73516 166.246 3.47085C166.274 3.72251 166.157 3.94726 165.936 4.18502C165.931 4.18963 165.925 4.19092 165.919 4.18816Z" fill="#118AC9"/>
<path d="M167.278 42.659C167.277 42.6573 167.276 42.6559 167.274 42.6552C167.136 42.5925 167.135 42.4425 167.072 42.3332C166.931 42.0926 166.804 41.8382 166.642 41.6182C166.529 41.4669 166.374 41.3431 166.211 41.24C165.936 41.0681 165.668 41.0956 165.421 41.3087C165.174 41.5219 165.026 41.7832 164.99 42.1063C164.962 42.3401 164.941 42.5739 164.92 42.8076C164.849 43.729 164.786 44.6435 164.722 45.5648C164.71 45.7345 164.686 45.8997 164.628 46.0513C164.543 46.2746 164.244 46.3931 164.158 46.1698C164.045 45.9017 163.932 45.6267 163.847 45.3448C163.643 44.6503 163.304 44.0178 162.88 43.4265C162.845 43.3746 162.761 43.3864 162.724 43.4374C162.705 43.4647 162.685 43.492 162.664 43.52C162.605 43.6008 162.491 43.6162 162.415 43.5512C162.253 43.4134 162.104 43.27 161.956 43.1308C161.448 42.6426 161.406 42.7595 161.554 42.0032C161.596 41.7763 161.624 41.5425 161.667 41.3087C161.68 41.2064 161.813 41.1642 161.903 41.2135C162.042 41.2892 162.151 41.3936 162.26 41.4944C163.064 42.2438 163.65 43.1377 164.01 44.169C164.108 44.4441 164.186 44.726 164.278 45.0079C164.302 45.1027 164.454 45.1602 164.455 45.0623C164.455 45.0526 164.454 45.0433 164.454 45.0354C164.482 44.5953 164.525 44.1622 164.525 43.7221C164.532 42.8695 164.687 42.0376 164.913 41.2125C165.005 40.8756 165.167 40.5868 165.435 40.3599C165.809 40.0299 166.218 40.0024 166.62 40.2911C167.199 40.7106 167.488 41.2881 167.566 41.9688C167.594 42.2201 167.512 42.3977 167.292 42.6605C167.288 42.665 167.281 42.6643 167.278 42.659Z" fill="#118AC9"/>
<path d="M146.934 44.9435C146.939 44.9393 146.946 44.9426 146.946 44.9486C146.924 45.3488 146.897 45.7555 146.883 46.1555C146.869 46.7812 147.095 47.3313 147.497 47.8126C147.737 48.1014 148.047 48.2526 148.435 48.2457C148.788 48.2457 149.014 48.0601 149.021 47.7163C149.035 47.3382 149.007 46.96 148.979 46.5818C148.972 46.4581 148.965 46.3481 149.042 46.2449C149.106 46.1555 149.247 46.1418 149.31 46.2312C149.36 46.2999 149.402 46.3824 149.423 46.4649C149.494 46.7468 149.572 47.0356 149.607 47.3244C149.663 47.7438 149.699 48.1701 149.727 48.5895C149.748 48.9058 149.649 49.2015 149.522 49.4834C149.339 49.8822 149.014 50.0472 148.569 49.9715C148.047 49.8822 147.61 49.6415 147.299 49.2152C146.946 48.7339 146.721 48.1976 146.587 47.6201C146.34 46.5681 146.34 45.5023 146.438 44.4366C146.467 44.1478 146.502 43.8522 146.544 43.5634C146.558 43.4672 146.587 43.3571 146.636 43.2746C146.664 43.2265 146.763 43.1852 146.826 43.199C146.883 43.2059 146.968 43.2746 146.982 43.3296C147.01 43.4259 147.003 43.529 147.003 43.6322C146.982 44.0705 146.954 44.502 146.926 44.9403C146.925 44.9431 146.925 44.9454 146.928 44.9454C146.929 44.9454 146.933 44.9449 146.934 44.9441L146.934 44.9435Z" fill="#118AC9"/>
<path d="M156.613 3.3728C156.692 3.32063 156.819 3.37843 156.805 3.47218C156.777 3.70596 156.734 3.93286 156.713 4.16663C156.65 4.79919 156.65 4.6823 156.226 4.98483C154.765 6.02306 153.375 7.13004 152.042 8.31266C151.934 8.40406 151.821 8.48306 151.707 8.56732C151.695 8.57606 151.692 8.58158 151.678 8.58038C151.648 8.57799 151.618 8.54699 151.614 8.51768C151.609 8.47337 151.599 8.42395 151.604 8.37454C151.653 8.07201 151.703 7.76948 151.752 7.46695C151.781 7.30193 151.844 7.15754 151.957 7.03378C152.133 6.85501 152.296 6.6625 152.493 6.50435C153.622 5.63114 154.758 4.76481 155.895 3.89848C156.12 3.72659 156.353 3.56157 156.579 3.39655C156.59 3.38844 156.601 3.38059 156.613 3.3728Z" fill="#118AC9"/>
<path d="M179.851 61.1384C179.851 61.1382 179.851 61.138 179.851 61.1378C179.872 61.0004 179.872 60.8905 179.914 60.8081C180.084 60.4505 180.253 60.093 180.451 59.7492C180.641 59.3985 180.973 59.1854 181.34 59.0479C181.643 58.9379 181.904 59.0273 182.081 59.2954C182.314 59.6529 182.42 60.0449 182.356 60.4643C182.328 60.6637 182.271 60.8631 182.201 61.0556C181.714 62.362 180.881 63.4071 179.675 64.1496C179.216 64.4247 178.729 64.6516 178.249 64.8991C178.143 64.9541 178.03 65.016 177.91 64.9197C177.833 64.8578 177.889 64.7272 178.052 64.5966C178.291 64.404 178.545 64.2184 178.792 64.0259C179.371 63.5858 179.943 63.1389 180.521 62.6989C180.818 62.472 181.065 62.1969 181.291 61.9013C181.537 61.5781 181.552 61.2206 181.382 60.8631C181.199 60.4712 180.74 60.3818 180.408 60.6637C180.331 60.7324 180.267 60.8149 180.197 60.8906C180.133 60.9525 180.07 61.0143 180.006 61.0762C179.985 61.0964 179.958 61.0968 179.857 61.1422C179.854 61.1435 179.851 61.1415 179.851 61.1384Z" fill="#118AC9"/>
<path d="M205.393 32.2328C205.391 32.2328 205.389 32.2311 205.389 32.2292C205.418 31.6044 205.531 30.8976 205.763 30.2182C205.954 29.6475 206.194 29.0975 206.419 28.5405C206.455 28.4511 206.525 28.3686 206.596 28.2999C206.624 28.2724 206.709 28.2793 206.758 28.2999C206.793 28.3136 206.836 28.3686 206.829 28.3961C206.815 28.513 206.793 28.623 206.758 28.733C206.525 29.3931 206.292 30.06 206.053 30.7201C205.933 31.0433 205.869 31.3733 205.926 31.7102C205.961 31.9646 206.031 32.2259 206.123 32.4734C206.215 32.7347 206.427 32.9066 206.688 33.0097C206.984 33.1266 207.238 33.0441 207.351 32.7484C207.471 32.4322 207.534 32.1021 207.626 31.779C207.647 31.6965 207.661 31.6002 207.704 31.5383C207.739 31.4902 207.831 31.4627 207.894 31.4627C207.93 31.4627 207.986 31.5383 208 31.5864C208.021 31.6552 208.014 31.7308 208.014 31.8065C207.993 32.439 207.887 33.0578 207.718 33.6629C207.647 33.9035 207.52 34.1236 207.365 34.3161C207.076 34.6667 206.786 34.7218 206.377 34.5017C205.989 34.2955 205.735 33.9792 205.594 33.5804C205.481 33.2649 205.397 32.7235 205.396 32.2362C205.396 32.2343 205.395 32.2328 205.393 32.2328Z" fill="#118AC9"/>
<path d="M192.546 5.86379C192.589 5.92567 192.638 5.96693 192.645 6.01506C192.709 6.72325 192.681 7.41769 192.37 8.07776C192.285 8.24965 192.187 8.41466 192.06 8.55905C191.77 8.88221 191.403 8.91659 191.065 8.64156C190.895 8.50405 190.747 8.32528 190.627 8.14651C190.373 7.7546 190.26 7.32143 190.232 6.86076C190.175 5.9738 190.31 5.10747 190.549 4.26176C190.768 3.47106 191.001 2.68723 191.234 1.90341C191.269 1.77964 191.326 1.65588 191.389 1.539C191.41 1.49774 191.509 1.44961 191.53 1.46336C191.587 1.49774 191.65 1.5665 191.65 1.6215C191.65 1.73839 191.615 1.8484 191.587 1.96529C191.396 2.76287 191.192 3.55357 191.008 4.35115C190.902 4.80494 190.825 5.26561 190.74 5.72628C190.669 6.13882 190.74 6.54448 190.909 6.92952C191.072 7.30768 191.333 7.47957 191.657 7.45207C191.975 7.42457 192.215 7.20455 192.321 6.82639C192.37 6.66137 192.384 6.4826 192.412 6.31071C192.433 6.17042 192.44 6.03014 192.544 5.88985C192.55 5.88228 192.551 5.87218 192.546 5.86379Z" fill="#118AC9"/>
<path d="M197.764 29.6773C197.763 29.6786 197.761 29.6775 197.761 29.6757C197.811 28.6261 198.029 27.7819 198.361 26.965C198.473 26.69 198.586 26.4218 198.706 26.1537C198.742 26.078 198.784 25.9955 198.847 25.9336C198.883 25.8993 198.967 25.8924 199.01 25.9061C199.052 25.9268 199.101 25.9955 199.094 26.0368C199.08 26.1537 199.045 26.2637 199.01 26.3737C198.798 26.9788 198.579 27.5838 198.368 28.1957C198.191 28.6977 198.212 29.1996 198.403 29.6946C198.495 29.9353 198.657 30.1209 198.897 30.2378C199.214 30.3891 199.468 30.3134 199.588 29.9972C199.68 29.7565 199.73 29.4884 199.8 29.2408C199.828 29.1308 199.857 29.0139 199.906 28.9108C199.927 28.8696 200.005 28.8352 200.054 28.8421C200.096 28.8421 200.153 28.9108 200.167 28.9521C200.188 29.0346 200.188 29.124 200.188 29.2133C200.167 29.729 200.082 30.2309 199.962 30.726C199.892 31.0148 199.765 31.276 199.567 31.5029C199.32 31.7848 199.066 31.8398 198.727 31.6748C198.346 31.4892 198.092 31.1935 197.951 30.8016C197.804 30.3846 197.775 29.9472 197.768 29.6786C197.768 29.6768 197.766 29.676 197.764 29.6773Z" fill="#118AC9"/>
<path d="M159.995 29.2623C159.994 29.2623 159.994 29.2633 159.994 29.2641C160.084 29.4351 160.028 29.5722 159.979 29.7092C159.866 30.0736 159.746 30.4312 159.633 30.7956C159.541 31.0844 159.541 31.3731 159.654 31.655C159.704 31.7719 159.774 31.8957 159.866 31.9851C160.226 32.3495 160.748 32.2807 160.988 31.8269C161.08 31.6482 161.129 31.4419 161.193 31.2494C161.235 31.1119 161.263 30.9675 161.313 30.83C161.317 30.8176 161.323 30.806 161.33 30.7948C161.381 30.717 161.546 30.7303 161.546 30.8231C161.588 31.4694 161.496 32.1088 161.27 32.7139C161.207 32.8927 161.108 33.0646 160.995 33.209C160.889 33.3465 160.755 33.4702 160.607 33.5665C160.198 33.8209 159.796 33.7521 159.485 33.3946C159.224 33.0989 159.097 32.7414 159.04 32.3564C158.984 32.0057 159.019 31.655 159.09 31.3113C159.196 30.7612 159.379 30.2387 159.605 29.7299C159.661 29.5992 159.739 29.4686 159.824 29.3517C159.858 29.3049 159.939 29.2906 159.996 29.2645C159.997 29.264 159.996 29.2623 159.995 29.2623Z" fill="#118AC9"/>
<path d="M172.739 1.31158C172.739 1.31207 172.739 1.31256 172.739 1.31303C172.767 1.44325 172.802 1.52561 172.802 1.60796C172.795 2.13739 172.753 2.65994 172.569 3.15499C172.506 3.33376 172.421 3.50565 172.315 3.66379C172.223 3.79443 172.111 3.91819 171.976 4.00757C171.574 4.29635 171.137 4.23447 170.826 3.84943C170.516 3.45064 170.382 2.98997 170.417 2.49493C170.438 2.17865 170.495 1.85549 170.586 1.54608C170.706 1.14042 170.862 0.748507 171.017 0.349718C171.066 0.232832 171.165 0.136572 171.25 0.0403123C171.264 0.0265609 171.306 0.0265609 171.334 0.0403123C171.355 0.047188 171.384 0.0815664 171.384 0.102193C171.384 0.191577 171.377 0.274084 171.348 0.356592C171.236 0.721003 171.123 1.08541 171.01 1.44295C170.918 1.71798 170.925 1.98613 171.024 2.25428C171.045 2.30928 171.066 2.36429 171.094 2.41242C171.243 2.63244 171.44 2.78371 171.722 2.76995C172.005 2.7562 172.202 2.59806 172.301 2.35054C172.379 2.14427 172.428 1.93112 172.499 1.72485C172.547 1.59662 172.541 1.44188 172.728 1.30617C172.732 1.30294 172.739 1.30609 172.739 1.31158Z" fill="#118AC9"/>
<path d="M151.642 14.6953C151.64 14.6931 151.639 14.69 151.639 14.6869C151.653 14.1723 151.766 13.5692 151.963 12.9866C152.104 12.5741 152.281 12.1684 152.45 11.7628C152.485 11.6803 152.528 11.6046 152.591 11.5428C152.619 11.5153 152.704 11.5153 152.754 11.529C152.782 11.5359 152.817 11.5978 152.817 11.6321C152.803 11.7353 152.775 11.8315 152.739 11.9278C152.549 12.471 152.358 13.0073 152.168 13.5436C152.013 13.9905 152.034 14.4374 152.21 14.8775C152.295 15.0906 152.443 15.2487 152.655 15.345C152.916 15.4619 153.142 15.3931 153.24 15.1319C153.332 14.8843 153.382 14.6231 153.452 14.3687C153.502 14.1693 153.586 14.0524 153.678 14.1005C153.812 14.1693 153.798 14.293 153.784 14.4099C153.734 14.8912 153.685 15.3725 153.551 15.8401C153.48 16.0876 153.36 16.3007 153.191 16.4864C153.001 16.6926 152.796 16.7339 152.542 16.6239C152.196 16.4726 151.956 16.2251 151.822 15.8744C151.71 15.5797 151.639 15.2031 151.646 14.7036C151.646 14.7005 151.644 14.6975 151.642 14.6953Z" fill="#118AC9"/>
<path d="M157.789 50.5633C157.787 50.5633 157.785 50.5617 157.785 50.5598C157.814 50.0653 157.92 49.448 158.131 48.8513C158.272 48.4525 158.441 48.0606 158.597 47.6687C158.625 47.5999 158.66 47.5311 158.71 47.483C158.745 47.4486 158.822 47.428 158.872 47.4486C158.914 47.4624 158.957 47.538 158.957 47.5793C158.942 47.6824 158.907 47.7787 158.872 47.8749C158.681 48.4112 158.491 48.9544 158.307 49.4907C158.159 49.9239 158.187 50.357 158.35 50.7765C158.434 51.0033 158.59 51.1752 158.83 51.2715C159.077 51.3746 159.288 51.3059 159.387 51.0652C159.479 50.8383 159.521 50.5908 159.592 50.3502C159.62 50.2539 159.648 50.1576 159.69 50.0683C159.729 49.9924 159.868 50.0162 159.902 50.0944C159.902 50.0948 159.902 50.0953 159.902 50.0958C159.923 50.1783 159.937 50.2677 159.93 50.3502C159.888 50.8315 159.825 51.3059 159.69 51.7734C159.62 52.0003 159.514 52.2066 159.352 52.3854C159.147 52.6123 158.942 52.6535 158.667 52.5297C158.321 52.3785 158.089 52.1241 157.962 51.7734C157.835 51.4236 157.778 51.0669 157.792 50.5668C157.792 50.5649 157.791 50.5633 157.789 50.5633Z" fill="#118AC9"/>
<path d="M149.567 28.3091C149.566 28.308 149.564 28.3087 149.563 28.3104C149.507 28.8108 149.451 29.2907 149.317 29.757C149.246 29.9839 149.14 30.1902 148.978 30.3689C148.773 30.5958 148.576 30.6371 148.294 30.5133C147.948 30.3621 147.715 30.1008 147.588 29.757C147.412 29.2757 147.376 28.7875 147.44 28.2856C147.524 27.598 147.694 26.938 147.962 26.2985C148.061 26.0716 148.152 25.8379 148.258 25.611C148.287 25.5491 148.336 25.4872 148.392 25.4391C148.421 25.4185 148.484 25.4116 148.519 25.4253C148.555 25.4391 148.597 25.4872 148.59 25.5216C148.576 25.6179 148.562 25.721 148.526 25.8173C148.336 26.3604 148.145 26.8967 147.955 27.433C147.8 27.88 147.814 28.3269 147.983 28.7669C148.054 28.9457 148.167 29.0969 148.343 29.2001C148.668 29.3926 148.929 29.3101 149.049 28.9663C149.126 28.7463 149.169 28.5125 149.225 28.2856C149.246 28.2031 149.282 28.1206 149.324 28.045C149.363 27.9691 149.496 27.9976 149.533 28.0742C149.534 28.0759 149.535 28.0776 149.536 28.0793C149.556 28.1594 149.563 28.2459 149.57 28.3075C149.57 28.3094 149.568 28.3105 149.567 28.3091Z" fill="#118AC9"/>
<path d="M188.707 23.5496C188.736 23.0958 188.827 22.4976 189.032 21.9338C189.18 21.5075 189.357 21.0881 189.533 20.6618C189.568 20.5862 189.625 20.5105 189.681 20.4487C189.702 20.428 189.766 20.4212 189.801 20.4349C189.836 20.4487 189.879 20.4968 189.872 20.5312C189.865 20.6274 189.844 20.7306 189.808 20.8268C189.618 21.3837 189.42 21.9338 189.23 22.4839C189.081 22.917 189.11 23.3502 189.265 23.7696C189.343 23.9827 189.484 24.1546 189.702 24.2509C189.985 24.3815 190.21 24.3128 190.323 24.024C190.408 23.7902 190.45 23.5427 190.521 23.3021C190.542 23.2195 190.57 23.137 190.613 23.0614C190.652 22.9855 190.801 23.004 190.824 23.0862C190.824 23.0871 190.824 23.088 190.824 23.0889C190.846 23.1577 190.86 23.2333 190.853 23.3021C190.81 23.8109 190.761 24.3197 190.592 24.8147C190.535 24.9935 190.436 25.1654 190.323 25.3166C190.083 25.6398 189.815 25.681 189.462 25.4748C189.18 25.3098 188.983 25.076 188.877 24.7734C188.75 24.4228 188.693 24.0653 188.707 23.5496Z" fill="#118AC9"/>
<path d="M205.911 40.2147C205.907 40.2147 205.904 40.2115 205.904 40.2076C205.912 39.6397 205.997 39.1194 206.165 38.6196C206.335 38.1177 206.532 37.6295 206.73 37.1413C206.758 37.0657 206.821 36.9901 206.878 36.9351C206.938 36.8767 207.085 36.9494 207.068 37.0313C207.061 37.1138 207.04 37.2032 207.012 37.2857C206.821 37.8426 206.624 38.3927 206.426 38.9428C206.299 39.3003 206.278 39.6578 206.377 40.0222C206.412 40.146 206.462 40.2698 206.518 40.3935C206.596 40.5585 206.73 40.6754 206.899 40.7511C207.174 40.8748 207.4 40.7923 207.52 40.5104C207.562 40.4004 207.598 40.2904 207.626 40.1735C207.661 40.0291 207.689 39.8847 207.725 39.7472C207.767 39.5684 207.845 39.4722 207.922 39.5066C208.049 39.5547 208.042 39.6578 208.042 39.761C208.021 40.2766 207.951 40.7786 207.809 41.2736C207.739 41.5143 207.612 41.7343 207.435 41.913C207.259 42.0918 207.054 42.1331 206.821 42.0368C206.455 41.8787 206.215 41.6174 206.081 41.253C205.947 40.9048 205.919 40.5498 205.918 40.2217C205.918 40.2179 205.915 40.2147 205.911 40.2147Z" fill="#118AC9"/>
<path d="M188.884 61.4328C188.884 61.4319 188.886 61.4318 188.886 61.4327C188.961 61.7599 188.919 62.0264 188.877 62.2997C188.87 62.3615 188.8 62.4303 188.743 62.4647C188.602 62.5472 188.454 62.6159 188.306 62.6778C187.984 62.8171 187.663 62.6194 187.726 62.2746C187.737 62.2137 187.749 62.1534 187.762 62.0934C187.776 62.0315 187.84 61.9628 187.896 61.9284C188.193 61.7359 188.503 61.571 188.884 61.4335C188.884 61.4334 188.884 61.4331 188.884 61.4328Z" fill="#118AC9"/>
<path d="M190.895 57.9071C190.895 57.9105 190.893 57.9133 190.889 57.9133C190.739 57.9127 190.605 57.8938 190.475 57.8639C190.253 57.8129 190.134 57.5753 190.197 57.3564C190.201 57.3404 190.206 57.3244 190.211 57.3084C190.269 57.1046 190.458 56.9585 190.665 57.003C190.687 57.0077 190.709 57.0128 190.731 57.0183C190.924 57.0667 191.067 57.2397 191.025 57.4345C190.992 57.5847 190.933 57.7357 190.896 57.9057C190.895 57.9062 190.895 57.9066 190.895 57.9071Z" fill="#118AC9"/>
</svg>
