<svg width="162" height="55" viewBox="0 0 162 55" fill="none" xmlns="http://www.w3.org/2000/svg">
<g clip-path="url(#clip0_10845_601)">
<path d="M93.3242 25.0667C93.0932 26.2419 92.327 27.0354 91.0711 27.371C90.606 27.495 90.5284 27.6758 90.4981 28.0283C90.2931 30.4798 89.2418 32.7423 87.9006 34.8978C86.3027 37.4616 83.7686 38.6509 80.6802 38.6544C77.7634 38.6568 76.2807 36.6746 76.9457 33.7949C77.1619 32.8381 77.499 31.9123 77.9489 31.0396C78.6385 29.7154 78.6206 29.7094 77.8941 28.2662C77.1356 29.1026 76.4025 29.9089 75.4152 30.4738C73.6428 31.4879 72.4936 31.0696 72.1903 29.2803C71.8982 27.5546 72.4042 25.8404 72.7248 24.1276C73.1361 21.9213 73.4668 19.7043 74.2401 17.5424C74.3547 17.2242 74.5048 16.9159 74.639 16.6029L74.9498 16.6581C74.701 18.0224 74.4467 19.387 74.2075 20.7524C73.9358 22.2976 73.6626 23.8429 73.4219 25.3903C73.3676 25.9841 73.4496 26.5823 73.6616 27.14C74.0769 28.5136 75.8896 29.1094 77.2037 27.7284C77.4934 27.4242 77.8273 27.1537 78.137 26.8641C78.5799 26.452 78.9787 26.2731 79.5482 26.6777C80.1766 27.122 80.7028 26.9149 81.1477 26.2188C81.9596 24.9159 83.0465 23.804 84.3332 22.96C84.983 22.5398 85.7004 22.2058 86.4088 22.586C87.2009 23.0117 86.7968 23.7371 86.5215 24.299C85.2356 26.9242 83.4258 29.0629 80.0694 29.6426C79.7701 29.6939 79.4051 29.6777 79.2459 30.0008C78.6619 31.1884 78.0107 32.3767 78.2305 33.6835C78.4527 35.0033 79.5631 35.7682 81.3495 35.9026C85.5221 36.218 89.2383 33.3029 89.5555 29.4792C89.6404 28.4596 89.5294 27.4362 89.8997 26.4201C90.09 25.896 90.3137 25.6214 91.0022 25.8091C91.9456 26.0669 92.6666 25.6613 93.142 24.8513C93.339 24.8263 93.4712 24.8466 93.3242 25.0667ZM56.6784 25.9256C56.5793 25.7823 56.3862 25.7873 56.2173 25.9154C55.5335 26.4361 54.5516 26.6969 54.0438 26.2834C53.2132 25.6072 52.8891 26.1345 52.4055 26.5907C51.7321 27.2272 51.0667 27.3867 50.42 26.6958C49.7613 25.9934 48.9854 26.0594 48.1333 26.5422C46.8142 27.2893 45.625 28.2433 44.6118 29.3676C44.3025 29.7092 44.1208 30.3836 43.5942 30.2911C42.9766 30.1839 42.7253 29.5543 42.5689 29.0226C42.4143 28.3628 42.4517 27.6729 42.6766 27.0335C42.8435 26.6416 42.8757 26.2059 42.7683 25.794C42.1053 26.6914 41.4832 27.6328 40.3869 27.3657C39.2025 27.076 39.0375 27.7212 38.845 28.4045C38.7381 28.9269 38.6698 29.4564 38.6407 29.9888C38.1568 33.7344 35.5195 36.3863 31.4603 37.2124C29.0348 37.7053 27.1731 36.5626 26.8426 34.4141C26.7023 33.4973 27.075 32.6811 27.4736 31.8461C28.1095 30.5144 29.1042 29.3131 29.6369 27.8031C29.3884 27.91 29.2467 27.9288 29.1964 27.9978C27.3894 30.4324 25.82 32.9569 25.3113 35.8364C24.9843 37.684 26.4784 39.5689 28.4737 39.9151C30.0265 40.1878 31.4983 39.7896 32.8918 39.0802C36.5043 37.2475 38.1106 34.2146 39.0841 30.8667C39.5765 29.1716 39.4909 29.1559 41.4283 28.7645C41.3689 29.2173 41.2858 29.6694 41.2529 30.1236C41.0675 32.6908 42.2712 33.6553 45.0742 33.1949C45.7944 33.0674 46.4597 32.7285 46.9847 32.2218C47.5096 31.7151 47.8701 31.0638 48.0197 30.3517C48.275 29.2391 46.9586 29.5561 46.4406 29.1322C46.3888 29.0902 46.2925 29.092 46.2324 29.0558C46.0316 28.9377 46.0658 28.8076 46.2004 28.6219C46.9086 27.6338 48.5817 27.2888 49.449 28.0246C50.2668 28.7155 51.0352 28.7143 51.8799 27.9443C52.1992 27.6524 52.5636 27.3725 53.03 27.5025C54.4768 27.9048 55.5038 27.2051 56.4603 26.2866C56.6481 26.2179 56.7921 26.092 56.6784 25.9256ZM73.044 34.5835C70.8417 36.2542 68.4536 37.4111 65.5848 37.1307C64.081 36.9842 62.9773 36.4523 62.5175 34.9898C62.0869 33.6233 62.527 32.4512 63.2122 31.2421C63.3427 30.9058 63.1648 30.8195 62.8357 30.8556C61.7619 32.0347 60.973 33.442 60.5292 34.9704C59.787 37.5059 61.1885 39.3731 64.0134 39.5484C68.0928 39.8034 71.2074 38.1352 73.5642 35.0324C73.6392 34.6511 73.4631 34.5041 73.044 34.5835ZM10.2174 38.2739C11.3471 37.3671 12.354 36.3189 13.2133 35.1552C14.5301 33.496 16.2789 32.7831 18.3971 32.7603C18.7843 32.7566 19.1921 32.7805 19.4944 32.4705C21.1917 30.721 23.4015 29.4195 24.8733 27.4744C25.0702 27.2123 25.4576 26.9392 25.3003 26.6368C25.1061 26.2647 24.6111 26.4737 24.2511 26.4952C23.266 26.5545 22.2668 26.9824 21.3026 26.5789C21.3915 26.206 21.2253 26.0559 20.8137 26.1202C20.5683 26.353 20.3377 26.6008 20.1232 26.8622C19.3876 27.876 19.6293 28.3256 20.9387 28.4331C21.4428 28.4745 21.9867 28.3219 22.5194 28.5259C21.5542 29.4225 20.6603 30.203 19.2739 29.8088C19.0394 29.7936 18.8044 29.829 18.585 29.9127C16.3879 30.4121 14.7454 31.6496 13.4237 33.2917C12.1934 34.8223 11.0953 36.437 9.69006 37.8561C9.44439 38.4206 9.78602 38.3923 10.2174 38.2739ZM99.6404 28.4605L98.6959 29.7058C98.4806 29.9901 98.4625 30.5259 98.0157 30.5017C97.5779 30.4775 97.4374 30.003 97.3149 29.6469C97.1482 29.0602 97.2027 28.4331 97.4682 27.8836C97.5722 27.6286 97.789 27.3816 97.4559 27.0068C96.6251 28.2429 96.1236 29.5702 95.1294 30.6602C94.1528 31.7308 92.6605 32.2943 91.8157 33.5053C92.8735 33.2861 93.9272 33.0375 94.7223 32.3604C95.4599 31.7312 95.8154 31.5076 96.2926 32.5071C96.7491 33.4609 98.1195 33.8025 99.2756 33.5238C99.9739 33.3245 100.603 32.9357 101.091 32.4011C101.58 31.8665 101.909 31.2072 102.043 30.497C102.222 29.3416 100.848 29.6909 100.338 29.1884C100.292 29.1422 100.205 29.1283 100.136 29.101C99.8269 28.9827 100.299 28.3468 99.6413 28.4606L99.6404 28.4605ZM102.358 26.9829C103.366 26.6508 104.379 26.3318 105.38 25.9833C106.079 25.7404 106.592 25.2343 106.508 24.6041C106.431 24.028 105.737 23.9546 105.142 23.8917C104.654 23.8406 104.086 24.045 103.589 23.6528C104.445 23.1249 105.421 22.8203 106.427 22.7673C108.184 22.6198 109.375 21.727 109.793 20.4111C110.07 19.5413 109.442 19.1113 108.917 18.6544C108.582 18.3638 108.113 17.9974 107.589 18.3382C106.813 18.8427 105.992 19.3371 105.602 20.1992C105.264 20.947 106.027 21.251 106.385 21.7912C104.667 22.213 103.071 23.0267 101.723 24.1679C101.497 24.3583 101.192 24.6043 101.295 24.8881C101.419 25.232 101.829 25.0291 102.115 25.0393C103.15 25.0763 104.238 24.6884 105.395 25.12C104.214 25.6728 103.099 25.9698 102.137 26.5739C102.042 26.7939 102.154 26.912 102.359 26.983L102.358 26.9829ZM67.9288 27.734C68.7288 27.3957 69.4805 26.9477 69.922 26.2013C70.2521 25.6442 70.2106 25.2218 69.4177 25.1704C68.654 25.1221 67.8868 25.0974 66.9103 25.052C68.9127 22.4639 68.2967 19.474 69.5758 16.7347C68.952 16.8746 68.8235 17.2903 68.5854 17.6054C67.2756 19.3426 67.021 21.2764 66.9276 23.2251C66.8875 24.0699 66.6413 24.7077 65.711 25.1604C65.3552 25.3107 65.0348 25.5332 64.7704 25.8136C64.5059 26.0941 64.3033 26.4263 64.1753 26.7891C65.5213 27.0192 66.9038 26.2932 68.3282 26.8339C66.1559 27.9402 64.1659 29.0321 62.8341 30.8567L63.2106 31.2432C64.4921 29.7292 66.1064 28.5286 67.9288 27.734ZM3.65159 33.715C4.38937 32.9972 5.11624 32.3115 6.2282 33.0346C6.37475 33.1295 6.68778 33.0613 6.91608 33.0178C8.61421 32.6909 10.5439 29.7766 10.0392 28.2735C9.93291 28.4023 9.82257 28.5115 9.74134 28.6335C8.83653 30.0045 8.81568 30.0086 7.20547 29.6619C6.8618 29.5613 6.49215 29.5989 6.17605 29.7666C4.54219 30.7834 3.77598 32.2746 3.28872 33.942C3.41752 33.8795 3.53918 33.8034 3.65159 33.715ZM49.6289 22.1319C49.7213 22.2026 49.8286 22.2517 49.9429 22.2752C50.0571 22.2988 50.1751 22.2963 50.2882 22.2679C50.4013 22.2395 50.5064 22.186 50.5957 22.1113C50.685 22.0367 50.7561 21.9429 50.8037 21.837C51.4338 20.8168 52.1635 20.7029 52.9555 21.5067C53.4302 21.9886 53.7756 21.8259 54.1357 21.3492C54.3177 21.1084 54.5183 20.8796 54.6999 20.6398C55.0895 20.1243 55.599 19.6074 54.6985 19.1654C53.9866 18.8171 53.3261 18.0332 52.5605 19.2748C52.2904 19.7126 51.9358 20.1456 51.2626 19.7066C50.7975 19.4034 50.3006 18.7908 49.613 19.5934C49.1702 20.1095 48.7144 20.6188 48.2188 21.1811C48.4859 21.7627 49.1626 21.8374 49.6289 22.1319ZM52.3483 35.3955C52.7014 34.9861 53.2099 34.4646 52.3472 34.1365C51.6933 33.8868 51.0609 32.8982 50.2626 34.0562C49.7537 34.7949 49.2726 34.8873 48.5977 34.3844C48.058 33.9827 47.5855 34.0835 47.2047 34.6983C47.032 34.9799 46.7474 35.2102 46.5636 35.4888C46.3764 35.7759 45.8566 36.1142 46.2198 36.3987C46.7372 36.8033 47.7008 37.4888 48.0028 37.2175C49.0376 36.2856 49.8526 35.4522 51.0119 36.7421C51.6851 36.3936 51.9602 35.8451 52.3483 35.3955ZM42.8258 35.2075C42.4224 34.983 42.1553 35.1502 41.8308 35.4705C41.4881 35.8093 41.2382 36.6445 40.5047 36.1058C39.3085 35.2271 38.6718 35.9318 38.0584 36.8432C37.8386 37.1701 37.2577 37.5234 37.5359 37.8426C37.9944 38.3693 38.7888 38.5678 39.4942 38.7808C39.9527 38.9189 40.1316 38.408 40.3085 38.1165C40.6559 37.5356 41.0186 37.4124 41.5926 37.7904C41.9364 38.0143 42.3975 38.423 42.8099 38.0297C43.3788 37.4894 43.7801 36.8049 44.2441 36.1954C43.997 35.5463 43.3172 35.4812 42.8258 35.2075ZM8.87761 23.1384C9.21692 22.27 8.6362 21.8146 7.95232 21.4793C7.23544 21.1254 6.9898 21.76 6.72045 22.1627C6.4042 22.6332 6.13495 22.7973 5.67086 22.3836C4.91158 21.705 4.30139 21.8902 3.83566 22.8002C3.65233 23.1611 3.38755 23.4925 3.22143 23.8572C2.93472 24.485 3.55935 24.6158 3.92636 24.8575C4.24334 25.0677 4.69563 25.4437 5.02106 24.9728C5.67707 24.0252 6.33318 23.7399 7.24576 24.497C7.26787 24.5166 7.31958 24.5087 7.42122 24.5211C8.22262 24.3802 8.6177 23.8107 8.87761 23.1384ZM21.0137 36.2887C21.3894 35.3399 20.3898 35.1335 19.8918 34.7484C19.4059 34.3724 19.2648 35.0787 18.9829 35.3162C18.6784 35.5747 18.583 36.1093 17.9436 35.6194C16.9393 34.8465 16.8113 34.9215 16.0398 36.0388C15.8472 36.315 15.6856 36.6059 15.4948 36.8819C15.4302 36.9463 15.3832 37.026 15.3583 37.1136C15.3335 37.2011 15.3317 37.2936 15.3531 37.382C15.3744 37.4705 15.4183 37.552 15.4804 37.6188C15.5425 37.6856 15.6208 37.7354 15.7078 37.7635C16.1407 37.9938 16.6028 38.6417 17.0689 38.2313C17.9288 37.4731 18.5816 36.5455 19.5139 37.864C20.4632 37.5624 20.7629 36.9248 21.0137 36.2887ZM56.8692 26.437C58.2582 27.3792 58.8172 27.3167 59.9794 26.0439C60.2511 25.7325 60.5039 25.4053 60.7366 25.064C62.5712 22.5065 62.7044 19.6069 63.4977 16.8169C63.0383 16.8125 62.9516 17.0853 62.8125 17.292C61.8178 18.7748 61.2307 20.4907 61.1098 22.2692C61.0027 23.6307 60.5933 24.8824 59.1271 25.6434C58.5279 25.9559 57.8283 26.2561 57.7125 25.2582C57.1659 24.7563 56.7299 25.1109 56.299 25.5001L56.2177 25.9144C56.4373 25.9583 56.5257 26.0784 56.4578 26.2867C56.6006 26.32 56.7388 26.3704 56.8692 26.437ZM59.2968 22.6581C58.8667 22.0276 57.098 21.9215 55.9366 22.4573C55.8237 22.491 55.7178 22.5447 55.6241 22.6159C55.2497 23.0396 54.7673 23.4417 54.5761 23.9197C54.4578 24.2177 55.1596 24.1975 55.3754 24.4829C55.6516 24.8446 55.9889 25.1651 56.2992 25.5029C56.7989 25.6428 57.2506 25.4097 57.7127 25.2609C59.0974 24.3314 59.73 23.2911 59.2963 22.6567L59.2968 22.6581ZM22.8297 39.6837C25.2675 36.3606 24.8401 32.6048 25.6236 29.0259C23.0871 32.342 23.7183 36.1209 22.8297 39.6837ZM23.1929 25.4235C26.2772 24.2402 28.1125 21.9982 29.604 19.4564C29.9157 18.923 30.7528 18.1901 30.1217 17.8151C29.688 17.5573 29.2219 18.5381 28.9347 19.0438C27.7073 21.2626 25.8219 23.0512 23.5354 24.1658C22.5057 24.6289 21.5803 25.2934 20.8145 26.1199L21.3034 26.5787C21.9315 26.1866 22.5132 25.6843 23.1929 25.4235ZM57.5674 27.8108C56.8303 28.9779 56.2391 30.1555 56.1339 31.5173C55.9958 33.3065 55.6498 35.0957 55.3935 36.8849C55.3162 37.4154 54.9827 37.9478 55.2811 38.6825C57.2505 35.2954 57.2064 31.8325 57.7653 28.4532C57.8134 28.2046 58.1349 27.8697 57.5674 27.8108ZM9.87864 33.8696C9.25205 33.6125 9.12253 34.2365 8.79933 34.5009C8.57059 34.6871 8.47155 35.2145 8.03964 34.8101C7.09592 33.9289 6.57251 34.485 6.05415 35.3341C5.70689 35.9004 5.40053 36.2964 6.17834 36.8111C6.95615 37.3257 7.25452 36.8891 7.66961 36.4546C7.97243 36.1368 8.22077 35.8323 8.67499 36.2516C8.97831 36.5318 9.3619 36.8891 9.87568 36.5095C10.1193 36.3546 10.3276 36.1508 10.4873 35.911C10.647 35.6713 10.7546 35.401 10.803 35.1175C10.8329 34.4257 10.4068 34.0869 9.87864 33.8696ZM51.6041 15.9241C50.9895 16.5377 50.2914 17.1701 49.9661 17.9C49.7726 18.3354 50.6827 18.4389 51.095 18.6871C51.4105 18.8771 51.8078 19.3292 52.1685 19.0097C52.7215 18.4608 53.229 17.8685 53.6863 17.2385C53.6681 16.7705 51.818 15.7091 51.6027 15.9246L51.6041 15.9241ZM32.3538 30.5254C32.0999 30.5178 30.6844 32.2608 30.6445 32.6305C30.6149 32.9066 32.0259 33.7842 32.4944 33.7793C32.8098 33.7764 34.057 32.2225 34.1172 31.7553C34.1528 31.485 32.7932 30.5368 32.3538 30.5254ZM83.5542 30.339C83.2221 30.3584 81.6782 32.0438 81.6868 32.3781C81.6911 32.5621 83.2871 33.5796 83.5551 33.5661C83.8908 33.5516 85.2309 31.9403 85.2297 31.5517C85.229 31.264 83.9243 30.3193 83.5542 30.339ZM91.7346 34.9767C91.4903 34.9905 89.8988 36.6688 89.8828 36.9289C89.8647 37.2042 91.3324 38.2243 91.6852 38.1842C91.9935 38.1481 93.4704 36.4908 93.4691 36.1797C93.4696 35.9305 92.0664 34.9564 91.7346 34.9767ZM22.3969 23.283C22.7968 23.4332 23.83 22.1672 23.8886 21.5147C23.9392 20.9625 23.0582 20.1156 22.454 20.1363C22.0188 20.1515 20.9082 21.5361 20.8266 22.2672C21.0138 22.8962 21.7745 23.05 22.3969 23.283ZM15.2501 21.7876C17.4403 21.6315 21.4779 18.2321 21.8611 16.3018C19.7667 18.1102 17.7398 19.9877 15.2501 21.7876ZM61.6355 15.7726C61.7679 15.358 61.8713 14.8757 61.4095 14.6271C60.845 14.3229 60.4728 14.7939 60.1234 15.1247C59.774 15.4555 59.2841 15.853 59.8583 16.2732C60.4659 16.7173 60.1819 17.0529 59.7512 17.4819C59.1272 18.1056 58.3267 18.5132 57.4938 19.0498C59.0302 19.0296 61.138 17.3164 61.6355 15.7726ZM84.9132 18.2205C85.1599 18.1245 85.4576 17.9286 85.3241 17.6564C85.1652 17.3313 84.8221 17.5878 84.6183 17.67C82.8744 18.371 81.1476 19.1129 79.4029 19.8185C78.9985 19.9822 78.7372 20.2009 78.5754 20.8366C80.7689 19.8018 82.8458 19.0221 84.9132 18.2205ZM13.765 26.6166C14.1571 26.5711 14.5262 26.4092 14.8244 26.1521C15.342 25.6545 15.8288 25.0542 15.2879 24.4732C14.7286 23.8725 13.9594 24.1607 13.2768 24.555C12.9763 24.7293 12.8005 25.0227 12.9036 25.2889C13.0408 25.6421 13.3549 25.3319 13.5901 25.2867C13.9579 25.2155 14.3727 25.1892 14.4778 25.5364C14.5748 25.8609 14.1462 25.9794 13.8803 26.1207C13.7046 26.202 13.5238 26.2717 13.3389 26.3294C13.2181 26.7327 13.5641 26.5905 13.765 26.6166ZM104.042 16.5214C102.213 17.2571 100.215 17.7167 98.9297 19.27C100.533 18.1754 102.771 18.0894 104.042 16.5222L104.042 16.5214ZM91.0095 18.885C92.1362 18.572 93.2428 18.2172 93.976 17.2164C94.1141 17.027 94.3532 16.7916 94.0377 16.5886C93.3556 16.1498 92.0183 16.5817 91.5695 17.4212C92.049 17.3912 92.5645 17.1532 93.0113 17.5693L90.8952 18.6101L91.0095 18.885ZM5.71217 40.7723C7.16337 40.5536 8.83343 39.5977 10.2183 38.2737C10.104 38.2486 9.99707 38.1978 9.90561 38.1252C9.81416 38.0526 9.74063 37.9602 9.69067 37.855L5.71217 40.7723ZM105.031 33.6336C104.818 34.1726 103.523 34.7118 104.844 35.248C105.629 35.5668 107.255 34.9711 107.989 34.1621C107.25 34.2746 106.573 34.3893 105.894 34.4775C105.428 34.5377 105.023 34.4848 105.048 33.9326C105.152 33.8222 105.146 33.7221 105.031 33.6336ZM31.6349 19.0501C31.0033 19.946 30.4425 20.8566 30.6346 21.9611C30.6814 22.2308 30.7911 22.4455 31.1266 22.4091C31.2972 22.3782 31.4556 22.3 31.5835 22.1837C31.7115 22.0673 31.8038 21.9174 31.85 21.7512C31.9041 21.6278 32.1492 21.4045 31.7481 21.3976C30.9015 21.385 31.2525 20.8703 31.3732 20.4958C31.5203 20.0371 31.733 19.5907 31.9192 19.1363L31.6349 19.0501ZM101.202 21.4129C100.688 21.6187 100.095 21.2347 99.58 21.8378C99.2503 22.2239 99.1812 21.5398 98.9271 21.3471C98.6427 21.9369 98.2554 22.7851 98.9721 22.669C99.6574 22.5584 100.823 22.7998 101.238 21.7693C101.262 21.7451 101.281 21.7157 101.293 21.6835C101.304 21.6512 101.308 21.6168 101.305 21.5827C101.301 21.5486 101.29 21.5157 101.273 21.4863C101.255 21.457 101.231 21.4319 101.202 21.4129ZM2.89052 29.4608C2.89856 29.5333 2.9214 29.6034 2.95762 29.6669C2.99385 29.7303 3.04271 29.7857 3.10121 29.8297C3.15972 29.8737 3.22663 29.9053 3.29786 29.9227C3.36909 29.9401 3.44313 29.9428 3.51547 29.9308C3.69121 29.9385 3.86476 29.8896 4.01029 29.7913C4.15582 29.693 4.26554 29.5506 4.32312 29.3853C4.48028 28.8658 4.01022 29.2011 3.82596 29.1444C3.45244 29.033 3.59056 28.7467 3.64407 28.5264C3.76895 28.022 4.18332 27.6594 4.78797 27.0826C3.60368 27.5962 2.7614 28.7859 2.89052 29.4608ZM42.2937 20.1435C42.8413 19.8555 43.2311 19.4681 43.2457 18.8803C43.2534 18.5777 42.9657 18.6345 42.7453 18.6217C41.9705 18.575 41.2805 18.6823 40.9604 19.5064C41.3404 19.4983 41.7154 19.4725 42.0842 19.485C42.3865 19.4944 42.3836 19.5147 42.0347 19.946C42.0056 20.1315 42.0275 20.2645 42.2935 20.1439L42.2937 20.1435ZM106.048 32.7844C106.348 32.4431 106.92 32.0211 106.157 31.764C105.551 31.5598 104.759 31.4162 104.237 32.0704C103.952 32.4294 104.195 32.6938 104.675 32.5766C105.129 32.4663 105.505 32.4731 105.812 32.7827C105.879 32.9149 105.957 32.9143 106.048 32.7844ZM99.6413 28.4606L100.136 29.1004C100.008 28.7068 100.273 28.4616 100.563 28.19C101.093 27.6938 101.757 27.3809 102.358 26.9829L102.137 26.5751C101.163 26.9927 100.307 27.6399 99.6413 28.4606ZM75.0096 32.5612C74.4156 33.2997 73.6611 33.8905 73.044 34.5835L73.5635 35.0332C74.2469 34.2948 74.8215 33.5105 75.0096 32.5612ZM105.03 33.6336L105.046 33.9329C105.458 33.6037 105.974 33.3452 106.047 32.7832L105.813 32.781L105.03 33.6336ZM12.911 26.5428C13.0847 26.876 13.4538 26.7041 13.765 26.6166L13.3391 26.33C13.1391 26.3166 12.8432 26.4143 12.911 26.5428ZM41.3311 20.5649C41.5116 20.5619 41.6897 20.523 41.8549 20.4505C42.02 20.3781 42.169 20.2734 42.2928 20.1428L42.0336 19.9445C41.7637 20.0782 41.388 20.1165 41.3311 20.5649ZM57.8811 27.6525C57.7855 27.5511 57.6205 27.658 57.5665 27.8098L57.7641 28.4523C57.9357 28.1916 58.1225 27.9106 57.882 27.6535L57.8811 27.6525ZM101.637 20.9133C101.519 20.9365 101.412 20.9982 101.333 21.0888C101.254 21.1793 101.208 21.2934 101.202 21.4129L101.238 21.7693C101.477 21.5243 101.728 21.2811 101.637 20.9133ZM81.9137 26.7538C83.1995 26.5384 84.2226 25.7778 84.9467 24.4453C84.2884 24.5504 83.6667 24.8165 83.1374 25.2197C82.6081 25.6228 82.1877 26.1503 81.914 26.755L81.9137 26.7538ZM46.3954 31.4727C46.3182 31.4728 46.2168 31.5745 46.1627 31.6495C46.1382 31.6831 46.2076 31.8182 46.2339 31.8169C46.3259 31.8021 46.416 31.7773 46.5025 31.7428C46.572 31.5751 46.5206 31.4722 46.3954 31.4727ZM28.5043 38.9591C28.4091 38.9656 28.3151 38.9835 28.2242 39.0124C28.2487 39.065 28.2624 39.1543 28.3004 39.1602C28.4006 39.1648 28.501 39.1569 28.5993 39.1366C28.5563 39.0544 28.5356 38.96 28.5033 38.9597L28.5043 38.9591ZM51.1161 27.8776C51.0581 27.8528 50.9762 27.794 50.9452 27.8124C50.8747 27.8646 50.8122 27.9269 50.7598 27.9971L50.9689 28.0893L51.1161 27.8776ZM21.4839 27.5492C21.5266 27.5444 21.5633 27.4648 21.6027 27.4175C21.5394 27.3929 21.4729 27.344 21.4121 27.3517C21.3698 27.3567 21.3314 27.439 21.2899 27.4897C21.3554 27.5136 21.4216 27.5589 21.4839 27.5492ZM39.3326 36.1946C39.2573 36.1905 39.1692 36.2811 39.0867 36.3299C39.1479 36.3936 39.1964 36.4949 39.2737 36.5102C39.3511 36.5255 39.4447 36.4457 39.5839 36.3857C39.4733 36.2962 39.4094 36.1993 39.3334 36.1972L39.3326 36.1946Z" fill="#352724"/>
<mask id="mask0_10845_601" style="mask-type:luminance" maskUnits="userSpaceOnUse" x="116" y="0" width="47" height="55">
<path d="M162.058 0.736328H116.873V54.8725H162.058V0.736328Z" fill="white"/>
</mask>
<g mask="url(#mask0_10845_601)">
<path fill-rule="evenodd" clip-rule="evenodd" d="M131.143 2.89214C128.014 18.1092 126.189 36.8163 125.969 53.224C127.841 52.7895 129.758 52.5776 131.681 52.5926C131.666 45.1483 131.91 37.1442 132.565 28.6581C133.188 20.5917 134.113 12.5908 135.268 5.11831C134.725 4.88629 134.157 4.62163 133.571 4.31899C132.736 3.88779 131.925 3.41136 131.143 2.89185" fill="#4B3834"/>
<path fill-rule="evenodd" clip-rule="evenodd" d="M123.598 5.13531C120.196 20.9404 118.045 34.1327 116.873 50.3929C118.412 49.9938 119.999 49.8106 121.589 49.8485C122.056 35.2011 123.916 23.1221 126.983 7.35287C126.41 7.09228 125.857 6.79145 125.327 6.45267C124.715 6.0614 124.137 5.6207 123.597 5.13501" fill="#6E514C"/>
<path fill-rule="evenodd" clip-rule="evenodd" d="M156.624 52.6458L156.439 52.6544L156.087 52.6811C149.561 53.0591 143.061 53.7906 136.616 54.8725C136.546 52.6897 136.503 50.4374 136.484 48.14V43.0035C136.6 28.7243 137.621 13.3053 139.34 0.736328C141.696 2.48871 144.142 4.11832 146.667 5.61858C149.266 7.16144 151.755 8.45388 154.068 9.53506C153.646 21.4922 154.376 35.7636 156.086 48.8233C156.201 49.6645 156.315 50.5059 156.439 51.3471C156.5 51.7767 156.562 52.2152 156.624 52.6449" fill="#352724"/>
<path fill-rule="evenodd" clip-rule="evenodd" d="M160.085 43.6115C159.179 43.1934 158.188 42.9873 157.189 43.0092C156.765 43.0207 156.344 43.0744 155.931 43.1698L155.323 36.5444C156.653 36.3629 158.002 36.6866 159.101 37.4508C159.429 39.5042 159.757 41.5577 160.086 43.6113" fill="#4B3834"/>
<path fill-rule="evenodd" clip-rule="evenodd" d="M158.035 25.5813C157.831 25.3951 157.606 25.2316 157.366 25.0938C156.555 24.6504 155.62 24.4818 154.704 24.6135C154.643 22.3453 154.582 20.077 154.521 17.8086C154.759 17.8653 155.142 17.9569 155.618 18.0741C156.717 18.3438 157.089 18.4468 157.443 18.7684C157.589 18.902 157.715 19.056 157.816 19.2256C157.808 20.1332 157.818 21.0698 157.846 22.0354C157.882 23.2644 157.948 24.4473 158.036 25.5816" fill="#4B3834"/>
<path fill-rule="evenodd" clip-rule="evenodd" d="M157.207 52.7593C156.799 49.7361 156.392 46.7129 155.985 43.6897C157.421 43.4147 158.906 43.5837 160.242 44.1739L162.058 52.6893C160.464 53.0578 158.81 53.0813 157.206 52.7581" fill="#4B3834"/>
<path fill-rule="evenodd" clip-rule="evenodd" d="M159.002 36.837C157.881 36.1182 156.53 35.8415 155.215 36.0611C155.106 34.382 155.009 32.6787 154.925 30.9513C154.832 29.0285 154.757 27.1337 154.701 25.2671C155.283 25.1917 155.875 25.2405 156.436 25.4104C156.998 25.5804 157.517 25.8674 157.958 26.2524C158.113 27.7419 158.265 29.2372 158.415 30.7383C158.618 32.7806 158.813 34.8135 159.002 36.837Z" fill="#4B3834"/>
<path fill-rule="evenodd" clip-rule="evenodd" d="M157.992 12.1704C157.93 13.0202 157.894 15.3671 157.865 18.6243C157.721 18.4611 157.557 18.316 157.378 18.1923C157.009 17.938 156.674 17.8478 155.933 17.6772C155.366 17.5467 154.88 17.4419 154.499 17.3627C154.521 14.7207 154.544 12.0785 154.567 9.43628C155.375 9.87481 156.029 10.2021 156.479 10.421C157.225 10.7848 157.72 11.0441 157.916 11.5725C157.985 11.7639 158.011 11.9681 157.991 12.1704" fill="#4B3834"/>
<path d="M146.483 18.7798C146.492 18.808 146.512 18.8319 146.537 18.8473C146.563 18.8627 146.594 18.8685 146.623 18.8637C146.687 18.8465 146.743 18.8057 146.778 18.7495C146.814 18.6931 146.836 18.6287 146.841 18.562C146.853 18.4433 146.871 18.3246 146.893 18.2083C146.904 18.1543 146.927 18.1083 146.942 18.0564C146.947 18.0414 146.955 18.0272 146.964 18.0143C146.993 17.9648 147.022 17.9154 147.051 17.8659C147.058 17.8549 147.065 17.8363 147.081 17.8469C147.096 17.8576 147.085 17.8766 147.084 17.8888C147.083 17.8985 147.08 17.908 147.076 17.917C147.043 18.018 147.02 18.122 147.008 18.2276C146.994 18.3407 146.968 18.4519 146.93 18.5593C146.913 18.6026 146.89 18.6415 146.87 18.683C146.851 18.7246 146.834 18.7593 146.816 18.7976C146.785 18.8675 146.737 18.9284 146.676 18.9741C146.649 18.9912 146.618 19.0034 146.587 19.0103C146.576 19.013 146.564 19.0129 146.554 19.0102C146.543 19.0075 146.533 19.0021 146.524 18.9946C146.472 18.9577 146.431 18.9077 146.405 18.8498C146.403 18.8459 146.4 18.8422 146.397 18.8388C146.385 18.8474 146.371 18.8554 146.36 18.8649C146.305 18.9012 146.246 18.93 146.184 18.9504C146.164 18.9558 146.142 18.9561 146.121 18.9513C146.1 18.9466 146.081 18.9369 146.065 18.9231C146.046 18.9114 146.029 18.898 146.012 18.883C145.999 18.8715 145.99 18.8712 145.979 18.8789C145.949 18.898 145.918 18.9139 145.885 18.926C145.858 18.937 145.83 18.9434 145.801 18.945C145.774 18.9452 145.747 18.9366 145.725 18.9206C145.704 18.9045 145.687 18.8819 145.68 18.856C145.674 18.843 145.67 18.8293 145.666 18.8163C145.648 18.764 145.62 18.7391 145.576 18.7356C145.537 18.7319 145.497 18.7388 145.462 18.7557C145.418 18.778 145.376 18.8034 145.336 18.8317C145.31 18.8489 145.311 18.859 145.336 18.8863C145.351 18.9011 145.368 18.9139 145.386 18.9243C145.43 18.9507 145.471 18.9812 145.509 19.0154C145.526 19.0263 145.537 19.0432 145.542 19.0626C145.546 19.082 145.543 19.1023 145.532 19.1192C145.495 19.186 145.455 19.2512 145.416 19.3168C145.404 19.3374 145.386 19.3545 145.366 19.3667C145.345 19.3788 145.321 19.3857 145.297 19.3865C145.241 19.3934 145.185 19.3904 145.131 19.3776C145.055 19.3597 144.988 19.3193 144.937 19.2618C144.885 19.2043 144.853 19.1326 144.844 19.0563C144.826 18.9716 144.827 18.8839 144.848 18.7997C144.857 18.7468 144.87 18.6947 144.887 18.6436C144.888 18.6415 144.888 18.6393 144.888 18.6371C144.887 18.6349 144.886 18.633 144.884 18.6314C144.876 18.627 144.874 18.6359 144.869 18.6403C144.846 18.667 144.814 18.6856 144.779 18.6933C144.745 18.701 144.708 18.6975 144.676 18.6833C144.659 18.6768 144.651 18.6792 144.648 18.7006C144.64 18.7599 144.631 18.8175 144.618 18.8744C144.6 18.9548 144.574 19.033 144.539 19.1076C144.534 19.1171 144.529 19.127 144.526 19.1373C144.508 19.2034 144.48 19.2665 144.443 19.3242C144.424 19.3554 144.413 19.3922 144.39 19.4212C144.3 19.5576 144.178 19.6697 144.034 19.7476C143.9 19.8164 143.747 19.8373 143.599 19.807C143.476 19.7733 143.367 19.7015 143.287 19.602C143.208 19.5026 143.162 19.3806 143.157 19.2536C143.152 19.1389 143.167 19.0242 143.203 18.9151C143.231 18.8213 143.267 18.7302 143.311 18.6427C143.347 18.5718 143.39 18.5065 143.43 18.4403C143.478 18.3641 143.53 18.292 143.579 18.2169C143.588 18.2042 143.599 18.194 143.613 18.1873C143.62 18.184 143.626 18.1822 143.633 18.1905C143.635 18.1932 143.636 18.1965 143.636 18.1999C143.636 18.2034 143.636 18.2068 143.634 18.2098C143.621 18.2448 143.605 18.2789 143.587 18.3116C143.568 18.3412 143.551 18.3727 143.534 18.4036C143.494 18.4745 143.452 18.5436 143.409 18.6112C143.348 18.7095 143.312 18.8219 143.307 18.9376C143.3 19.0525 143.332 19.1664 143.397 19.2616C143.44 19.3232 143.494 19.3762 143.557 19.418C143.632 19.4703 143.722 19.499 143.814 19.5005C143.992 19.5115 144.168 19.4543 144.305 19.3405C144.392 19.2635 144.458 19.1665 144.498 19.0581C144.537 18.9497 144.564 18.8371 144.576 18.7225C144.584 18.6652 144.59 18.6071 144.603 18.5516C144.608 18.5137 144.623 18.4777 144.646 18.4466C144.665 18.4249 144.674 18.4273 144.692 18.4576C144.702 18.4715 144.716 18.4819 144.732 18.4872C144.76 18.5009 144.792 18.5063 144.823 18.5028C144.855 18.4992 144.884 18.4868 144.909 18.467C144.939 18.4454 144.964 18.4169 144.981 18.384C144.989 18.3677 144.998 18.3368 145.021 18.3543C145.039 18.3665 145.021 18.3899 145.021 18.4101C145.021 18.4227 145.018 18.4351 145.011 18.4457C144.977 18.5169 144.96 18.5945 144.961 18.673C144.958 18.7847 144.998 18.8931 145.074 18.9759C145.092 18.9958 145.093 18.9967 145.106 18.9759C145.155 18.8992 145.218 18.8319 145.291 18.7771C145.379 18.7024 145.481 18.6447 145.591 18.6071C145.613 18.6005 145.637 18.5978 145.66 18.5991C145.682 18.6018 145.702 18.611 145.719 18.6254C145.735 18.6398 145.746 18.6588 145.751 18.6798C145.756 18.6958 145.76 18.7118 145.764 18.7281C145.779 18.7937 145.815 18.821 145.867 18.8219C145.886 18.8222 145.905 18.8183 145.923 18.8104C145.941 18.8025 145.957 18.7908 145.97 18.7762C145.992 18.7482 146.018 18.7234 146.047 18.7023C146.057 18.6964 146.067 18.6909 146.077 18.686C146.08 18.6845 146.084 18.684 146.088 18.6848C146.091 18.6855 146.094 18.6874 146.097 18.6902C146.099 18.6933 146.101 18.6969 146.102 18.7009C146.102 18.7048 146.102 18.7089 146.101 18.7127C146.099 18.7284 146.083 18.74 146.096 18.7602C146.108 18.7797 146.125 18.7954 146.145 18.8056C146.175 18.8232 146.211 18.8289 146.245 18.8216C146.283 18.8119 146.32 18.7988 146.356 18.7824C146.379 18.7706 146.38 18.7667 146.366 18.7347C146.335 18.6696 146.299 18.6074 146.257 18.5489C146.242 18.5276 146.224 18.5089 146.199 18.5154C146.191 18.5178 146.183 18.5133 146.179 18.5029C146.176 18.499 146.176 18.4944 146.176 18.4899C146.176 18.4853 146.178 18.481 146.181 18.4774C146.221 18.4181 146.26 18.3587 146.332 18.3454C146.402 18.329 146.475 18.3347 146.541 18.3617C146.567 18.3735 146.592 18.3879 146.615 18.4047C146.641 18.424 146.66 18.4507 146.67 18.4814C146.68 18.512 146.681 18.5449 146.671 18.5756C146.646 18.6514 146.594 18.715 146.524 18.7537C146.516 18.7584 146.508 18.7614 146.501 18.7655C146.493 18.7697 146.486 18.7688 146.482 18.7774" fill="white"/>
<path d="M148.545 19.9526C148.527 19.9323 148.512 19.9084 148.504 19.8823C148.495 19.8562 148.491 19.8285 148.494 19.801C148.496 19.7784 148.491 19.7555 148.48 19.7357C148.473 19.7245 148.465 19.7191 148.454 19.7209C148.444 19.7219 148.433 19.7252 148.424 19.7307C148.415 19.7362 148.407 19.7437 148.402 19.7527C148.374 19.7945 148.346 19.8363 148.317 19.8773C148.288 19.9204 148.249 19.956 148.204 19.9811C148.175 19.9961 148.143 20.0017 148.111 19.9971C148.077 19.9922 148.046 19.975 148.025 19.9488C147.968 19.8843 147.931 19.805 147.918 19.7203C147.905 19.6233 147.907 19.525 147.922 19.4284C147.934 19.3287 147.948 19.2305 147.963 19.1317C147.977 19.045 147.993 18.9599 148.005 18.8732C148.025 18.7421 148.047 18.6119 148.069 18.4828C148.081 18.4253 148.097 18.3689 148.119 18.3142C148.13 18.2846 148.137 18.2525 148.146 18.2217C148.151 18.2065 148.155 18.1813 148.172 18.1896C148.188 18.1979 148.179 18.222 148.177 18.2371C148.163 18.3389 148.147 18.4406 148.13 18.5424C148.11 18.6685 148.089 18.7943 148.071 18.9216C148.059 19.0047 148.052 19.0901 148.043 19.1744C148.038 19.2222 148.033 19.2702 148.031 19.3198C148.027 19.4361 148.063 19.5504 148.133 19.6435C148.152 19.6787 148.183 19.7056 148.221 19.7188C148.258 19.7321 148.3 19.7307 148.337 19.715C148.373 19.6963 148.404 19.6702 148.43 19.6384C148.458 19.6026 148.495 19.5747 148.537 19.5571C148.567 19.5465 148.588 19.5571 148.605 19.5963C148.611 19.6107 148.621 19.6234 148.633 19.6334C148.644 19.642 148.655 19.6494 148.667 19.6556C148.716 19.6809 148.716 19.6812 148.741 19.6364C148.802 19.5242 148.883 19.4237 148.98 19.3396C149.02 19.3033 149.069 19.2766 149.121 19.2613C149.138 19.2548 149.156 19.2522 149.174 19.2539C149.193 19.2556 149.21 19.2615 149.226 19.2711C149.252 19.2882 149.273 19.3133 149.284 19.3427C149.296 19.3722 149.297 19.4045 149.289 19.4349C149.251 19.5813 149.177 19.7158 149.073 19.8256C149.006 19.8977 148.92 19.9493 148.825 19.974C148.799 19.983 148.772 19.9905 148.745 19.9963C148.697 20.0031 148.649 19.9965 148.605 19.9773C148.602 19.9754 148.599 19.9742 148.596 19.9737C148.593 19.9732 148.59 19.9735 148.587 19.9745C148.584 19.9755 148.582 19.9772 148.58 19.9794C148.577 19.9817 148.576 19.9844 148.575 19.9874C148.513 20.101 148.478 20.2269 148.471 20.3559C148.466 20.4283 148.479 20.5008 148.508 20.5675C148.537 20.6342 148.581 20.6932 148.637 20.7398C148.712 20.8052 148.804 20.8489 148.902 20.8662C148.971 20.8797 149.043 20.8792 149.112 20.8646C149.181 20.85 149.247 20.8217 149.304 20.7813C149.397 20.7173 149.465 20.6246 149.499 20.5179C149.544 20.3821 149.564 20.2394 149.558 20.0965C149.559 20.0779 149.561 20.0594 149.564 20.0411C149.567 19.9889 149.573 19.937 149.584 19.8859C149.591 19.8587 149.604 19.8334 149.622 19.8114C149.631 19.7998 149.642 19.7966 149.653 19.8156C149.662 19.8297 149.676 19.8402 149.692 19.8452C149.717 19.8565 149.743 19.863 149.77 19.8642C149.796 19.8648 149.821 19.8568 149.841 19.8414C149.861 19.8261 149.876 19.8043 149.882 19.7797C149.891 19.7574 149.898 19.7331 149.906 19.7105C149.91 19.6967 149.917 19.6842 149.928 19.674C149.932 19.6699 149.939 19.6699 149.945 19.6776C149.946 19.6801 149.947 19.683 149.947 19.6861C149.947 19.6891 149.946 19.692 149.945 19.6945C149.927 19.7604 149.903 19.8248 149.875 19.8871C149.86 19.9314 149.829 19.969 149.789 19.9931C149.748 20.0172 149.7 20.0263 149.654 20.0188C149.64 20.0167 149.632 20.0206 149.632 20.0387C149.632 20.0452 149.632 20.0514 149.632 20.0577C149.626 20.2278 149.592 20.3958 149.533 20.5555C149.508 20.6359 149.477 20.7144 149.441 20.7905C149.423 20.8279 149.406 20.8659 149.385 20.9006C149.346 20.9686 149.293 21.0277 149.229 21.0741C149.166 21.1206 149.093 21.1535 149.016 21.1706C148.893 21.1954 148.764 21.1779 148.652 21.1211C148.627 21.1097 148.603 21.095 148.582 21.0774C148.54 21.0431 148.501 21.005 148.467 20.9635C148.4 20.8774 148.361 20.7729 148.355 20.6641C148.347 20.5385 148.363 20.4124 148.403 20.293C148.427 20.2145 148.456 20.1375 148.489 20.0624C148.505 20.0247 148.525 19.9897 148.544 19.9515M148.756 19.6791C148.799 19.6954 148.844 19.7029 148.89 19.7011C148.936 19.6994 148.981 19.6883 149.022 19.6687C149.081 19.6429 149.131 19.6019 149.168 19.55C149.179 19.5278 149.182 19.5019 149.174 19.4779C149.167 19.4539 149.15 19.4338 149.128 19.4218C149.103 19.4098 149.075 19.4045 149.047 19.4064C149.019 19.4084 148.992 19.4175 148.969 19.4328C148.908 19.4746 148.856 19.5275 148.815 19.5886C148.792 19.6174 148.772 19.6482 148.755 19.6806" fill="white"/>
<path d="M147.402 19.0331L147.482 19.0515C147.541 19.063 147.599 19.0823 147.653 19.1088C147.662 19.1132 147.67 19.1187 147.678 19.1251C147.724 19.1652 147.726 19.1782 147.702 19.2286C147.685 19.2657 147.66 19.2985 147.628 19.3247C147.597 19.3509 147.56 19.3698 147.52 19.38C147.429 19.4003 147.341 19.435 147.26 19.4829C147.183 19.5322 147.115 19.5953 147.061 19.669C147.005 19.7444 146.966 19.8306 146.945 19.922C146.93 19.9995 146.932 20.0791 146.949 20.156C146.967 20.2329 147.001 20.3053 147.048 20.3686C147.098 20.4353 147.164 20.4881 147.24 20.522C147.36 20.5825 147.496 20.6033 147.628 20.5813C147.773 20.5545 147.908 20.4912 148.021 20.3977C148.064 20.3606 148.103 20.318 148.136 20.271C148.149 20.2541 148.161 20.2365 148.173 20.2193C148.176 20.2148 148.18 20.2106 148.184 20.2069C148.187 20.205 148.191 20.2042 148.194 20.2047C148.197 20.2052 148.2 20.2069 148.203 20.2095C148.211 20.2167 148.207 20.2235 148.205 20.2303C148.199 20.2464 148.19 20.2614 148.18 20.2751C148.123 20.3816 148.053 20.4804 147.971 20.5692C147.917 20.6271 147.857 20.6788 147.792 20.7231C147.777 20.7324 147.762 20.7406 147.747 20.7478C147.652 20.797 147.55 20.8325 147.445 20.8531C147.333 20.8657 147.22 20.849 147.116 20.8047C147.035 20.7712 146.963 20.7197 146.905 20.6543C146.866 20.6106 146.836 20.5603 146.815 20.506C146.776 20.4119 146.757 20.311 146.757 20.2092C146.762 20.0871 146.796 19.9679 146.858 19.8624C146.908 19.7685 146.967 19.6791 147.033 19.5954C147.074 19.5466 147.121 19.5033 147.174 19.4666C147.227 19.4218 147.287 19.3846 147.351 19.3559C147.395 19.3384 147.44 19.3263 147.486 19.3114C147.507 19.3064 147.526 19.2968 147.542 19.2832C147.553 19.274 147.551 19.2654 147.54 19.2536C147.525 19.2369 147.506 19.2237 147.485 19.215C147.423 19.1932 147.358 19.1779 147.292 19.1693C147.252 19.1657 147.211 19.1652 147.17 19.1634C147.165 19.1641 147.159 19.1641 147.154 19.1634C147.15 19.1629 147.147 19.1615 147.144 19.1594C147.141 19.1572 147.139 19.1543 147.138 19.1511C147.136 19.1478 147.136 19.1442 147.136 19.1407C147.137 19.1372 147.138 19.1338 147.14 19.131C147.173 19.0954 147.196 19.0474 147.238 19.023C147.263 19.0045 147.292 18.9905 147.323 18.9818C147.327 18.9818 147.331 18.9791 147.335 18.9779C147.353 18.9725 147.369 18.9617 147.38 18.947C147.392 18.9323 147.399 18.9144 147.4 18.8957C147.405 18.8554 147.413 18.8159 147.415 18.775C147.42 18.6898 147.426 18.605 147.438 18.5228C147.446 18.4369 147.465 18.3525 147.495 18.2718C147.501 18.2565 147.507 18.2416 147.515 18.2273C147.555 18.1653 147.593 18.1006 147.637 18.0433C147.639 18.0405 147.641 18.038 147.643 18.0356C147.652 18.0276 147.661 18.0089 147.673 18.0228C147.685 18.0368 147.671 18.0501 147.665 18.0599C147.628 18.1325 147.603 18.2113 147.594 18.2925C147.577 18.3878 147.572 18.4881 147.557 18.5845C147.541 18.6722 147.518 18.7583 147.487 18.8417C147.466 18.8997 147.438 18.9549 147.404 19.0061C147.401 19.0093 147.399 19.0132 147.398 19.0173C147.397 19.0215 147.397 19.0258 147.399 19.0299" fill="white"/>
<path d="M150.345 20.6451C150.365 20.5954 150.388 20.5475 150.416 20.5018C150.455 20.4249 150.513 20.3584 150.583 20.3081C150.656 20.2523 150.742 20.2148 150.833 20.1986C150.877 20.1894 150.922 20.1838 150.966 20.176C150.981 20.176 150.995 20.1704 151.005 20.1603C150.983 20.1369 150.956 20.1184 150.927 20.1063C150.845 20.0775 150.759 20.059 150.672 20.0511C150.658 20.0504 150.643 20.0475 150.629 20.0425C150.624 20.0408 150.619 20.0379 150.615 20.034C150.611 20.0301 150.608 20.0254 150.607 20.0202C150.605 20.015 150.605 20.0095 150.606 20.0041C150.606 19.9987 150.609 19.9935 150.612 19.9891C150.614 19.9846 150.617 19.9804 150.621 19.9767C150.693 19.9036 150.781 19.8482 150.878 19.8147C150.938 19.7957 151 19.7857 151.063 19.785C151.069 19.7843 151.074 19.7831 151.08 19.7814C151.08 19.7654 151.07 19.7577 151.063 19.7479C151.044 19.7237 151.027 19.6975 151.013 19.6699C151.002 19.6481 150.998 19.6237 151 19.5995C151.002 19.5725 151.01 19.5462 151.024 19.5226C151.037 19.4989 151.056 19.4785 151.078 19.4628C151.108 19.4396 151.137 19.4195 151.169 19.3972C151.179 19.3903 151.191 19.3872 151.203 19.3884C151.215 19.3896 151.226 19.3951 151.234 19.4037C151.26 19.4223 151.282 19.4461 151.299 19.4737C151.315 19.5034 151.333 19.5313 151.348 19.5628C151.364 19.5899 151.373 19.6202 151.376 19.6514C151.378 19.6826 151.374 19.7139 151.362 19.7432C151.335 19.8134 151.282 19.8706 151.213 19.9028C151.184 19.913 151.152 19.9136 151.122 19.9046C151.074 19.8954 151.025 19.8892 150.977 19.8862C150.945 19.8844 150.913 19.8897 150.884 19.9016C150.854 19.9144 150.824 19.9262 150.789 19.9402C150.794 19.9461 150.8 19.9509 150.807 19.9542C150.814 19.9575 150.821 19.9592 150.829 19.9592C150.853 19.9636 150.878 19.9701 150.903 19.9767C150.939 19.9871 150.973 20.0019 151.006 20.0206C151.03 20.0357 151.052 20.0551 151.069 20.0778C151.084 20.0943 151.091 20.1155 151.09 20.1372C151.092 20.1717 151.079 20.2054 151.056 20.2309C151.031 20.2526 151 20.2656 150.966 20.268C150.913 20.2737 150.859 20.2766 150.807 20.2843C150.707 20.2967 150.614 20.3404 150.541 20.4093C150.528 20.4205 150.517 20.4336 150.509 20.4481C150.503 20.4567 150.501 20.467 150.502 20.4771C150.504 20.4871 150.508 20.4964 150.516 20.5033C150.543 20.5343 150.574 20.5616 150.609 20.5846C150.625 20.5971 150.641 20.6083 150.657 20.6217C150.673 20.6343 150.686 20.6519 150.692 20.672C150.698 20.6921 150.697 20.7135 150.69 20.7333C150.668 20.8039 150.639 20.8724 150.605 20.938C150.599 20.9496 150.592 20.9604 150.583 20.97C150.563 20.9932 150.536 21.0102 150.507 21.0189C150.477 21.0277 150.446 21.0278 150.416 21.0193C150.39 21.0127 150.365 21.0077 150.339 21C150.3 20.9856 150.265 20.9625 150.236 20.9325C150.207 20.9024 150.185 20.8663 150.173 20.8267C150.155 20.7881 150.141 20.7477 150.132 20.7063C150.126 20.6742 150.111 20.6683 150.093 20.6887C150.085 20.6971 150.077 20.7064 150.071 20.7163C150.058 20.7356 150.042 20.752 150.022 20.7645C150.002 20.777 149.98 20.7852 149.957 20.7887C149.898 20.8068 149.835 20.8184 149.774 20.8321C149.765 20.8341 149.756 20.8362 149.749 20.8229C149.747 20.8184 149.746 20.8134 149.747 20.8085C149.748 20.8036 149.75 20.7991 149.753 20.7956C149.771 20.7684 149.796 20.7462 149.825 20.7312C149.872 20.7075 149.918 20.68 149.96 20.649C150.073 20.5681 150.157 20.4554 150.204 20.3256C150.224 20.269 150.248 20.214 150.276 20.1612C150.282 20.1509 150.289 20.141 150.297 20.1315C150.298 20.1299 150.299 20.1285 150.301 20.1275C150.302 20.1266 150.304 20.1261 150.306 20.1261C150.308 20.1261 150.31 20.1266 150.312 20.1275C150.313 20.1285 150.315 20.1299 150.316 20.1315C150.319 20.1349 150.321 20.139 150.322 20.1434C150.323 20.1478 150.323 20.1524 150.321 20.1568C150.318 20.1679 150.314 20.1788 150.31 20.1894C150.292 20.2226 150.28 20.2618 150.264 20.2956C150.246 20.3545 150.243 20.417 150.256 20.4774C150.268 20.5377 150.296 20.5939 150.336 20.6407C150.339 20.6423 150.341 20.6436 150.344 20.6445" fill="white"/>
<path d="M142.569 17.732C142.6 17.7521 142.635 17.7664 142.671 17.7744C142.74 17.7907 142.809 17.8031 142.878 17.8115C142.908 17.8157 142.938 17.822 142.968 17.8305C143.006 17.842 143.015 17.8628 143.002 17.9023C142.987 17.9513 142.955 17.9938 142.913 18.023C142.779 18.112 142.65 18.2117 142.514 18.3007C142.485 18.3215 142.457 18.3442 142.431 18.3687C142.41 18.3863 142.388 18.4028 142.365 18.4182C142.349 18.4302 142.331 18.438 142.312 18.4408C142.292 18.4437 142.273 18.4415 142.254 18.4346C142.205 18.4179 142.156 18.4004 142.105 18.3883C142.059 18.3768 142.012 18.3754 141.965 18.3841C141.919 18.3929 141.875 18.4116 141.837 18.439C141.766 18.4876 141.702 18.5454 141.647 18.6108C141.537 18.7414 141.409 18.8559 141.267 18.9508C141.142 19.0294 141.003 19.0824 140.857 19.1066C140.851 19.1083 140.845 19.1085 140.839 19.107C140.833 19.1056 140.828 19.1025 140.823 19.0983C140.829 19.0739 140.849 19.0686 140.867 19.0603C140.953 19.0229 141.037 18.9817 141.119 18.9366C141.261 18.8547 141.387 18.7478 141.49 18.6212C141.555 18.5452 141.617 18.4666 141.678 18.3877C141.767 18.2669 141.886 18.1716 142.024 18.1114C142.103 18.0775 142.189 18.0618 142.276 18.0655C142.338 18.0714 142.398 18.0908 142.452 18.1221C142.469 18.134 142.49 18.1399 142.511 18.139C142.532 18.1381 142.553 18.1304 142.569 18.1171C142.62 18.077 142.675 18.0414 142.732 18.0005C142.697 17.9854 142.66 17.9739 142.622 17.9664C142.574 17.9566 142.527 17.9399 142.483 17.9168C142.464 17.9061 142.446 17.8923 142.431 17.8759C142.42 17.8658 142.412 17.8526 142.409 17.838C142.406 17.8234 142.407 17.8082 142.413 17.7946C142.446 17.7146 142.505 17.6479 142.581 17.6047C142.65 17.5676 142.717 17.5269 142.79 17.497C142.862 17.467 142.931 17.4376 143.004 17.4118C143.085 17.3828 143.157 17.3335 143.213 17.2685C143.29 17.1756 143.36 17.0769 143.421 16.9733C143.44 16.9417 143.463 16.9128 143.489 16.8872C143.494 16.8827 143.5 16.8785 143.506 16.8748C143.513 16.87 143.521 16.8617 143.531 16.8686C143.54 16.8754 143.54 16.8908 143.539 16.903C143.538 16.9448 143.525 16.9855 143.501 17.0202C143.427 17.124 143.354 17.2279 143.28 17.3341C143.209 17.4431 143.102 17.5235 142.977 17.5608C142.839 17.5984 142.705 17.6514 142.579 17.7186C142.575 17.7207 142.57 17.7219 142.571 17.732" fill="white"/>
<path d="M146.274 17.9794C146.273 17.9911 146.269 18.0024 146.261 18.0112C146.216 18.0668 146.17 18.1222 146.123 18.1776C146.119 18.1825 146.114 18.1867 146.108 18.1901C146.096 18.1972 146.085 18.1966 146.078 18.177C146.056 18.1286 146.023 18.0855 145.983 18.0506C145.967 18.0358 145.951 18.021 145.936 18.0064C145.922 17.9919 145.913 17.9916 145.902 18.0064C145.874 18.042 145.843 18.0759 145.815 18.11C145.809 18.1177 145.802 18.1251 145.794 18.1319C145.769 18.1536 145.758 18.1524 145.732 18.1212C145.694 18.0758 145.652 18.0335 145.607 17.9946C145.571 17.9628 145.568 17.9429 145.594 17.9091C145.625 17.8702 145.658 17.8337 145.695 17.7999C145.713 17.7821 145.731 17.7634 145.75 17.7468C145.77 17.7302 145.771 17.7314 145.791 17.7521C145.838 17.795 145.881 17.842 145.92 17.8925C145.933 17.9115 145.941 17.9055 145.95 17.8952C145.983 17.8593 146.017 17.8239 146.051 17.7883C146.058 17.7809 146.065 17.7735 146.072 17.767C146.093 17.7477 146.094 17.7492 146.12 17.7762C146.145 17.8032 146.172 17.8293 146.199 17.8548C146.227 17.8812 146.25 17.9124 146.267 17.9468C146.273 17.9566 146.276 17.9681 146.275 17.9797" fill="white"/>
<path d="M145.132 19.7463C145.13 19.7557 145.126 19.7646 145.121 19.7724C145.072 19.8317 145.029 19.8964 144.983 19.9584C144.98 19.9629 144.975 19.9669 144.971 19.9703C144.955 19.9821 144.948 19.9809 144.931 19.9608C144.889 19.9132 144.842 19.8696 144.792 19.8305C144.776 19.8175 144.767 19.8172 144.757 19.8338C144.737 19.8709 144.715 19.9064 144.689 19.94C144.657 19.9789 144.642 19.9795 144.604 19.9356C144.559 19.8861 144.509 19.841 144.455 19.8011C144.419 19.7715 144.414 19.7504 144.441 19.7181C144.467 19.6857 144.498 19.6513 144.526 19.6181C144.547 19.5937 144.568 19.5697 144.589 19.546C144.61 19.5222 144.615 19.5219 144.645 19.5481C144.679 19.5777 144.714 19.6074 144.748 19.6386C144.759 19.6486 144.77 19.6593 144.78 19.6706C144.803 19.6973 144.803 19.6976 144.823 19.6739C144.853 19.6352 144.886 19.5982 144.92 19.5629C144.931 19.5516 144.939 19.5489 144.956 19.5629C145.001 19.6001 145.045 19.6396 145.088 19.6816C145.102 19.6949 145.114 19.71 145.125 19.7264C145.129 19.7323 145.131 19.7398 145.13 19.7471" fill="white"/>
<path d="M141.342 16.8394C141.34 16.849 141.335 16.8579 141.329 16.8655C141.275 16.9249 141.228 16.989 141.178 17.0507C141.174 17.0553 141.169 17.0593 141.164 17.0626C141.147 17.0741 141.139 17.0724 141.121 17.0516C141.076 17.0013 141.026 16.9551 140.972 16.9136C140.956 16.8997 140.946 16.8991 140.935 16.9157C140.912 16.953 140.887 16.9884 140.859 17.0216C140.824 17.0602 140.807 17.0605 140.767 17.0139C140.719 16.9617 140.666 16.914 140.61 16.8715C140.571 16.8418 140.567 16.8184 140.596 16.7863C140.625 16.7543 140.658 16.7202 140.69 16.6875C140.713 16.6638 140.736 16.6398 140.759 16.6163C140.783 16.5929 140.789 16.5926 140.819 16.6205C140.855 16.6531 140.893 16.6846 140.929 16.7169C140.941 16.7275 140.952 16.7388 140.963 16.7507C140.988 16.7789 140.988 16.7804 141.009 16.7555C141.043 16.7171 141.079 16.6804 141.116 16.6457C141.129 16.6347 141.138 16.6323 141.155 16.6457C141.204 16.6853 141.251 16.7269 141.296 16.7706C141.311 16.7846 141.324 16.8005 141.335 16.8178C141.34 16.8239 141.342 16.8315 141.341 16.8391" fill="white"/>
<path d="M145.676 19.7572C145.705 19.7228 145.737 19.6884 145.768 19.6549C145.782 19.6388 145.793 19.6145 145.814 19.6112C145.836 19.608 145.852 19.6409 145.87 19.656C145.91 19.6877 145.946 19.7238 145.978 19.7637C146.015 19.8166 146.016 19.8258 145.98 19.8631C145.941 19.9049 145.906 19.9487 145.872 19.9943C145.866 20.0014 145.86 20.0088 145.854 20.0156C145.825 20.0507 145.822 20.0507 145.788 20.0041C145.752 19.9612 145.712 19.9215 145.669 19.8854C145.659 19.8753 145.652 19.8798 145.646 19.8887C145.624 19.9183 145.602 19.948 145.579 19.9777C145.566 19.9966 145.549 20.0132 145.531 20.0269C145.528 20.0293 145.525 20.031 145.522 20.0319C145.519 20.0328 145.515 20.033 145.512 20.0323C145.508 20.0316 145.505 20.0302 145.503 20.0281C145.5 20.0259 145.498 20.0232 145.496 20.0201C145.457 19.9686 145.411 19.9223 145.36 19.8821C145.312 19.8376 145.308 19.8166 145.344 19.7747C145.391 19.7198 145.437 19.6646 145.487 19.6139C145.509 19.592 145.512 19.5925 145.535 19.6204C145.562 19.6501 145.591 19.6783 145.622 19.7047L145.676 19.7572Z" fill="white"/>
<path d="M142.162 18.9441C142.196 18.9088 142.23 18.8735 142.264 18.8391C142.28 18.8227 142.292 18.7975 142.315 18.7943C142.338 18.791 142.355 18.8239 142.375 18.8414C142.417 18.8744 142.456 18.9122 142.49 18.9542C142.53 19.0091 142.531 19.0186 142.49 19.0571C142.447 19.0998 142.408 19.1448 142.37 19.1918C142.364 19.1993 142.358 19.2067 142.351 19.2138C142.317 19.25 142.315 19.2497 142.28 19.2013C142.241 19.1559 142.198 19.1139 142.152 19.0761C142.141 19.0654 142.134 19.0702 142.127 19.0791C142.102 19.1088 142.078 19.1414 142.052 19.1717C142.037 19.1913 142.02 19.2084 141.999 19.2224C141.996 19.2247 141.993 19.2264 141.99 19.2273C141.986 19.2281 141.982 19.2282 141.979 19.2275C141.975 19.2268 141.972 19.2253 141.969 19.2231C141.966 19.221 141.964 19.2182 141.962 19.215C141.92 19.1608 141.871 19.1122 141.816 19.0705C141.766 19.0242 141.761 19.0019 141.801 18.9589C141.853 18.9028 141.904 18.8459 141.959 18.794C141.983 18.7714 141.986 18.772 142.011 18.8014C142.04 18.8327 142.071 18.8624 142.103 18.8904L142.161 18.9453" fill="white"/>
<path d="M141.041 18.5052C141.072 18.4735 141.103 18.4418 141.134 18.4109C141.149 18.3964 141.16 18.3738 141.181 18.3708C141.203 18.3679 141.218 18.3981 141.236 18.4136C141.275 18.4434 141.31 18.4777 141.34 18.5156C141.377 18.5655 141.378 18.575 141.34 18.6085C141.302 18.6468 141.266 18.6871 141.231 18.7293C141.225 18.7361 141.22 18.7429 141.213 18.7491C141.182 18.7815 141.181 18.7812 141.148 18.7373C141.113 18.696 141.074 18.658 141.031 18.6236C141.021 18.6141 141.015 18.6183 141.008 18.6263C140.986 18.6542 140.963 18.6824 140.94 18.7094C140.926 18.727 140.91 18.7423 140.891 18.7548C140.889 18.7569 140.886 18.7584 140.882 18.7592C140.879 18.76 140.876 18.76 140.873 18.7594C140.869 18.7587 140.866 18.7574 140.864 18.7554C140.861 18.7534 140.859 18.7509 140.857 18.748C140.819 18.699 140.774 18.6551 140.725 18.6174C140.678 18.5753 140.675 18.5554 140.711 18.5165C140.759 18.4661 140.806 18.4153 140.857 18.3682C140.879 18.348 140.881 18.3486 140.904 18.375C140.931 18.4032 140.959 18.43 140.988 18.4551C141.005 18.4708 141.022 18.4871 141.041 18.5052Z" fill="white"/>
<path d="M141.001 17.7345C141.014 17.7374 141.026 17.7431 141.036 17.7512C141.046 17.7593 141.055 17.7696 141.06 17.7814C141.065 17.7917 141.073 17.8006 141.082 17.8074C141.091 17.8142 141.102 17.8186 141.113 17.8202C141.132 17.8253 141.151 17.8262 141.17 17.8227C141.189 17.8193 141.207 17.8117 141.223 17.8004C141.254 17.7755 141.28 17.744 141.297 17.7081C141.303 17.6954 141.31 17.6836 141.319 17.6731C141.321 17.6705 141.324 17.6686 141.327 17.6679C141.33 17.6671 141.333 17.6675 141.336 17.6689C141.339 17.671 141.342 17.6739 141.343 17.6772C141.345 17.6806 141.345 17.6843 141.344 17.6879C141.344 17.7017 141.342 17.7154 141.34 17.7289C141.316 17.8329 141.272 17.9313 141.211 18.0184C141.178 18.0639 141.135 18.1006 141.085 18.1253C141.041 18.1469 140.99 18.1516 140.942 18.1386C140.928 18.1362 140.914 18.1303 140.903 18.1217C140.892 18.113 140.883 18.1017 140.877 18.0888C140.872 18.0786 140.864 18.0698 140.855 18.0635C140.846 18.0571 140.835 18.0534 140.823 18.0526C140.793 18.0483 140.763 18.0543 140.737 18.0698C140.706 18.088 140.677 18.1107 140.653 18.1371L140.642 18.1481C140.633 18.1579 140.621 18.1707 140.606 18.1573C140.592 18.1439 140.602 18.1276 140.606 18.1184C140.623 18.0816 140.641 18.0451 140.662 18.011C140.706 17.9267 140.765 17.851 140.837 17.7873C140.865 17.7632 140.897 17.7452 140.932 17.7342C140.955 17.7278 140.978 17.7281 141.001 17.7345Z" fill="white"/>
<path d="M142.712 19.6201C142.709 19.6051 142.71 19.5895 142.716 19.5753C142.75 19.4532 142.775 19.3289 142.791 19.2032C142.809 19.0893 142.825 18.9751 142.842 18.8614C142.848 18.8184 142.856 18.7763 142.861 18.733C142.868 18.6664 142.886 18.6013 142.913 18.5401C142.95 18.4561 142.991 18.3744 143.037 18.2953C143.046 18.2799 143.055 18.2488 143.076 18.2633C143.098 18.2778 143.076 18.298 143.071 18.3146C143.042 18.4333 143.022 18.5561 143.001 18.679C142.971 18.8591 142.949 19.0433 142.909 19.2205C142.884 19.3563 142.827 19.4843 142.743 19.5943C142.735 19.6044 142.729 19.6174 142.712 19.6204" fill="white"/>
<path d="M146.234 20.3754C146.242 20.3053 146.254 20.2359 146.273 20.1677C146.285 20.1198 146.292 20.071 146.296 20.0218C146.305 19.8954 146.317 19.7696 146.328 19.6441C146.332 19.5918 146.333 19.5384 146.342 19.4877C146.354 19.3931 146.383 19.3013 146.427 19.2165C146.448 19.1785 146.465 19.137 146.484 19.0978C146.487 19.0938 146.489 19.0899 146.492 19.0863C146.499 19.0753 146.505 19.0566 146.522 19.0702C146.539 19.0839 146.53 19.0999 146.527 19.1144C146.514 19.1655 146.497 19.2135 146.486 19.2663C146.477 19.313 146.47 19.3603 146.467 19.4079C146.462 19.523 146.446 19.6346 146.434 19.7473C146.421 19.8951 146.391 20.0409 146.345 20.182C146.322 20.2384 146.302 20.296 146.285 20.3547C146.28 20.3769 146.263 20.3873 146.255 20.4063C146.252 20.4131 146.248 20.4199 146.24 20.4149C146.232 20.4098 146.233 20.4006 146.233 20.3926C146.233 20.3846 146.233 20.3822 146.235 20.3769" fill="white"/>
<path d="M145.931 17.3621C145.934 17.3647 145.939 17.368 145.942 17.3716C146.002 17.427 146.058 17.4855 146.112 17.5475C146.134 17.5721 146.136 17.5816 146.118 17.6003C146.066 17.658 146.018 17.7187 145.973 17.7819C145.961 17.7988 145.952 17.7973 145.933 17.7783C145.89 17.7341 145.848 17.6893 145.805 17.6448C145.792 17.6324 145.779 17.6214 145.766 17.6098C145.74 17.5852 145.737 17.5733 145.756 17.5478C145.769 17.5294 145.783 17.5116 145.798 17.4947C145.832 17.4558 145.866 17.4175 145.901 17.3802C145.909 17.3716 145.916 17.3603 145.93 17.3624" fill="white"/>
<path d="M148.994 20.176C148.998 20.1782 149.002 20.1809 149.005 20.1841C149.036 20.2247 149.073 20.2565 149.106 20.295C149.118 20.3105 149.13 20.3267 149.14 20.3434C149.148 20.3523 149.152 20.3632 149.153 20.3747C149.154 20.3862 149.151 20.3976 149.145 20.4075C149.11 20.4687 149.069 20.5265 149.023 20.5802C149.017 20.5859 149.01 20.5909 149.003 20.595C148.992 20.6027 148.98 20.6003 148.973 20.5843C148.935 20.5284 148.891 20.4773 148.841 20.4321C148.832 20.4243 148.825 20.4137 148.822 20.4017C148.82 20.3898 148.821 20.3773 148.826 20.3662C148.83 20.3571 148.836 20.3486 148.843 20.341C148.885 20.29 148.928 20.2393 148.971 20.1891C148.977 20.1817 148.983 20.1734 148.996 20.176" fill="white"/>
<path d="M149.922 21.2064C149.918 21.2158 149.914 21.2249 149.908 21.2334C149.865 21.2883 149.822 21.3426 149.778 21.3969C149.774 21.4027 149.768 21.4078 149.762 21.412C149.754 21.4182 149.746 21.4167 149.738 21.4034C149.7 21.342 149.653 21.2871 149.598 21.2408C149.592 21.236 149.588 21.2296 149.585 21.2222C149.583 21.2148 149.583 21.2069 149.585 21.1996C149.588 21.186 149.595 21.1735 149.604 21.1631L149.727 21.0168C149.732 21.0103 149.738 21.0046 149.744 20.9987C149.75 20.9928 149.761 20.9916 149.77 21.0017C149.816 21.0481 149.859 21.0976 149.898 21.15C149.905 21.161 149.911 21.1723 149.918 21.1841C149.922 21.1909 149.923 21.1991 149.922 21.207" fill="white"/>
<path d="M143.906 18.6263C143.909 18.6287 143.912 18.6314 143.914 18.6346C143.963 18.6922 144.019 18.7418 144.071 18.7943L144.074 18.7969C144.104 18.8266 144.107 18.837 144.087 18.869C144.047 18.9325 144.005 18.9948 143.964 19.0575C143.96 19.0632 143.955 19.0687 143.95 19.0738C143.938 19.0862 143.927 19.0865 143.91 19.0711C143.853 19.021 143.801 18.9649 143.746 18.9118C143.741 18.9074 143.737 18.902 143.734 18.896C143.731 18.89 143.729 18.8834 143.728 18.8766C143.728 18.8699 143.729 18.8631 143.731 18.8567C143.733 18.8503 143.737 18.8444 143.741 18.8394C143.773 18.7933 143.804 18.7478 143.836 18.7029C143.85 18.6792 143.867 18.6567 143.885 18.6358C143.89 18.6302 143.895 18.6231 143.906 18.6263Z" fill="white"/>
<path d="M142.553 16.8697C142.555 16.8724 142.558 16.8751 142.561 16.8784C142.611 16.9377 142.667 16.9878 142.721 17.0412L142.724 17.0442C142.754 17.076 142.758 17.0852 142.737 17.1166C142.696 17.1792 142.653 17.2409 142.61 17.3026C142.606 17.3086 142.601 17.314 142.596 17.319C142.583 17.3314 142.572 17.3311 142.554 17.3154C142.497 17.2641 142.443 17.2068 142.387 17.1525C142.382 17.1482 142.378 17.1428 142.375 17.1367C142.372 17.1307 142.37 17.1241 142.369 17.1173C142.369 17.1106 142.37 17.1038 142.372 17.0974C142.374 17.091 142.378 17.0851 142.383 17.0801C142.415 17.0347 142.448 16.9911 142.481 16.9454C142.496 16.9221 142.512 16.9001 142.531 16.8795C142.537 16.8739 142.542 16.8668 142.553 16.8703" fill="white"/>
<path d="M150.999 20.9697C151.025 20.9756 151.05 20.9857 151.073 20.9994C151.085 21.0046 151.095 21.0141 151.101 21.0261C151.106 21.0381 151.107 21.0518 151.103 21.0644C151.098 21.0956 151.084 21.1248 151.063 21.1481C151.039 21.1797 151.012 21.2082 150.981 21.2329C150.978 21.2356 150.975 21.2388 150.973 21.2424C150.951 21.2721 150.955 21.2896 150.989 21.3127C151.018 21.3321 151.053 21.3429 151.089 21.3439C151.134 21.3484 151.179 21.345 151.222 21.3338C151.227 21.333 151.232 21.333 151.237 21.3338C151.24 21.3339 151.243 21.335 151.245 21.337C151.247 21.3389 151.249 21.3416 151.249 21.3445C151.25 21.3472 151.25 21.3501 151.249 21.3529C151.248 21.3557 151.247 21.3581 151.245 21.3599C151.219 21.3847 151.187 21.4023 151.152 21.4109C151.096 21.4284 151.035 21.4291 150.978 21.413C150.961 21.4074 150.945 21.3982 150.931 21.386C150.917 21.3761 150.907 21.3617 150.902 21.3451C150.898 21.3286 150.899 21.3109 150.906 21.2952C150.923 21.2414 150.956 21.1937 150.999 21.1575C151.012 21.1472 151.024 21.1355 151.034 21.1228C151.051 21.1021 151.049 21.0932 151.025 21.0804C150.987 21.0579 150.944 21.0467 150.9 21.0481C150.893 21.0481 150.886 21.0501 150.881 21.0403C150.879 21.037 150.878 21.0334 150.878 21.0297C150.878 21.026 150.879 21.0223 150.881 21.019C150.884 21.0113 150.887 21.0047 150.89 20.9973C150.892 20.9897 150.896 20.9827 150.901 20.9767C150.906 20.9707 150.912 20.9658 150.92 20.9626C150.927 20.9593 150.934 20.9577 150.942 20.9578C150.95 20.9579 150.958 20.9597 150.965 20.9632C150.974 20.9665 150.983 20.9683 150.998 20.9724" fill="white"/>
<path d="M149.193 18.6266C149.192 18.6339 149.189 18.6408 149.185 18.6467C149.15 18.6993 149.149 18.6972 149.09 18.7117C148.988 18.7369 148.881 18.7449 148.777 18.7711C148.7 18.787 148.624 18.8084 148.55 18.8351C148.545 18.8372 148.539 18.8426 148.533 18.8331C148.526 18.8236 148.53 18.8197 148.533 18.8123C148.536 18.795 148.545 18.7791 148.557 18.7661C148.569 18.7532 148.585 18.7439 148.602 18.739C148.746 18.6992 148.893 18.6682 149.041 18.6461C149.088 18.6408 149.133 18.6301 149.177 18.6141C149.181 18.612 149.186 18.6099 149.191 18.6165C149.192 18.6195 149.193 18.6227 149.193 18.626" fill="white"/>
<path d="M142.482 16.6078C142.481 16.6157 142.477 16.6231 142.471 16.6291C142.428 16.6843 142.428 16.6819 142.359 16.6959C142.238 16.7199 142.111 16.7256 141.99 16.7511C141.899 16.7659 141.81 16.7866 141.722 16.8131C141.715 16.8152 141.709 16.8208 141.701 16.8104C141.694 16.8 141.699 16.7959 141.701 16.7885C141.707 16.7695 141.718 16.7524 141.733 16.739C141.747 16.7255 141.765 16.7163 141.785 16.7122C141.956 16.6737 142.129 16.6447 142.303 16.6253C142.357 16.6213 142.411 16.6113 142.462 16.5956C142.468 16.5938 142.474 16.5915 142.479 16.5986C142.48 16.6017 142.481 16.6052 142.482 16.6087" fill="white"/>
<path d="M146.902 17.6045C146.896 17.6411 146.884 17.6764 146.866 17.709C146.828 17.772 146.778 17.8269 146.718 17.8704C146.658 17.9139 146.591 17.9452 146.519 17.9623C146.511 17.9639 146.504 17.9651 146.496 17.9659C146.493 17.9659 146.49 17.9647 146.488 17.9627C146.485 17.9606 146.484 17.9578 146.483 17.9546C146.481 17.9484 146.486 17.9466 146.49 17.9451L146.566 17.9119C146.629 17.8841 146.688 17.8479 146.741 17.8042C146.747 17.7988 146.754 17.7929 146.76 17.7867C146.789 17.7549 146.789 17.7532 146.755 17.7116C146.749 17.7044 146.744 17.6966 146.739 17.6885C146.705 17.6291 146.705 17.6078 146.739 17.5653C146.764 17.5317 146.8 17.5075 146.841 17.4968C146.871 17.4897 146.884 17.4968 146.893 17.5378C146.897 17.5615 146.898 17.5852 146.901 17.6048M146.826 17.6579C146.831 17.6413 146.831 17.6241 146.829 17.6072C146.825 17.5799 146.817 17.5745 146.799 17.582C146.785 17.587 146.785 17.5968 146.792 17.6116C146.801 17.6294 146.813 17.6452 146.828 17.6582" fill="white"/>
<path d="M150.402 19.271C150.4 19.2704 150.399 19.2695 150.397 19.2683C150.396 19.267 150.395 19.2656 150.394 19.2639C150.393 19.2622 150.393 19.2604 150.392 19.2586C150.392 19.2567 150.393 19.2549 150.393 19.2532C150.401 19.222 150.42 19.1949 150.447 19.1772C150.523 19.1416 150.603 19.1146 150.686 19.0965C150.721 19.0888 150.755 19.0789 150.789 19.0668C150.814 19.0624 150.838 19.0564 150.862 19.049C150.864 19.048 150.866 19.0478 150.868 19.0484C150.87 19.049 150.872 19.0504 150.873 19.0523C150.875 19.0547 150.876 19.0576 150.876 19.0606C150.876 19.0636 150.875 19.0665 150.873 19.0689C150.862 19.0897 150.85 19.1098 150.838 19.13C150.836 19.1335 150.834 19.1365 150.83 19.1388C150.827 19.1412 150.824 19.1428 150.82 19.1437C150.767 19.1552 150.715 19.1662 150.663 19.1796C150.597 19.1951 150.532 19.2149 150.469 19.2389C150.451 19.2453 150.435 19.2545 150.42 19.2662C150.418 19.2686 150.416 19.2703 150.413 19.2712C150.41 19.2721 150.407 19.2721 150.404 19.2713" fill="white"/>
<path d="M149.888 18.8473C149.854 18.8336 149.822 18.8211 149.79 18.809C149.783 18.8061 149.776 18.8051 149.769 18.8061C149.762 18.8071 149.755 18.8101 149.75 18.8146C149.745 18.8182 149.741 18.8241 149.734 18.8226C149.727 18.8211 149.72 18.8155 149.724 18.8072C149.737 18.7713 149.762 18.7411 149.795 18.722C149.816 18.7128 149.841 18.7283 149.863 18.7393C149.893 18.7561 149.927 18.7662 149.962 18.7689C149.974 18.7689 149.977 18.7769 149.978 18.7888C149.978 18.8064 149.973 18.8237 149.964 18.8387C149.937 18.8803 149.899 18.9129 149.853 18.9321C149.804 18.9553 149.751 18.9679 149.696 18.9692C149.687 18.9692 149.672 18.9754 149.667 18.9547C149.661 18.9339 149.675 18.9327 149.685 18.9283C149.72 18.9122 149.76 18.9081 149.796 18.8941C149.818 18.8861 149.839 18.8793 149.861 18.8707C149.867 18.8691 149.873 18.8661 149.877 18.8619C149.882 18.8576 149.886 18.8523 149.888 18.8464" fill="white"/>
<path d="M150.652 19.5191C150.657 19.5434 150.653 19.5685 150.64 19.59C150.632 19.6084 150.622 19.6245 150.613 19.642C150.606 19.6552 150.596 19.6662 150.583 19.6735C150.57 19.6807 150.555 19.6838 150.54 19.6823C150.535 19.6829 150.53 19.6823 150.526 19.6804C150.521 19.6786 150.517 19.6755 150.514 19.6716C150.498 19.6479 150.49 19.6601 150.478 19.669C150.465 19.6827 150.448 19.6913 150.429 19.6933C150.409 19.6897 150.392 19.6786 150.381 19.6625C150.37 19.6464 150.365 19.6265 150.369 19.6072C150.377 19.5726 150.393 19.5404 150.415 19.5129C150.419 19.5096 150.423 19.5069 150.428 19.5049C150.43 19.5112 150.431 19.5181 150.43 19.5249C150.429 19.5317 150.427 19.5381 150.422 19.5435C150.419 19.5487 150.418 19.5546 150.417 19.5606C150.417 19.5666 150.418 19.5726 150.42 19.5781C150.423 19.5837 150.426 19.5886 150.431 19.5926C150.435 19.5965 150.441 19.5994 150.447 19.601C150.453 19.6029 150.459 19.6036 150.466 19.603C150.472 19.6025 150.479 19.6006 150.484 19.5976C150.49 19.5946 150.495 19.5905 150.499 19.5855C150.503 19.5806 150.507 19.5748 150.508 19.5687C150.515 19.5552 150.523 19.5422 150.531 19.5295C150.534 19.5239 150.539 19.5182 150.546 19.5251C150.549 19.5278 150.551 19.5313 150.552 19.535C150.553 19.5387 150.553 19.5427 150.552 19.5464C150.552 19.5535 150.548 19.5604 150.547 19.5672C150.545 19.5726 150.545 19.5784 150.548 19.5836C150.55 19.5887 150.554 19.5927 150.56 19.5948C150.569 19.5988 150.58 19.599 150.589 19.5953C150.599 19.5917 150.606 19.5844 150.611 19.5752C150.618 19.5561 150.628 19.5379 150.64 19.5212C150.643 19.5179 150.646 19.5159 150.653 19.5191" fill="white"/>
<path d="M144.671 17.7345C144.752 17.7112 144.831 17.6774 144.904 17.6339L144.793 17.5939C144.77 17.5859 144.756 17.5998 144.74 17.6096C144.734 17.6129 144.728 17.6188 144.722 17.6096C144.715 17.6004 144.722 17.5971 144.724 17.5921C144.741 17.5609 144.765 17.534 144.794 17.5135C144.802 17.5087 144.812 17.5061 144.821 17.5061C144.83 17.5061 144.839 17.5087 144.847 17.5135C144.878 17.5292 144.911 17.5404 144.944 17.5467C144.97 17.5514 144.974 17.5603 144.974 17.5885C144.972 17.6081 144.964 17.6266 144.952 17.6416C144.916 17.6942 144.862 17.7315 144.799 17.7458C144.772 17.7514 144.744 17.7544 144.716 17.7577C144.698 17.7597 144.698 17.7591 144.672 17.7363" fill="white"/>
<path d="M141.514 17.4674C141.602 17.4436 141.687 17.4088 141.766 17.3638L141.647 17.322C141.622 17.3134 141.607 17.3279 141.589 17.338C141.583 17.3416 141.577 17.3475 141.57 17.338C141.563 17.3285 141.57 17.325 141.573 17.3196C141.592 17.2873 141.618 17.2596 141.649 17.2386C141.658 17.2336 141.668 17.231 141.678 17.231C141.688 17.231 141.698 17.2336 141.707 17.2386C141.739 17.2552 141.774 17.2669 141.811 17.2733C141.838 17.2784 141.843 17.2879 141.841 17.3167C141.838 17.3371 141.83 17.3563 141.816 17.3719C141.776 17.4265 141.717 17.4647 141.65 17.479C141.62 17.4849 141.591 17.4879 141.561 17.4911C141.542 17.4932 141.541 17.4911 141.514 17.4689" fill="white"/>
<path d="M143.696 17.4179C143.7 17.4211 143.702 17.4256 143.704 17.4307C143.705 17.4357 143.704 17.441 143.702 17.4455C143.688 17.4937 143.664 17.5387 143.633 17.5779C143.615 17.5969 143.599 17.5951 143.577 17.5719C143.562 17.5537 143.551 17.5324 143.545 17.5095C143.539 17.4867 143.538 17.4628 143.543 17.4396C143.565 17.3567 143.601 17.2779 143.649 17.2061C143.659 17.1898 143.669 17.1735 143.679 17.1577C143.682 17.1524 143.686 17.1426 143.695 17.1497C143.703 17.1568 143.698 17.1646 143.695 17.1705C143.685 17.1874 143.676 17.2043 143.667 17.2212C143.643 17.266 143.621 17.3129 143.6 17.3604C143.589 17.389 143.589 17.4207 143.6 17.4494C143.602 17.4583 143.606 17.4666 143.611 17.4736C143.617 17.4806 143.625 17.4861 143.633 17.4894C143.649 17.4939 143.655 17.4794 143.663 17.4681C143.674 17.4503 143.678 17.4265 143.696 17.4162" fill="white"/>
<path d="M140.619 17.3835C140.623 17.3868 140.627 17.3917 140.628 17.3972C140.629 17.4027 140.628 17.4084 140.625 17.4132C140.609 17.4635 140.583 17.5101 140.549 17.5503C140.529 17.5701 140.512 17.5681 140.489 17.544C140.473 17.5253 140.462 17.5032 140.456 17.4795C140.45 17.4557 140.449 17.4309 140.454 17.4069C140.48 17.3204 140.52 17.2386 140.572 17.1645C140.583 17.1476 140.594 17.1307 140.606 17.1147C140.61 17.1091 140.614 17.099 140.624 17.1064C140.633 17.1138 140.627 17.1215 140.624 17.128C140.613 17.1455 140.603 17.1631 140.594 17.1809C140.567 17.2271 140.543 17.2758 140.52 17.3251C140.507 17.3549 140.506 17.3885 140.518 17.4188C140.52 17.4281 140.524 17.4368 140.53 17.4441C140.536 17.4514 140.544 17.457 140.553 17.4604C140.57 17.4648 140.576 17.45 140.582 17.4381C140.594 17.4197 140.6 17.3951 140.62 17.3844" fill="white"/>
<path d="M140.56 17.3025C140.557 17.3025 140.553 17.3052 140.551 17.3025C140.549 17.2997 140.548 17.2936 140.551 17.2896L140.561 17.3012" fill="white"/>
<path d="M144.165 17.9009C144.174 17.9042 144.183 17.8831 144.192 17.8653C144.198 17.8542 144.203 17.8419 144.205 17.8291C144.204 17.8113 144.198 17.7942 144.187 17.7798C144.177 17.7655 144.162 17.7547 144.145 17.7487C144.127 17.7467 144.115 17.7597 144.099 17.7766C144.088 17.7897 144.079 17.8044 144.072 17.8202C144.063 17.8377 144.055 17.8559 144.049 17.8745C144.024 17.9546 144.016 18.0876 144.004 18.0855C143.991 18.0834 143.993 18.0175 143.963 17.9125C143.951 17.8488 143.92 17.7902 143.874 17.744C143.846 17.7211 143.832 17.7247 143.829 17.7256C143.812 17.7303 143.806 17.7529 143.799 17.771C143.794 17.7839 143.792 17.7981 143.794 17.8119C143.796 17.8256 143.812 17.8416 143.842 17.8736C143.858 17.8906 143.868 17.8998 143.879 17.8998C143.885 17.8998 143.887 17.8977 143.892 17.8998C143.904 17.9048 143.91 17.9294 143.912 17.941C143.92 17.9757 143.935 18.0092 143.942 18.044C143.946 18.1024 143.96 18.1598 143.982 18.214C143.996 18.2178 144.012 18.1597 144.021 18.1199C144.043 18.0309 144.04 17.9917 144.064 17.9164C144.09 17.8345 144.107 17.8309 144.115 17.8324C144.123 17.8339 144.14 17.8499 144.145 17.8606C144.158 17.8817 144.156 17.8986 144.163 17.9015" fill="white"/>
<path d="M144.066 15.2001C144.076 15.0923 144.133 15.0538 144.234 15.0847C144.283 15.1018 144.329 15.1227 144.374 15.1473C144.473 15.1995 144.58 15.2339 144.691 15.2487C144.734 15.2544 144.748 15.2695 144.736 15.2941L144.696 15.3757C144.694 15.3816 144.689 15.3864 144.684 15.3892C144.678 15.3921 144.672 15.3928 144.666 15.3911C144.625 15.3816 144.583 15.3764 144.541 15.3757C144.562 15.4173 144.625 15.45 144.73 15.4739C144.755 15.4796 144.77 15.4997 144.774 15.5333C144.777 15.5583 144.773 15.5837 144.763 15.6069C144.753 15.63 144.739 15.6389 144.723 15.6344C144.644 15.618 144.571 15.5783 144.514 15.5205C144.499 15.4996 144.488 15.4759 144.482 15.4508C144.476 15.4257 144.476 15.3997 144.48 15.3742C144.413 15.3678 144.346 15.3748 144.282 15.395C144.211 15.4144 144.151 15.4593 144.113 15.5208C144.079 15.5764 144.064 15.641 144.069 15.7057C144.075 15.7749 144.1 15.8414 144.14 15.8982C144.18 15.9551 144.235 16.0003 144.299 16.0294C144.449 16.1036 144.611 16.1528 144.777 16.175C144.809 16.1804 144.825 16.1917 144.824 16.2086C144.823 16.2255 144.805 16.2293 144.771 16.2314C144.737 16.2336 144.703 16.2426 144.672 16.2578C144.652 16.2683 144.631 16.2771 144.61 16.2842C144.602 16.2859 144.593 16.2859 144.584 16.2842C144.395 16.2691 144.218 16.1861 144.086 16.0507C144.049 16.0003 144.023 15.9429 144.009 15.8821C143.996 15.8212 143.995 15.7582 144.007 15.697C144.008 15.6064 144.035 15.518 144.086 15.4425C144.136 15.3669 144.207 15.3074 144.29 15.271C144.23 15.2372 144.16 15.2248 144.091 15.236C144.07 15.2407 144.062 15.2283 144.064 15.1989M144.38 14.8215C144.385 14.8155 144.392 14.8158 144.401 14.8215C144.433 14.8454 144.462 14.8742 144.485 14.9069C144.488 14.9104 144.49 14.9147 144.49 14.9192C144.491 14.9237 144.489 14.9283 144.487 14.9321L144.423 15.0146C144.416 15.0218 144.409 15.0203 144.401 15.0105C144.393 15.0007 144.366 14.9716 144.318 14.9215C144.31 14.9132 144.309 14.9054 144.316 14.898L144.38 14.8215Z" fill="white"/>
<path d="M144.953 15.4901C144.967 15.5232 144.992 15.5504 145.024 15.5669C145.033 15.5697 145.041 15.5748 145.047 15.5818C145.054 15.5887 145.058 15.5972 145.06 15.6064C145.062 15.6251 145.06 15.6439 145.056 15.6622C145.054 15.6806 145.048 15.6985 145.041 15.7153C145.038 15.7201 145.034 15.7238 145.029 15.7258C145.024 15.7278 145.019 15.7278 145.014 15.726C144.958 15.702 144.913 15.657 144.89 15.6008C144.868 15.6203 144.84 15.6337 144.811 15.6395C144.781 15.6454 144.751 15.6436 144.722 15.6343C144.713 15.6305 144.706 15.6241 144.7 15.6159C144.695 15.6077 144.692 15.5981 144.693 15.5883L144.685 15.5307C144.684 15.5157 144.688 15.5006 144.697 15.4886C144.701 15.4829 144.706 15.4785 144.713 15.476C144.719 15.4735 144.726 15.473 144.733 15.4747C144.828 15.4966 144.887 15.489 144.912 15.4518C144.919 15.4403 144.927 15.4361 144.935 15.4388C144.941 15.4405 144.946 15.4443 144.949 15.4494C144.952 15.4545 144.953 15.4605 144.953 15.4664C144.953 15.4809 144.953 15.4892 144.953 15.4907M144.912 15.7556C144.917 15.7497 144.924 15.7497 144.933 15.7556C144.965 15.7793 144.993 15.8079 145.016 15.8402C145.019 15.8437 145.021 15.848 145.021 15.8525C145.022 15.857 145.021 15.8615 145.018 15.8654L144.955 15.9485C144.948 15.9556 144.941 15.9547 144.934 15.9458C144.927 15.9369 144.907 15.9162 144.875 15.8809L144.83 15.9402C144.823 15.9473 144.816 15.946 144.808 15.9363C144.8 15.9268 144.773 15.8975 144.725 15.8488C144.724 15.8475 144.722 15.8458 144.721 15.8439C144.72 15.842 144.719 15.8399 144.719 15.8377C144.719 15.8355 144.719 15.8332 144.72 15.8311C144.72 15.829 144.721 15.827 144.723 15.8254L144.787 15.7467C144.792 15.7408 144.799 15.7408 144.808 15.7467C144.831 15.7641 144.853 15.784 144.872 15.8061L144.912 15.7556Z" fill="white"/>
<path d="M145.179 15.5308C145.187 15.5142 145.198 15.5112 145.213 15.5222C145.228 15.5331 145.228 15.5498 145.215 15.5723C145.211 15.5788 145.208 15.5854 145.203 15.5925C145.287 15.6536 145.349 15.6468 145.391 15.572C145.399 15.5554 145.41 15.5521 145.423 15.5625C145.43 15.5678 145.434 15.5752 145.435 15.5834C145.437 15.5916 145.435 15.6 145.43 15.607C145.424 15.6194 145.42 15.6327 145.418 15.6465C145.418 15.6655 145.433 15.6815 145.462 15.6948C145.492 15.7082 145.511 15.7088 145.522 15.6975C145.538 15.6725 145.549 15.6447 145.554 15.6156C145.557 15.6043 145.564 15.6002 145.575 15.6038C145.58 15.6053 145.585 15.6082 145.588 15.6121C145.592 15.616 145.594 15.6208 145.595 15.626C145.599 15.6574 145.61 15.6876 145.627 15.714C145.645 15.7405 145.668 15.7624 145.696 15.7782C145.706 15.7845 145.714 15.7933 145.72 15.8037C145.726 15.8141 145.729 15.8257 145.728 15.8376C145.733 15.8632 145.731 15.8894 145.723 15.9141C145.715 15.9346 145.703 15.9423 145.687 15.937C145.649 15.9227 145.617 15.8982 145.593 15.8664C145.569 15.8346 145.555 15.7968 145.551 15.7572C145.54 15.7881 145.526 15.818 145.509 15.8462C145.505 15.8563 145.496 15.8645 145.486 15.8693C145.476 15.874 145.465 15.875 145.454 15.872C145.427 15.8649 145.402 15.8523 145.381 15.8352C145.359 15.818 145.342 15.7966 145.329 15.7723C145.313 15.784 145.294 15.7914 145.274 15.794C145.253 15.7966 145.233 15.7942 145.214 15.7871C145.173 15.7746 145.137 15.7478 145.114 15.7115C145.099 15.7206 145.083 15.7265 145.066 15.7288C145.049 15.7311 145.031 15.7297 145.015 15.7248C144.993 15.7177 144.98 15.6918 144.977 15.6471C144.977 15.6358 144.977 15.6198 144.977 15.5999C144.977 15.58 144.987 15.5658 145.007 15.5643C145.013 15.5632 145.02 15.5632 145.026 15.5643C145.111 15.5841 145.163 15.5723 145.181 15.529M145.426 15.2065C145.431 15.2005 145.438 15.2005 145.446 15.2065C145.478 15.2302 145.506 15.2586 145.529 15.2907C145.532 15.2941 145.534 15.2984 145.534 15.3029C145.534 15.3073 145.533 15.3118 145.531 15.3157L145.469 15.3975C145.463 15.4053 145.456 15.4044 145.449 15.3955C145.442 15.3866 145.424 15.3673 145.397 15.3382L145.356 15.3925C145.35 15.3996 145.342 15.3981 145.335 15.3886C145.327 15.3792 145.3 15.3498 145.253 15.3017C145.252 15.3004 145.25 15.2987 145.249 15.2968C145.248 15.2949 145.247 15.2928 145.247 15.2906C145.247 15.2884 145.247 15.2861 145.248 15.284C145.248 15.2819 145.249 15.2799 145.251 15.2783L145.314 15.2011C145.324 15.1895 145.349 15.2062 145.39 15.2513L145.426 15.2065ZM145.351 15.0323C145.356 15.0267 145.363 15.0267 145.372 15.0323C145.404 15.056 145.432 15.0846 145.455 15.1169C145.457 15.1203 145.459 15.1245 145.46 15.129C145.46 15.1335 145.459 15.1379 145.457 15.1418L145.394 15.2234C145.388 15.2305 145.381 15.229 145.373 15.2195C145.365 15.21 145.338 15.181 145.291 15.1326C145.284 15.1246 145.283 15.1169 145.289 15.11L145.351 15.0323Z" fill="white"/>
<path d="M145.83 15.1931C145.847 15.3741 145.849 15.5563 145.834 15.7375C145.812 15.88 145.763 15.9463 145.685 15.9366C145.666 15.934 145.655 15.9171 145.655 15.8862C145.655 15.862 145.656 15.8378 145.659 15.8138C145.662 15.7862 145.674 15.7743 145.695 15.7782C145.739 15.7865 145.767 15.7802 145.78 15.7592C145.78 15.7378 145.77 15.5385 145.748 15.1619C145.746 15.1272 145.743 15.1026 145.741 15.0907C145.738 15.0811 145.736 15.0708 145.737 15.0606C145.738 15.0504 145.741 15.0405 145.745 15.0314L145.779 14.9756C145.791 14.9548 145.802 14.964 145.811 15.0038C145.82 15.0416 145.836 15.0772 145.859 15.1085C145.874 15.1283 145.875 15.1457 145.861 15.1608L145.83 15.1931Z" fill="white"/>
<path d="M146.059 15.1082C146.077 15.0746 146.087 15.0865 146.089 15.1441L146.098 15.4728C146.119 15.6538 146.103 15.8369 146.052 16.0117C146.043 16.0256 146.035 16.0301 146.028 16.0247C146.021 16.0194 146.019 15.9971 146.022 15.9577C146.027 15.8902 146.022 15.7334 146.007 15.4871L145.994 15.2607C145.993 15.2429 145.996 15.2251 146.005 15.2094L146.059 15.1082Z" fill="white"/>
<path d="M146.721 15.4162C146.726 15.4105 146.732 15.4105 146.741 15.4162C146.772 15.4395 146.799 15.4674 146.822 15.4989C146.825 15.5023 146.826 15.5065 146.827 15.5109C146.827 15.5153 146.826 15.5197 146.824 15.5236L146.764 15.6046C146.758 15.6114 146.751 15.6105 146.744 15.6016C146.737 15.5927 146.718 15.5719 146.684 15.5381L146.642 15.5957C146.636 15.6028 146.629 15.6013 146.621 15.5921C146.614 15.5829 146.587 15.5541 146.542 15.5066C146.538 15.504 146.536 15.5001 146.536 15.4958C146.535 15.4915 146.536 15.4872 146.539 15.4838L146.599 15.4075C146.604 15.4019 146.61 15.4019 146.619 15.4075C146.642 15.4249 146.662 15.4448 146.681 15.4669L146.721 15.4162ZM146.813 15.6553C146.832 15.6369 146.843 15.652 146.843 15.701L146.86 16.0235C146.864 16.1078 146.886 16.1555 146.925 16.1668C146.934 16.1698 146.943 16.1752 146.949 16.1825C146.955 16.1898 146.959 16.1986 146.961 16.2081C146.966 16.2343 146.964 16.2615 146.955 16.2867C146.945 16.3163 146.933 16.3276 146.918 16.3235C146.897 16.3184 146.878 16.3092 146.861 16.2965C146.844 16.2838 146.829 16.2679 146.818 16.2496C146.797 16.2008 146.785 16.1481 146.785 16.0947C146.753 16.1343 146.732 16.1555 146.72 16.1585C146.699 16.1601 146.678 16.156 146.66 16.1466C146.625 16.1329 146.594 16.1114 146.568 16.0837C146.56 16.0755 146.554 16.0654 146.55 16.0544C146.547 16.0433 146.546 16.0316 146.548 16.0202C146.554 15.9933 146.564 15.9674 146.578 15.944C146.589 15.924 146.602 15.9055 146.618 15.8891C146.661 15.8543 146.71 15.8282 146.762 15.8123C146.76 15.7425 146.764 15.7022 146.774 15.6918L146.813 15.6553ZM146.771 15.9105C146.749 15.909 146.726 15.9124 146.704 15.9203C146.683 15.9283 146.664 15.9407 146.648 15.9567C146.644 15.9615 146.645 15.9659 146.65 15.9713C146.686 16.0007 146.731 16.0167 146.778 16.0164C146.776 15.9877 146.774 15.9524 146.771 15.9105Z" fill="white"/>
<path d="M147.074 16.1316C147.081 16.1153 147.092 16.1123 147.106 16.123C147.121 16.1337 147.121 16.1497 147.109 16.1722C147.106 16.1785 147.102 16.1853 147.098 16.1921C147.177 16.2515 147.237 16.2443 147.277 16.1708C147.285 16.1544 147.295 16.1512 147.307 16.1613C147.313 16.1665 147.317 16.1738 147.318 16.1818C147.32 16.1898 147.318 16.1979 147.314 16.2049C147.308 16.2171 147.304 16.2302 147.302 16.2437C147.302 16.2624 147.317 16.2782 147.345 16.2909C147.373 16.3037 147.391 16.3043 147.401 16.293C147.416 16.2682 147.426 16.2408 147.431 16.2123C147.434 16.2013 147.44 16.1975 147.45 16.2004C147.455 16.2021 147.459 16.205 147.463 16.2089C147.466 16.2127 147.469 16.2174 147.47 16.2224C147.473 16.2529 147.484 16.2822 147.501 16.308C147.518 16.3337 147.541 16.3552 147.567 16.3707C147.577 16.3769 147.585 16.3855 147.59 16.3955C147.596 16.4056 147.599 16.4169 147.599 16.4283C147.603 16.4534 147.601 16.4793 147.594 16.5037C147.587 16.5238 147.575 16.5313 147.559 16.5265C147.523 16.5123 147.492 16.4883 147.469 16.4573C147.446 16.4264 147.432 16.3896 147.428 16.3512C147.418 16.3821 147.405 16.4119 147.389 16.4402C147.385 16.4501 147.377 16.4582 147.367 16.4629C147.358 16.4677 147.346 16.4687 147.336 16.466C147.31 16.4589 147.287 16.4466 147.266 16.4299C147.245 16.4131 147.229 16.3923 147.217 16.3687C147.201 16.3803 147.183 16.3878 147.164 16.3905C147.145 16.3933 147.125 16.3912 147.107 16.3844C147.067 16.3722 147.033 16.3461 147.01 16.3108C146.996 16.3198 146.981 16.3258 146.965 16.3282C146.948 16.3306 146.932 16.3294 146.916 16.3247C146.895 16.318 146.882 16.2927 146.879 16.2488C146.879 16.2378 146.877 16.2221 146.877 16.2022C146.877 16.1823 146.887 16.169 146.907 16.1672C146.913 16.1663 146.919 16.1663 146.925 16.1672C147.007 16.187 147.057 16.1753 147.074 16.1316Z" fill="white"/>
<path d="M147.752 16.2938C147.775 16.3015 147.776 16.3249 147.754 16.3638C147.773 16.3891 147.8 16.4078 147.83 16.4175C147.88 16.4342 147.924 16.3941 147.962 16.2989C147.968 16.284 147.976 16.2805 147.986 16.2885C147.992 16.2923 147.995 16.2976 147.998 16.3037C148 16.3098 148 16.3164 147.998 16.3226L147.986 16.3644C148.001 16.3834 148.019 16.4 148.039 16.4137C148.055 16.4263 148.073 16.4364 148.093 16.4434C148.09 16.4218 148.085 16.4005 148.078 16.3799C148.075 16.3731 148.074 16.3657 148.075 16.3585C148.076 16.3512 148.078 16.3443 148.083 16.3383L148.12 16.2843C148.132 16.2736 148.141 16.287 148.146 16.3247C148.154 16.3822 148.151 16.4407 148.137 16.4971C148.123 16.5491 148.103 16.5805 148.076 16.5914C148.07 16.5929 148.065 16.5929 148.059 16.5914C148.006 16.5759 147.96 16.5425 147.928 16.4968C147.918 16.5197 147.902 16.5394 147.882 16.5536C147.861 16.5678 147.837 16.576 147.812 16.5772C147.765 16.5772 147.719 16.5412 147.674 16.4692C147.627 16.5169 147.589 16.5365 147.562 16.5285C147.546 16.5235 147.536 16.5063 147.532 16.476C147.53 16.4591 147.529 16.4439 147.528 16.4309C147.527 16.3864 147.54 16.3671 147.568 16.3716C147.599 16.3808 147.632 16.3796 147.661 16.3681C147.691 16.3566 147.716 16.3354 147.733 16.3081C147.739 16.2977 147.746 16.2935 147.752 16.2956" fill="white"/>
<path d="M148.559 16.8403C148.526 16.9957 148.453 17.0854 148.338 17.1094C148.308 17.1164 148.277 17.1155 148.247 17.1067C148.187 17.075 148.136 17.0275 148.101 16.9693C148.09 16.9557 148.087 16.9453 148.092 16.9382C148.096 16.931 148.106 16.9328 148.119 16.9435C148.151 16.9669 148.189 16.9813 148.229 16.9852C148.268 16.9891 148.308 16.9822 148.344 16.9655C148.381 16.9537 148.415 16.9347 148.444 16.9095C148.473 16.8843 148.496 16.8534 148.512 16.8189C148.469 16.8058 148.429 16.7833 148.396 16.753C148.382 16.7367 148.372 16.7169 148.368 16.6958C148.364 16.6746 148.365 16.6527 148.372 16.6323C148.392 16.5531 148.419 16.5066 148.454 16.4925C148.489 16.4785 148.519 16.4935 148.544 16.5376C148.564 16.5852 148.574 16.6361 148.574 16.6875C148.587 16.691 148.598 16.6988 148.606 16.7096C148.614 16.7204 148.618 16.7335 148.617 16.7468C148.619 16.77 148.616 16.7933 148.609 16.8156C148.602 16.8391 148.592 16.8489 148.579 16.8453L148.56 16.8403M148.52 16.3041C148.492 16.3011 148.464 16.2997 148.435 16.3C148.404 16.303 148.372 16.3077 148.341 16.3142C148.335 16.3151 148.329 16.3138 148.323 16.3105C148.318 16.3073 148.314 16.3023 148.312 16.2964C148.302 16.2738 148.314 16.2546 148.349 16.2388C148.33 16.2213 148.318 16.1986 148.313 16.1739C148.312 16.1517 148.315 16.1296 148.323 16.1088C148.331 16.0881 148.343 16.0691 148.358 16.0531C148.369 16.0353 148.385 16.0217 148.405 16.0147C148.424 16.0078 148.446 16.0078 148.465 16.0148C148.478 16.0191 148.489 16.0278 148.495 16.0393C148.502 16.0508 148.504 16.0643 148.501 16.0771C148.499 16.0981 148.493 16.1185 148.482 16.1365C148.477 16.1434 148.471 16.1495 148.464 16.1543C148.453 16.1593 148.444 16.1543 148.437 16.1388C148.432 16.1259 148.422 16.1153 148.409 16.1092C148.397 16.1041 148.389 16.1044 148.383 16.1092C148.38 16.1121 148.379 16.1159 148.379 16.1199C148.379 16.1238 148.38 16.1277 148.383 16.1305C148.407 16.1647 148.442 16.1902 148.482 16.2032C148.493 16.2059 148.504 16.2073 148.516 16.2074C148.527 16.2074 148.539 16.2091 148.55 16.2124C148.557 16.2161 148.563 16.2224 148.567 16.2301C148.57 16.2378 148.571 16.2465 148.568 16.2546C148.551 16.2868 148.536 16.3025 148.521 16.3017M148.511 16.6708C148.498 16.6313 148.481 16.6081 148.46 16.6014C148.455 16.6 148.45 16.5999 148.445 16.6009C148.44 16.602 148.436 16.6043 148.432 16.6076C148.429 16.6108 148.428 16.6148 148.427 16.619C148.427 16.6231 148.428 16.6273 148.431 16.6308C148.439 16.6434 148.45 16.6542 148.463 16.6625C148.476 16.6708 148.49 16.6765 148.505 16.6791C148.51 16.6791 148.511 16.6791 148.51 16.6705" fill="white"/>
<path d="M148.851 16.4797C148.905 16.4977 148.939 16.588 148.953 16.7506C148.954 16.7564 148.953 16.7624 148.952 16.7682C148.951 16.7739 148.948 16.7793 148.944 16.7841L148.887 16.8491C148.885 16.8518 148.882 16.8542 148.879 16.8558C148.876 16.8575 148.872 16.8586 148.869 16.8589C148.865 16.8592 148.861 16.8588 148.858 16.8578C148.854 16.8567 148.851 16.8549 148.848 16.8526C148.791 16.8179 148.743 16.7707 148.707 16.7147C148.672 16.8164 148.629 16.86 148.577 16.8449C148.563 16.8408 148.553 16.8253 148.548 16.7983C148.542 16.7748 148.54 16.7507 148.54 16.7265C148.54 16.7058 148.549 16.6936 148.565 16.69C148.571 16.6886 148.577 16.6886 148.583 16.69C148.602 16.6952 148.623 16.6941 148.641 16.6869C148.66 16.6797 148.675 16.6667 148.686 16.65C148.695 16.639 148.718 16.6019 148.756 16.5393C148.787 16.4883 148.819 16.4682 148.851 16.4797ZM148.767 16.5986C148.791 16.6359 148.823 16.667 148.862 16.6891C148.864 16.6741 148.863 16.6587 148.858 16.6443C148.853 16.6298 148.845 16.6167 148.834 16.6061C148.825 16.5971 148.814 16.5914 148.802 16.5901C148.789 16.5887 148.777 16.5918 148.767 16.5986Z" fill="white"/>
<path d="M143.972 21.8716C144.029 21.8788 144.085 21.8928 144.138 21.9134C144.184 21.9285 144.224 21.9566 144.254 21.9941C144.27 22.0209 144.275 22.0528 144.268 22.0831C144.263 22.1282 144.248 22.1716 144.223 22.2095C144.201 22.233 144.176 22.253 144.148 22.2688C144.083 22.3151 144.008 22.3463 143.929 22.3603C143.85 22.3743 143.77 22.3707 143.692 22.3498C143.479 22.2808 143.414 22.1141 143.496 21.8496C143.516 21.7825 143.55 21.7205 143.596 21.6677C143.608 21.6547 143.619 21.6541 143.629 21.6659C143.638 21.6778 143.635 21.6935 143.622 21.7113C143.572 21.7701 143.543 21.8428 143.538 21.919C143.532 21.9814 143.552 22.0434 143.591 22.0922C143.631 22.141 143.687 22.1729 143.75 22.1813C143.824 22.198 143.901 22.1984 143.976 22.1824C144.051 22.1663 144.121 22.1343 144.182 22.0885C144.112 22.043 144.034 22.0126 143.952 21.9994C143.946 21.9985 143.942 21.9959 143.938 21.992C143.934 21.9882 143.932 21.9833 143.932 21.9781C143.929 21.9697 143.93 21.9609 143.933 21.9529L143.972 21.8716Z" fill="white"/>
<path d="M144.109 21.2833C144.137 21.594 144.148 21.7691 144.144 21.8084C144.141 21.8374 144.136 21.8662 144.129 21.8945C144.113 21.9514 144.085 21.9839 144.046 21.9918C144.013 21.9966 143.98 21.9966 143.947 21.9918L143.929 21.9888V21.9686C143.929 21.9493 143.932 21.93 143.94 21.9123C143.945 21.899 143.954 21.8879 143.967 21.8811C143.983 21.8751 143.999 21.8704 144.016 21.8672L144.062 21.8565C144.056 21.7536 144.047 21.6366 144.035 21.5055C144.022 21.3743 144.015 21.289 144.012 21.2494L144.002 21.1672C143.999 21.1545 144 21.1413 144.004 21.129C144.017 21.0975 144.026 21.0759 144.03 21.0634C144.034 21.0509 144.043 21.0468 144.06 21.0497C144.067 21.0519 144.074 21.0563 144.08 21.0624C144.085 21.0684 144.088 21.0759 144.089 21.0839C144.099 21.122 144.115 21.158 144.137 21.1904C144.145 21.1986 144.149 21.2091 144.149 21.2201C144.149 21.231 144.145 21.2415 144.137 21.2497L144.109 21.2833Z" fill="white"/>
<path d="M144.468 21.1542C144.486 21.1271 144.496 21.1329 144.497 21.1714C144.504 21.3506 144.504 21.5138 144.497 21.661C144.491 21.8082 144.488 21.8981 144.488 21.9307C144.486 21.9644 144.495 21.9978 144.516 22.025C144.536 22.0522 144.565 22.0714 144.598 22.079C144.61 22.0825 144.62 22.0896 144.627 22.0992C144.635 22.1089 144.639 22.1207 144.639 22.1328C144.639 22.1504 144.637 22.1679 144.632 22.185C144.629 22.203 144.623 22.2206 144.615 22.2372C144.613 22.2423 144.609 22.2464 144.604 22.2488C144.599 22.2512 144.593 22.2517 144.588 22.2502C144.534 22.24 144.486 22.2098 144.454 22.1657C144.421 22.1216 144.407 22.067 144.414 22.0129C144.414 21.9535 144.417 21.8528 144.423 21.7105C144.427 21.5702 144.422 21.4297 144.406 21.2901C144.403 21.2705 144.406 21.2503 144.416 21.2329L144.468 21.1542Z" fill="white"/>
<path d="M145.05 22.1887C145.063 22.1912 145.076 22.1982 145.085 22.2086C145.094 22.219 145.1 22.2321 145.101 22.246C145.102 22.2558 145.102 22.2658 145.101 22.2756C145.089 22.3373 145.069 22.3648 145.041 22.3581C144.992 22.3418 144.947 22.3156 144.909 22.2812C144.871 22.2469 144.841 22.2051 144.819 22.1584C144.72 22.2318 144.643 22.2621 144.589 22.2492C144.559 22.2421 144.543 22.2139 144.538 22.1647C144.534 22.1154 144.546 22.0869 144.572 22.0792C144.581 22.0771 144.59 22.0771 144.599 22.0792C144.644 22.0907 144.692 22.0883 144.735 22.0721C144.707 22.0453 144.673 22.025 144.636 22.0127C144.619 22.0059 144.612 21.9908 144.617 21.9673C144.623 21.947 144.632 21.9281 144.646 21.9116C144.659 21.8951 144.675 21.8815 144.694 21.8715C144.775 21.8221 144.861 21.8405 144.952 21.9267C144.998 21.9712 145.016 22.0107 145.006 22.0454C144.999 22.065 144.987 22.0825 144.971 22.0968C144.956 22.111 144.937 22.1214 144.917 22.1273C144.956 22.1583 145.002 22.1794 145.051 22.1887" fill="white"/>
<path d="M145.215 21.6987C145.22 21.6922 145.227 21.6916 145.236 21.697C145.269 21.7195 145.298 21.7474 145.322 21.7794C145.325 21.7831 145.326 21.7875 145.327 21.7922C145.327 21.7968 145.326 21.8015 145.324 21.8056L145.259 21.8978C145.252 21.9058 145.245 21.9055 145.238 21.8978C145.231 21.8901 145.21 21.8682 145.176 21.834L145.131 21.8996C145.124 21.9076 145.116 21.907 145.109 21.8975C145.101 21.888 145.072 21.8593 145.024 21.8121C145.022 21.8107 145.021 21.8089 145.02 21.8069C145.019 21.8049 145.018 21.8026 145.018 21.8003C145.017 21.798 145.018 21.7957 145.018 21.7935C145.019 21.7913 145.02 21.7892 145.021 21.7875L145.087 21.7002C145.092 21.6937 145.099 21.6931 145.108 21.6984C145.132 21.7147 145.154 21.734 145.173 21.7557L145.215 21.6987ZM145.121 22.0515L145.16 21.9723C145.175 21.944 145.186 21.9405 145.194 21.9616C145.229 22.0511 145.233 22.1496 145.205 22.2417C145.178 22.3406 145.123 22.3795 145.039 22.3583C145.022 22.3542 145.011 22.3355 145.006 22.3022C145.001 22.2761 145 22.2495 145.001 22.223C145.001 22.2146 145.004 22.2064 145.009 22.2C145.015 22.1936 145.022 22.1895 145.031 22.1883C145.037 22.1869 145.044 22.1869 145.05 22.1883C145.067 22.1953 145.085 22.1983 145.104 22.197C145.122 22.1958 145.139 22.1902 145.155 22.1809C145.152 22.1558 145.143 22.1317 145.13 22.1103C145.123 22.102 145.119 22.0921 145.118 22.0817C145.116 22.0713 145.118 22.0606 145.122 22.0509" fill="white"/>
<path d="M146.071 22.4153C146.091 22.4216 146.103 22.4407 146.108 22.4725C146.112 22.5028 146.111 22.5336 146.104 22.5633C146.097 22.593 146.083 22.6055 146.063 22.6034C145.994 22.5945 145.95 22.5457 145.932 22.4571C145.912 22.4794 145.895 22.4903 145.881 22.49C145.849 22.4913 145.817 22.4859 145.787 22.4741C145.757 22.4623 145.73 22.4444 145.708 22.4215C145.699 22.4108 145.693 22.3978 145.691 22.3839C145.689 22.37 145.691 22.3557 145.696 22.3429C145.713 22.2924 145.745 22.2484 145.788 22.2174C145.826 22.1901 145.871 22.1731 145.917 22.1681L145.919 22.1159C145.923 22.0931 145.931 22.0713 145.944 22.0515C145.954 22.0311 145.965 22.0113 145.978 21.9922C145.979 21.9901 145.981 21.9884 145.983 21.9871C145.985 21.9857 145.987 21.9849 145.989 21.9845C145.992 21.9842 145.994 21.9844 145.996 21.9851C145.999 21.9858 146.001 21.987 146.002 21.9886C146.007 21.9908 146.01 21.9939 146.013 21.9978C146.015 22.0016 146.017 22.006 146.018 22.0106C146.018 22.0186 146.018 22.0236 146.018 22.0257C146.018 22.0278 146.018 22.0305 146.018 22.0337C146.018 22.037 146.018 22.0417 146.018 22.0477C146.018 22.0536 146.018 22.085 146.015 22.1417C146.011 22.1984 146.013 22.2512 146.015 22.3008C146.013 22.3356 146.022 22.3702 146.041 22.3996C146.049 22.4078 146.059 22.4136 146.07 22.4165M145.915 22.28C145.887 22.2838 145.86 22.2932 145.835 22.3076C145.85 22.314 145.865 22.3189 145.881 22.3221C145.893 22.3253 145.905 22.3253 145.916 22.3221C145.916 22.3118 145.916 22.2976 145.916 22.2794" fill="white"/>
<path d="M146.11 21.0639C146.12 21.0411 146.132 21.0434 146.147 21.0704C146.219 21.1908 146.24 21.3345 146.206 21.4704C146.203 21.4832 146.197 21.4891 146.19 21.4879C146.174 21.4879 146.166 21.4775 146.165 21.4597C146.16 21.3645 146.134 21.2716 146.088 21.1879C146.084 21.1817 146.082 21.1747 146.081 21.1675C146.08 21.1603 146.081 21.153 146.083 21.1461L146.11 21.0639Z" fill="white"/>
<path d="M146.297 21.5557C146.301 21.5314 146.31 21.521 146.324 21.5261C146.338 21.5311 146.346 21.5427 146.346 21.5626C146.346 21.5649 146.346 21.5673 146.346 21.5697C146.343 21.6115 146.333 21.6526 146.316 21.691C146.297 21.729 146.272 21.7456 146.24 21.7409C146.23 21.738 146.22 21.733 146.211 21.726C146.202 21.7191 146.195 21.7104 146.19 21.7005C146.179 21.716 146.163 21.7279 146.146 21.7349C146.135 21.7387 146.123 21.7397 146.112 21.7377C146.1 21.7358 146.089 21.7311 146.08 21.724C146.031 21.6868 146.028 21.6161 146.072 21.5118C146.08 21.4931 146.091 21.4887 146.105 21.4976H146.108C146.114 21.5031 146.118 21.5103 146.12 21.5183C146.122 21.5263 146.121 21.5346 146.118 21.5421C146.115 21.5508 146.113 21.5596 146.111 21.5685C146.106 21.5982 146.111 21.6148 146.125 21.6216C146.145 21.6297 146.163 21.6123 146.18 21.5694C146.185 21.5581 146.189 21.5456 146.193 21.5314C146.198 21.5172 146.208 21.5065 146.22 21.5115H146.222C146.227 21.5142 146.232 21.5185 146.235 21.5238C146.238 21.5291 146.239 21.5352 146.238 21.5412C146.239 21.543 146.239 21.5448 146.238 21.5465C146.237 21.554 146.236 21.5615 146.235 21.5691C146.234 21.5925 146.24 21.6071 146.252 21.6127L146.257 21.6145C146.276 21.6198 146.289 21.605 146.296 21.5703C146.298 21.5651 146.299 21.5599 146.3 21.5545" fill="white"/>
<path d="M146.355 22.4715C146.367 22.4778 146.376 22.4872 146.383 22.4986C146.39 22.5101 146.394 22.5231 146.394 22.5365C146.398 22.5661 146.397 22.5962 146.391 22.6255C146.385 22.6522 146.379 22.667 146.372 22.67C146.366 22.673 146.36 22.6742 146.354 22.6735C146.318 22.6671 146.286 22.6471 146.264 22.6178C146.243 22.5874 146.225 22.5548 146.211 22.5204C146.198 22.5524 146.176 22.5795 146.146 22.5976C146.12 22.6068 146.091 22.6084 146.064 22.602C146.05 22.5982 146.038 22.5907 146.028 22.5802C146.018 22.5697 146.012 22.5567 146.009 22.5427C145.999 22.5116 145.999 22.4782 146.009 22.4471C146.011 22.4406 146.014 22.4344 146.018 22.4292C146.023 22.4239 146.028 22.4196 146.034 22.4165C146.04 22.4135 146.047 22.4118 146.054 22.4115C146.061 22.4113 146.067 22.4125 146.074 22.4151C146.121 22.4268 146.154 22.4169 146.172 22.3854C146.172 22.3751 146.169 22.3558 146.166 22.3261L146.15 22.162C146.142 22.0938 146.137 22.046 146.135 22.0193C146.132 21.9989 146.136 21.9779 146.146 21.96L146.185 21.9054C146.187 21.9023 146.189 21.8997 146.192 21.8977C146.195 21.8957 146.199 21.8944 146.202 21.8938C146.219 21.8938 146.229 21.9077 146.234 21.9389C146.235 21.9481 146.238 21.9843 146.243 22.0475C146.246 22.1639 146.261 22.2797 146.289 22.3929C146.294 22.4092 146.303 22.4243 146.314 22.4372C146.326 22.4501 146.34 22.4606 146.355 22.4679" fill="white"/>
<path d="M146.414 21.9912L146.457 22.3333C146.463 22.385 146.467 22.4212 146.467 22.4419C146.468 22.4656 146.466 22.4892 146.462 22.5126C146.445 22.6332 146.409 22.6871 146.353 22.6743C146.334 22.6668 146.318 22.6547 146.305 22.6391C146.292 22.6235 146.284 22.605 146.28 22.5852C146.265 22.534 146.266 22.4986 146.285 22.479C146.292 22.4698 146.303 22.4638 146.315 22.462C146.327 22.4603 146.34 22.4629 146.35 22.4695C146.357 22.4741 146.366 22.4771 146.375 22.4784C146.373 22.4488 146.365 22.3871 146.353 22.2974C146.34 22.2078 146.33 22.1301 146.323 22.0639C146.323 22.0249 146.338 21.9873 146.363 21.9577C146.366 21.9545 146.369 21.9517 146.372 21.9496C146.376 21.9475 146.379 21.9461 146.383 21.9456C146.4 21.9456 146.41 21.9619 146.413 21.9915" fill="white"/>
<path d="M146.677 21.7588C146.696 21.7218 146.706 21.7337 146.707 21.7944L146.718 22.1398C146.739 22.3314 146.723 22.5253 146.672 22.7112C146.663 22.7266 146.656 22.732 146.649 22.7269C146.641 22.7219 146.639 22.6988 146.642 22.6572C146.647 22.5856 146.642 22.4208 146.626 22.1629L146.612 21.9255C146.611 21.9066 146.614 21.8877 146.623 21.8707L146.677 21.7588Z" fill="white"/>
<path d="M147.445 22.2702C147.464 22.2491 147.475 22.2642 147.475 22.3159L147.493 22.6538C147.497 22.7428 147.519 22.7909 147.559 22.7992C147.569 22.8017 147.577 22.8068 147.584 22.814C147.59 22.8211 147.594 22.83 147.596 22.8395C147.601 22.8674 147.599 22.8961 147.59 22.9229C147.58 22.9541 147.568 22.968 147.552 22.9648C147.531 22.9612 147.512 22.9531 147.494 22.9412C147.477 22.9292 147.462 22.9137 147.451 22.8956C147.429 22.845 147.417 22.7904 147.417 22.7351C147.385 22.7796 147.363 22.8039 147.351 22.8078C147.331 22.811 147.31 22.8083 147.292 22.8001C147.256 22.7884 147.224 22.768 147.198 22.7407C147.19 22.7323 147.184 22.7219 147.18 22.7106C147.177 22.6992 147.176 22.6871 147.178 22.6755C147.184 22.6464 147.194 22.6185 147.208 22.5927C147.219 22.5708 147.232 22.5503 147.248 22.5316C147.291 22.4917 147.34 22.4601 147.394 22.4384C147.388 22.3954 147.392 22.3515 147.406 22.3105L147.445 22.2702ZM147.403 22.5425C147.379 22.5433 147.356 22.549 147.334 22.5592C147.313 22.5694 147.293 22.584 147.278 22.6019C147.277 22.603 147.276 22.6043 147.276 22.6056C147.276 22.607 147.276 22.6084 147.276 22.6097C147.276 22.6111 147.276 22.6125 147.277 22.6137C147.278 22.6149 147.279 22.6159 147.28 22.6167C147.317 22.6448 147.363 22.6579 147.409 22.6532C147.409 22.6235 147.406 22.5865 147.403 22.5423" fill="white"/>
<path d="M147.867 22.9935C147.791 22.9664 147.723 22.9218 147.669 22.8633C147.633 22.9408 147.594 22.9746 147.553 22.9647C147.533 22.9597 147.521 22.9413 147.516 22.9101C147.504 22.8439 147.512 22.807 147.539 22.7995C147.546 22.7976 147.554 22.7976 147.561 22.7995C147.575 22.8041 147.589 22.8052 147.604 22.8026C147.618 22.8 147.631 22.7938 147.643 22.7846C147.66 22.7345 147.69 22.6898 147.73 22.655C147.746 22.6486 147.763 22.647 147.779 22.6505C147.804 22.6541 147.829 22.6641 147.849 22.6797C147.87 22.6953 147.886 22.7159 147.896 22.7395C147.924 22.7834 147.937 22.8358 147.931 22.8879C147.926 22.9174 147.914 22.9455 147.897 22.9701C147.882 22.9876 147.873 22.9956 147.867 22.9944M147.818 22.7751C147.775 22.7316 147.744 22.7239 147.723 22.752C147.763 22.7935 147.811 22.8259 147.864 22.8469C147.855 22.8197 147.839 22.795 147.818 22.7751" fill="white"/>
<path d="M147.898 22.4288C147.928 22.4376 147.956 22.4534 147.978 22.4751C148.003 22.4986 148.03 22.5254 148.056 22.5555C148.133 22.6399 148.227 22.7076 148.332 22.7543C148.336 22.7561 148.34 22.759 148.343 22.7626C148.346 22.7663 148.348 22.7707 148.349 22.7754C148.352 22.7868 148.352 22.7986 148.349 22.8101C148.342 22.8337 148.33 22.8558 148.315 22.8757C148.314 22.8787 148.311 22.8813 148.309 22.8834C148.306 22.8854 148.303 22.8868 148.299 22.8875C148.296 22.8881 148.292 22.888 148.289 22.8872C148.285 22.8863 148.282 22.8847 148.28 22.8825C148.212 22.8378 148.141 22.8002 148.065 22.77C148.011 22.7492 147.952 22.7386 147.894 22.7389C147.845 22.7413 147.797 22.7322 147.754 22.7122C147.742 22.7068 147.733 22.6981 147.726 22.6872C147.72 22.6766 147.723 22.6665 147.735 22.6576C147.802 22.6242 147.879 22.6168 147.951 22.6368C147.928 22.6104 147.9 22.5892 147.868 22.5745C147.836 22.5597 147.801 22.5519 147.766 22.5514C147.762 22.5519 147.758 22.551 147.754 22.549C147.75 22.547 147.747 22.5439 147.745 22.5401C147.74 22.533 147.738 22.5245 147.738 22.5158C147.739 22.5072 147.742 22.499 147.747 22.4923C147.764 22.468 147.787 22.449 147.814 22.4379C147.841 22.4267 147.871 22.4239 147.899 22.4297" fill="white"/>
<path d="M148.677 22.809C148.684 22.7858 148.698 22.7946 148.721 22.8354C148.747 22.8885 148.766 22.9455 148.775 23.0042C148.791 23.0734 148.792 23.1453 148.777 23.2149C148.763 23.2845 148.733 23.35 148.69 23.4068C148.669 23.4354 148.643 23.4592 148.612 23.4767C148.582 23.4941 148.548 23.5048 148.513 23.508C148.49 23.5109 148.467 23.5047 148.449 23.4908C148.383 23.4399 148.332 23.3989 148.296 23.3677C148.284 23.357 148.28 23.3466 148.284 23.338C148.289 23.3294 148.298 23.3267 148.31 23.3344C148.346 23.3602 148.388 23.3752 148.432 23.3774C148.477 23.3722 148.52 23.3586 148.56 23.3374C148.634 23.3101 148.694 23.2562 148.73 23.1864C148.73 23.184 148.73 23.1816 148.73 23.1792C148.713 23.1088 148.683 23.0424 148.64 22.9837C148.638 22.9796 148.636 22.975 148.635 22.9702C148.635 22.9654 148.635 22.9605 148.636 22.9558L148.677 22.809Z" fill="white"/>
</g>
</g>
<defs>
<clipPath id="clip0_10845_601">
<rect width="162" height="54" fill="white" transform="translate(0 0.80127)"/>
</clipPath>
</defs>
</svg>
