<svg width="977" height="1058" viewBox="0 0 977 1058" fill="none" xmlns="http://www.w3.org/2000/svg">
<path d="M2.24817 940.788C16.7473 963.69 27.3811 988.83 33.722 1015.2C60.6995 838.93 145.409 888.237 255.657 963.819C270.54 972.562 312.265 996.224 309.163 963.323C260.153 857.544 144.15 797.331 91.6785 690.876C82.2647 675.914 77.7207 658.39 78.6744 640.726C79.6281 623.063 86.0324 606.133 97.0021 592.277C107.972 578.42 122.965 568.322 139.909 563.379C156.853 558.435 174.911 558.89 191.585 564.68C285.782 596.229 353.451 672.623 438.115 719.36C573.273 814.683 737.925 728.374 689.905 557.92C598.452 568.106 417.028 523.802 460.237 399.094C547.284 281.011 696.56 426.541 724.077 525.92C977.891 477.786 996.01 208.403 934.502 1.80277L940.077 0C1014.04 213.135 992.189 493.515 732.08 551.159C780.775 696.645 658.567 845.06 505.829 804.993C393.422 777.59 309.522 694.977 212.628 639.361C189.877 627.868 151.973 606.46 139.069 637.558C142.891 688.848 193.024 732.205 224.498 772.768C266.853 822.344 315.367 867.775 345.177 927.628C371.615 971.751 339.152 1036.56 283.669 1020.34C176.703 983.83 94.3765 818.243 43.6138 1018.8C60.0251 996.63 88.0366 975.762 117.082 981.531V983.785C83.8551 998.027 68.0732 1028.18 44.5578 1053.01C42.5875 1055.31 39.9418 1056.92 37.0005 1057.62C34.0593 1058.31 30.9739 1058.06 28.187 1056.88C25.4001 1055.71 23.0551 1053.69 21.4887 1051.1C19.9224 1048.51 19.2151 1045.48 19.4686 1042.47C20.6826 1008.12 12.2299 974.275 6.10352e-05 942.185L2.24817 940.788ZM651.912 472.062C490.047 259.062 370.267 531.329 681.453 530.653C673.862 510.059 663.951 490.401 651.912 472.062ZM37.7684 1043.14C37.7684 1043.5 37.7234 1043.37 37.7684 1043.14V1043.14Z" fill="#FFC042"/>
</svg>
