<svg width="108" height="109" viewBox="0 0 108 109" fill="none" xmlns="http://www.w3.org/2000/svg">
<path d="M69.2548 24.2463L75.5997 36.9362C76.4547 38.6912 78.7497 40.3562 80.6847 40.7162L92.1598 42.6062C99.4948 43.8212 101.205 49.1312 95.9398 54.4412L86.9847 63.3963C85.4997 64.8813 84.6448 67.8062 85.1398 69.9212L87.7047 80.9913C89.7297 89.7213 85.0498 93.1412 77.3548 88.5512L66.5997 82.1612C64.6647 80.9912 61.4248 80.9912 59.4898 82.1612L48.7347 88.5512C41.0397 93.0962 36.3598 89.7213 38.3848 80.9913L40.9498 69.9212C41.4448 67.8512 40.5898 64.9263 39.1048 63.3963L30.1498 54.4412C24.8848 49.1762 26.5948 43.8662 33.9298 42.6062L45.4048 40.7162C47.3398 40.4012 49.6348 38.6912 50.4898 36.9362L56.8348 24.2463C60.2098 17.3613 65.7898 17.3613 69.2548 24.2463Z" stroke="#FFC042" stroke-width="6.75" stroke-linecap="round" stroke-linejoin="round"/>
<path d="M36 23.3013H9" stroke="#FFC042" stroke-width="6.75" stroke-linecap="round" stroke-linejoin="round"/>
<path d="M22.5 86.3013H9" stroke="#FFC042" stroke-width="6.75" stroke-linecap="round" stroke-linejoin="round"/>
<path d="M13.5 54.8013H9" stroke="#FFC042" stroke-width="6.75" stroke-linecap="round" stroke-linejoin="round"/>
</svg>
