<svg width="41" height="41" viewBox="0 0 41 41" fill="none" xmlns="http://www.w3.org/2000/svg">
<path d="M32.1986 31.5396L28.5834 24.3263L24.9683 31.5396" stroke="white" stroke-width="2.53398" stroke-linecap="round" stroke-linejoin="round"/>
<path d="M25.627 30.2556H31.5734" stroke="white" stroke-width="2.53398" stroke-linecap="round" stroke-linejoin="round"/>
<path d="M28.5835 37.1652C23.8534 37.1652 20.0017 33.3304 20.0017 28.5834C20.0017 23.8533 23.8365 20.0017 28.5835 20.0017C33.3136 20.0017 37.1652 23.8364 37.1652 28.5834C37.1652 33.3304 33.3305 37.1652 28.5835 37.1652Z" stroke="white" stroke-width="2.53398" stroke-linecap="round" stroke-linejoin="round"/>
<path d="M8.48042 3.37866H15.1026C18.5994 3.37866 20.2888 5.06802 20.2043 8.48044V15.1025C20.2888 18.5994 18.5994 20.2888 15.1026 20.2043H8.48042C5.06799 20.2719 3.37866 18.5825 3.37866 15.0856V8.46353C3.37866 5.068 5.06799 3.37866 8.48042 3.37866Z" stroke="white" stroke-width="2.53398" stroke-linecap="round" stroke-linejoin="round"/>
<path d="M15.2207 9.88232H8.36206" stroke="white" stroke-width="2.53398" stroke-linecap="round" stroke-linejoin="round"/>
<path d="M11.7744 8.73364V9.88237" stroke="white" stroke-width="2.53398" stroke-linecap="round" stroke-linejoin="round"/>
<path d="M13.4976 9.8656C13.4976 12.8219 11.1833 15.2207 8.34521 15.2207" stroke="white" stroke-width="2.53398" stroke-linecap="round" stroke-linejoin="round"/>
<path d="M15.2207 15.2208C13.9875 15.2208 12.8725 14.5619 12.0955 13.5145" stroke="white" stroke-width="2.53398" stroke-linecap="round" stroke-linejoin="round"/>
<path d="M3.37866 25.3398C3.37866 31.8775 8.66624 37.1651 15.2039 37.1651L13.4301 34.2088" stroke="white" stroke-width="2.53398" stroke-linecap="round" stroke-linejoin="round"/>
<path d="M37.1651 15.2039C37.1651 8.66624 31.8775 3.37866 25.3398 3.37866L27.1136 6.33497" stroke="white" stroke-width="2.53398" stroke-linecap="round" stroke-linejoin="round"/>
</svg>
