<svg width="938" height="341" viewBox="0 0 938 341" fill="none" xmlns="http://www.w3.org/2000/svg">
<path d="M86.4884 272.585C88.4217 274.421 88.1317 275.871 87.745 277.225C84.0717 290.178 78.8517 302.455 70.3451 313.088C67.7351 316.375 64.5451 318.888 60.9684 321.111C56.6184 323.915 51.9785 325.075 46.8551 323.141C46.0818 322.851 45.3085 322.851 44.2451 322.658C43.4718 323.915 42.6985 325.075 42.0218 326.331C32.8385 345.278 26.4585 365.191 22.1085 385.781C19.5952 397.671 17.3719 409.561 16.4052 421.741C15.6319 431.215 15.1486 440.688 17.0819 450.064C17.4685 452.094 17.9519 454.124 18.6285 456.058C24.4285 473.748 40.2818 483.801 58.8418 481.578C70.3451 480.128 81.3651 476.938 91.6117 471.428C125.252 453.351 157.345 433.148 187.021 408.981C203.358 395.641 218.535 381.335 231.778 364.901C238.545 356.588 244.441 347.695 249.565 338.318C251.885 334.065 252.271 330.005 251.015 325.365C243.861 299.168 235.548 273.358 225.301 248.225C216.601 226.862 207.128 205.885 197.848 184.812C192.048 171.665 186.055 158.615 179.965 145.565C178.225 141.892 177.355 138.218 177.452 134.255C177.645 121.108 177.838 107.962 178.128 94.7185C178.128 92.8819 178.418 91.1418 178.515 89.5952C180.158 88.7252 180.835 89.7885 181.415 90.4652C183.638 93.1718 186.055 95.7818 187.795 98.7785C197.075 113.858 206.355 128.842 215.345 144.115C223.561 157.938 229.265 173.018 234.968 188.002C243.668 210.912 252.368 233.725 258.458 257.505C262.131 271.811 265.031 286.408 267.835 300.908C271.121 317.825 273.925 334.935 276.728 351.948C278.951 365.095 284.558 376.501 293.258 386.555C305.438 400.475 320.421 410.335 337.145 417.778C342.751 420.291 348.648 422.224 354.738 423.578C356.961 424.061 358.701 423.771 360.538 422.514C370.784 415.264 381.224 408.305 391.374 400.958C395.821 397.671 399.591 393.515 403.748 389.841C406.454 387.425 407.131 384.428 406.454 380.851C403.264 364.128 400.074 347.308 393.211 331.551C388.861 321.788 384.318 312.121 379.581 302.551C377.744 298.781 377.164 295.398 378.228 291.338C381.321 279.158 384.028 266.978 386.928 254.798C387.121 253.831 387.701 252.961 388.281 251.608C389.248 252.381 390.311 252.768 390.698 253.542C391.954 255.668 393.018 257.892 393.984 260.115C397.464 268.042 401.428 275.678 406.164 282.928C412.351 292.498 421.341 297.718 432.264 300.038C443.864 302.455 455.174 301.198 466.388 298.008C474.218 295.785 481.371 292.305 487.944 287.568C492.294 284.475 492.874 282.831 491.424 277.611C488.814 268.041 485.334 258.858 480.404 250.158C478.181 246.195 475.958 242.232 473.734 238.365C472.768 236.722 472.188 235.078 472.768 233.145C476.054 222.125 479.244 211.105 483.208 200.472C485.044 199.698 485.721 200.955 486.398 201.922C495.291 214.585 501.574 228.215 503.991 243.585C506.601 260.115 505.441 276.355 501.091 292.498C499.737 297.428 498.191 302.358 496.838 307.288C494.324 316.375 489.008 323.528 481.468 329.038C468.514 338.511 453.918 342.475 437.871 341.315C431.684 340.831 425.788 339.381 419.601 337.351C418.634 339.285 418.924 341.121 419.021 342.861C419.118 354.365 418.344 365.868 416.411 377.275C414.478 388.391 411.868 399.411 408.484 410.238C406.744 416.038 403.361 420.968 399.784 425.801C398.141 428.121 396.111 430.151 394.758 433.051C397.174 434.308 399.688 434.404 402.104 434.598C422.404 436.434 442.801 436.338 463.198 434.984C490.748 433.148 518.007 429.378 544.977 423.481C551.164 422.128 557.351 420.388 563.441 418.648C564.987 418.261 566.437 417.488 568.177 416.715C568.177 414.298 568.177 411.978 568.177 409.755C567.114 386.361 566.051 362.871 564.987 339.478C564.504 329.425 564.117 319.371 563.634 309.318C562.667 288.148 561.797 266.978 560.637 245.808C559.284 222.028 557.737 198.152 556.287 174.372C555.321 158.808 554.354 143.148 553.387 127.585C553.001 121.012 551.841 114.535 549.811 108.252C549.231 106.512 548.651 104.868 549.327 102.839C554.064 89.2085 558.607 75.5786 563.151 61.9486C563.247 61.5619 563.634 61.2719 563.827 60.8853C566.147 61.8519 566.051 64.1719 566.727 66.0086C572.044 82.2485 577.457 98.3918 582.484 114.728C586.737 128.648 590.604 142.762 594.567 156.778C595.147 158.712 595.341 160.838 595.534 162.868C595.631 164.705 595.921 166.832 593.794 167.702C591.667 168.572 590.411 166.928 589.251 165.478C587.511 163.158 585.867 160.838 584.127 158.518C582.871 156.875 581.711 155.232 580.357 153.588C580.067 153.202 579.391 153.105 578.327 152.622C585.191 238.655 588.091 324.495 592.054 410.721C593.601 410.528 594.761 410.721 595.824 410.335C605.007 407.435 614.287 404.535 623.374 401.345C643.191 394.385 663.007 387.425 682.63 380.271C695.971 375.341 708.827 369.445 721.104 362.195C725.679 359.552 727.387 355.654 726.227 350.498C723.81 339.575 720.04 329.231 714.144 319.661C710.374 313.571 706.797 307.288 703.027 301.198C701.577 298.975 701.19 296.751 701.674 294.141C703.704 283.025 705.734 271.908 707.764 260.792C708.054 259.052 708.344 257.118 709.89 255.958C711.727 255.572 712.694 256.828 713.467 257.988C715.69 260.985 717.817 263.982 719.847 267.075C726.227 277.128 731.447 287.955 736.087 298.975C740.92 310.671 741.887 322.851 740.437 335.321C738.794 349.725 734.54 363.548 729.224 376.888C724.97 387.425 717.817 395.738 707.667 401.441C689.397 411.881 670.064 419.905 650.247 427.058C633.814 432.954 617.284 438.755 600.851 444.555C598.724 445.328 596.694 446.198 594.857 446.971C593.407 449.484 593.987 451.804 594.084 454.028C594.471 465.338 595.051 476.648 595.534 487.958C596.211 505.261 596.984 522.468 597.467 539.771C598.047 559.878 599.111 580.081 598.531 600.188C597.951 621.164 596.791 642.141 592.731 662.731C590.507 674.041 587.511 685.157 583.547 695.984C582.967 697.531 582.484 699.174 581.517 700.431C580.937 701.301 579.487 701.881 578.424 701.881C577.071 701.881 576.394 700.624 576.297 699.271C576.297 697.627 576.297 695.984 576.297 694.341C577.457 668.627 578.231 642.914 577.361 617.201C576.587 592.937 575.524 568.674 574.461 544.411C573.591 524.884 572.527 505.358 571.464 485.831C570.981 477.034 570.594 468.141 570.111 459.344C570.111 457.798 569.724 456.154 569.434 454.124C567.501 454.414 565.954 454.608 564.407 454.994C547.491 458.571 530.671 462.534 513.754 465.821C477.408 472.878 440.868 476.068 403.844 473.941C386.154 472.878 368.658 470.461 351.451 466.111C348.358 465.338 346.038 465.724 343.331 467.368C326.125 477.904 309.015 488.538 291.615 498.688C253.431 521.114 214.281 541.608 173.488 558.814C165.948 562.004 158.408 565.291 150.675 568.191C140.235 572.154 129.312 574.184 118.195 575.248C96.9284 577.374 75.5651 579.211 54.3951 582.594C43.8585 584.334 33.3218 586.461 23.0752 589.264C21.9152 589.554 20.6585 589.941 19.4985 590.134C17.7586 590.328 16.3085 589.651 15.1485 588.297C14.5685 587.524 14.6652 585.977 15.4385 585.591C16.5019 585.011 17.6619 584.431 18.8219 584.141C30.2285 581.434 41.2485 577.181 52.0751 572.734C108.528 549.438 164.595 525.271 219.598 498.591C249.081 484.284 277.598 468.334 306.211 452.578C307.275 451.998 308.241 451.224 309.208 450.644C309.208 448.614 307.661 448.131 306.695 447.261C301.378 442.718 295.965 438.271 290.745 433.534C276.051 420.194 267.351 403.568 264.065 384.041C262.035 371.668 259.715 359.391 257.298 346.051C256.331 347.598 255.655 348.275 255.461 349.048C254.108 355.041 253.045 361.131 251.691 367.125C249.855 375.631 246.278 383.558 241.155 390.615C236.901 396.415 232.455 402.118 227.718 407.531C217.665 419.035 207.128 430.054 195.818 440.204C165.272 467.368 132.695 491.631 96.2517 510.481C86.0051 515.798 75.4684 520.534 64.0618 522.758C57.5851 524.014 51.1085 524.691 44.4385 523.821C32.8385 522.371 23.4619 517.054 16.2119 507.871C10.6052 500.814 7.12523 492.694 4.80524 484.091C-0.12475 465.724 -0.801433 447.164 1.61523 428.411C6.44855 391.581 17.3719 356.588 32.5485 322.851C33.6118 320.435 34.6752 317.921 35.6418 315.795C35.6418 315.215 35.6418 315.021 35.5452 314.828C28.7785 301.005 29.3585 286.601 32.4519 272.005C34.5785 261.951 38.2518 252.285 42.6018 242.908C54.5885 216.905 68.3151 191.868 82.7184 167.122C89.2917 155.908 96.0584 144.888 102.825 133.868C105.338 129.808 108.142 126.038 110.848 122.172C111.428 121.398 112.202 120.722 112.782 120.045C115.005 120.722 115.682 122.172 115.102 123.912C114.425 125.845 113.458 127.682 112.492 129.422C96.5417 159.098 80.4951 188.872 64.5451 218.548C61.7418 223.768 58.9385 229.085 56.2318 234.402C51.5918 243.682 48.1118 253.251 46.0818 263.401C44.6318 270.555 44.7285 277.708 46.7585 284.765C49.8518 295.301 59.4218 299.265 69.1851 294.141C73.5351 291.918 76.6284 288.341 78.8517 284.088C80.3017 281.381 81.6551 278.578 83.2984 275.968C83.9751 274.808 85.2317 274.035 86.2951 272.875L86.4884 272.585Z" fill="white" fill-opacity="0.01"/>
<path d="M713.173 713.093C722.936 726.626 734.053 736.873 750.003 740.739C759.863 743.156 769.626 742.383 779.293 739.676C793.986 735.616 807.036 728.269 819.313 719.473C821.923 717.539 824.146 715.026 826.369 712.996C826.369 710.966 826.369 709.516 826.369 708.163C826.176 680.226 826.273 652.193 825.789 624.256C825.403 600.766 824.533 577.373 823.566 553.98C822.309 525.656 820.763 497.236 819.216 468.913C818.249 450.837 817.283 432.76 816.219 414.683C815.253 397.863 814.093 381.043 813.126 364.223C812.159 347.21 811.193 330.1 810.226 313.087C809.163 292.787 808.003 272.39 807.036 252.09C806.359 238.074 805.779 224.154 805.393 210.137C805.296 206.077 804.619 202.404 801.236 199.697C800.269 198.924 799.496 197.86 799.013 196.797C798.529 195.734 798.143 194.38 798.433 193.317C798.819 191.287 799.399 189.257 800.366 187.517C804.716 178.817 807.519 169.634 810.129 160.257C810.613 158.517 810.806 156.584 812.643 155.134C813.416 155.52 814.383 155.81 815.059 156.487C816.413 158.034 817.573 159.677 818.829 161.417C837.293 186.454 853.726 212.844 868.226 240.297C872.383 248.127 876.443 255.957 880.793 263.69C895.679 290.177 906.699 318.21 915.303 347.307C922.263 370.797 928.256 394.48 932.122 418.647C936.956 448.613 938.792 478.773 937.149 509.03C933.766 570.8 917.042 628.799 888.043 683.416C880.019 698.496 870.643 712.803 859.913 726.143C858.753 727.593 857.496 728.946 856.143 730.203C855.756 730.589 854.499 730.396 853.919 730.009C853.339 729.623 852.663 728.463 852.856 727.979C853.533 726.239 854.403 724.596 855.369 723.049C863.393 709.903 870.643 696.273 877.119 682.256C892.779 648.036 903.413 612.27 909.406 575.15C913.369 550.5 915.302 525.753 914.916 500.813C914.046 441.943 902.446 385.297 879.343 331.067C877.796 327.49 876.153 323.913 874.413 320.433C861.943 295.397 848.893 270.65 834.973 246.387C833.716 244.26 832.459 242.23 831.299 240.2C829.463 240.684 829.849 241.844 829.946 242.81C830.526 253.927 831.009 265.044 831.686 276.064C832.169 285.054 832.943 294.14 833.523 303.13C834.973 325.267 836.326 347.5 837.776 369.637C839.613 397.96 841.643 426.283 843.286 454.606C844.543 475.97 845.413 497.333 846.379 518.696C848.409 560.65 849.086 602.603 848.409 644.556C848.023 665.339 846.283 686.123 841.256 706.326C837.873 720.149 832.846 733.393 826.756 746.249C824.339 751.373 820.763 755.626 816.413 759.106C800.366 771.962 782.483 780.759 761.7 782.886C753.773 783.659 746.136 782.789 738.596 780.372C727.383 776.796 717.813 770.513 710.08 761.716C707.083 758.333 704.473 754.659 702.636 750.406C699.543 743.059 696.45 735.616 693.356 728.269C692.873 727.206 692.39 726.046 692.003 725.079C691.326 725.079 690.843 724.983 690.553 725.079C689.2 725.563 687.846 726.046 686.493 726.626C661.36 738.613 634.97 747.313 608.87 756.689C595.723 761.329 582.77 766.743 570.01 772.446C555.027 779.116 541.59 788.202 529.217 798.836C515.007 811.112 502.537 825.129 490.55 839.436C480.013 852.099 469.477 864.762 458.94 877.329C452.85 884.676 445.6 890.766 438.06 896.469C428.394 903.719 417.374 907.489 405.387 907.972C394.657 908.359 384.604 905.652 375.324 900.239C366.237 894.922 359.084 887.672 353.38 878.972C347.29 869.596 343.23 859.252 340.234 848.522C339.17 844.752 338.397 840.886 337.527 837.116C337.14 835.376 336.56 833.636 335.98 831.509C333.854 832.186 332.114 832.766 330.47 833.442C313.747 840.016 296.54 844.849 278.754 847.362C258.744 850.166 238.927 849.779 219.401 844.462C188.854 836.149 165.751 818.169 150.188 790.716C140.811 774.186 135.784 756.303 133.754 737.453C130.178 704.586 136.268 673.169 148.157 642.623C151.927 632.859 156.471 623.386 161.497 614.106C162.174 612.849 162.851 611.593 163.624 610.336C164.977 608.306 167.877 607.63 170.197 608.886C170.777 609.176 171.357 610.24 171.261 610.916C170.971 612.27 170.487 613.623 169.811 614.879C161.884 630.346 156.374 646.683 152.024 663.406C148.931 675.393 147.384 687.669 147.481 700.043C147.674 747.506 174.644 785.883 219.401 801.929C239.894 809.276 261.064 811.209 282.621 808.792C300.407 806.859 317.324 801.929 333.564 794.582C335.11 793.906 336.56 793.132 338.01 792.456C340.04 791.489 341.104 789.943 341.587 787.719C342.07 784.916 342.747 782.112 343.327 779.309C347.484 761.136 354.54 744.026 363.24 727.689C367.59 719.473 372.23 711.546 376.87 703.523C379.287 699.269 381.897 695.016 384.507 690.569C383.734 689.409 383.057 688.249 382.187 687.089C377.74 681.193 375.42 674.523 374.55 667.176C373.197 654.706 374.744 642.526 377.837 630.539C381.414 616.813 385.474 603.183 389.34 589.553C389.824 587.813 390.694 586.17 391.66 584.623C391.95 584.14 393.207 583.753 393.787 583.946C394.367 584.14 394.947 585.01 395.237 585.783C395.43 586.266 395.334 587.04 395.237 587.62C394.947 589.263 394.56 590.81 394.077 592.453C389.437 608.886 386.054 625.609 382.67 642.333C381.607 647.746 381.124 653.353 382.187 658.863C382.864 662.343 383.927 665.629 385.764 668.626C390.307 675.683 399.104 675.586 403.357 668.336C404.614 666.306 405.194 663.793 405.774 661.376C406.45 658.573 406.547 655.673 407.127 652.869C407.32 651.999 407.804 651.129 408.577 649.293C409.35 651.033 409.93 651.806 410.027 652.676C410.8 661.763 410.51 670.753 407.417 679.453C406.837 681.193 406.064 682.933 405.194 684.576C401.81 691.149 399.394 693.083 391.95 694.726C391.274 695.886 390.404 697.239 389.63 698.689C382.284 713.189 375.034 727.689 367.687 742.189C360.824 755.626 356.957 770.126 352.897 784.626C354.637 785.689 355.797 784.626 356.957 784.046C373.68 776.023 390.017 767.323 406.064 758.139C431.777 743.349 456.523 727.109 480.4 709.613C483.397 707.389 486.297 705.069 489.1 702.653C490.84 701.203 492.29 699.463 493.837 697.819C496.35 695.113 496.737 692.019 495.287 688.733C494.803 687.573 494.417 686.413 493.933 685.349C489.97 676.359 486.297 667.079 481.947 658.283C474.697 643.686 469.09 628.509 463.87 613.043C460.39 602.893 456.91 592.84 453.333 582.786C452.077 579.113 451.014 575.246 446.76 573.41C449.177 565.676 451.593 558.523 453.817 551.273C455.943 544.216 457.973 537.16 460.197 529.523C461.647 530.973 462.71 531.843 463.483 533.003C468.317 539.383 473.15 545.763 477.983 552.24C486.103 563.163 494.223 573.99 502.15 585.01C504.663 588.49 506.79 592.26 508.917 596.03C509.787 597.48 509.303 599.123 508.24 599.896C507.177 600.766 505.92 600.766 504.76 600.186C503.31 599.51 501.86 598.64 500.507 597.77C496.447 595.353 492.483 592.84 488.327 590.423C487.167 589.746 485.813 589.36 484.653 588.876C483.493 590.23 484.363 591.1 484.653 591.97C487.843 599.8 491.13 607.533 494.32 615.363C498.96 626.77 503.213 638.369 506.017 650.453C510.85 671.526 509.207 692.019 502.15 712.416C496.833 727.979 487.747 740.159 474.213 749.729C449.66 767.033 425.107 784.336 399.104 799.513C384.217 808.212 368.654 815.753 353.09 823.389C351.254 824.259 349.417 825.226 347.29 826.289C347.387 827.739 347.29 829.189 347.58 830.542C348.74 837.502 350.867 844.172 354.154 850.359C358.407 858.286 364.497 864.279 372.907 867.469C396.01 876.169 417.374 873.559 436.224 856.836C453.237 841.756 468.8 825.516 483.107 807.826C489.68 799.706 496.543 791.682 503.6 783.949C515.2 771.286 528.057 760.073 543.04 751.469C548.937 748.086 554.93 744.896 561.117 742.189C587.12 730.783 613.8 721.019 640.48 711.256C652.853 706.713 665.226 702.169 677.503 697.626C680.21 696.659 682.82 695.403 685.623 694.243C685.623 689.216 684.85 684.576 684.366 679.936C682.53 664.373 680.113 649.003 679.823 633.246C679.823 630.539 679.823 627.929 679.726 625.223C679.34 616.619 681.08 608.5 684.366 600.573C686.493 595.45 688.716 590.326 691.036 585.3C694.903 576.986 700.413 569.833 706.6 563.163C712.593 556.88 720.036 556.686 727.77 558.91C731.153 559.876 734.053 562.003 736.566 564.42C739.756 567.416 742.366 570.8 744.493 574.666C749.519 583.85 753.966 593.323 757.253 603.376C761.119 615.459 761.506 627.639 759.766 640.013C757.543 655.866 751.743 670.559 744.783 684.866C742.753 689.023 739.95 692.503 736.76 695.789C731.636 701.203 725.74 705.649 719.553 709.806C717.91 710.966 716.266 712.126 714.043 713.576L713.173 713.093ZM702.153 683.706C707.083 682.353 710.95 680.323 714.816 678.583C722.84 674.909 730.573 670.559 737.34 664.663C739.853 662.536 742.076 660.119 744.396 657.703C746.426 655.576 746.813 652.966 746.04 650.259C745.75 649.293 745.46 648.326 745.073 647.359C740.046 635.373 734.633 623.676 727.963 612.56C726.03 609.37 723.806 606.373 721.39 603.57C719.843 601.733 717.716 600.186 715.59 599.026C711.916 596.9 707.953 596.9 704.57 599.51C699.253 603.57 695 608.596 692.776 614.976C691.81 617.78 691.713 620.583 692.196 623.483C694.613 638.273 696.933 653.159 699.35 667.949C700.22 672.976 701.186 678.003 702.25 683.706H702.153Z" fill="white" fill-opacity="0.01"/>
<path d="M620.857 235.073C627.914 222.119 634.777 209.553 642.027 196.793C649.567 200.66 656.334 204.816 663.294 208.683C670.061 212.453 676.731 216.513 683.884 220.09C687.557 215.063 689.974 209.65 692.874 204.526C695.774 199.403 698.674 194.183 701.284 189.35C701.961 189.156 702.154 189.06 702.347 188.963C702.541 188.963 702.734 188.963 702.927 189.06C715.784 196.31 728.737 203.56 741.594 210.81C742.077 211.1 742.561 211.583 742.947 211.969C743.044 212.066 743.14 212.356 743.43 212.936C736.664 225.213 729.704 237.779 722.647 250.636C721.101 249.959 719.747 249.573 718.587 248.896C708.051 242.903 697.514 236.909 686.977 231.013C685.044 229.949 683.014 228.886 680.791 227.629C679.921 228.886 678.954 229.853 678.277 231.109C674.024 238.649 669.964 246.189 665.807 253.729C664.841 255.469 663.777 257.209 662.811 258.853C657.591 256.823 625.497 238.649 620.857 234.976V235.073Z" fill="white" fill-opacity="0.01"/>
<path d="M621.147 62.0406C621.341 60.7839 621.437 59.8173 621.727 58.8506C623.757 51.8906 626.851 45.414 630.427 39.1307C632.457 35.554 634.391 31.9773 636.227 28.304C636.904 26.854 637.871 25.404 636.904 23.4707C634.294 22.504 631.781 23.4707 629.267 24.244C623.757 25.984 618.344 27.9173 612.931 29.754C601.814 33.524 590.794 37.294 579.194 39.324C564.307 42.0307 549.324 42.1273 534.341 40.774C530.667 40.484 526.994 39.904 523.514 40.0973C522.161 41.5473 523.031 42.6106 523.514 43.674C524.964 47.3473 526.511 50.924 527.767 54.5973C530.957 63.6839 530.957 72.7706 527.477 81.7606C526.801 83.5972 526.221 85.6272 524.191 86.7872C522.257 85.4339 522.644 83.5006 522.451 81.7606C522.258 78.8606 522.451 75.9606 521.871 73.1573C520.807 66.9706 518.294 61.3639 514.234 56.5306C509.401 50.634 504.374 44.9307 499.444 39.1307C498.284 37.6807 496.931 36.424 495.771 34.974C493.258 31.8807 492.484 28.4974 493.838 24.6307C495.094 20.9574 496.061 17.1874 497.414 13.514C498.381 10.8074 499.348 10.5174 502.151 11.4841C503.698 12.0641 505.148 12.7407 506.694 13.3207C528.347 22.1174 550.677 24.7274 573.877 22.214C591.181 20.2807 607.807 15.834 623.951 9.64737C628.011 8.1007 631.974 6.45738 636.034 5.00738C637.774 4.33072 639.514 3.75074 641.351 3.55741C646.184 2.97741 649.761 6.65073 649.084 11.4841C648.891 13.1274 648.504 14.7707 647.827 16.2207C645.604 21.924 643.671 27.9174 640.771 33.234C635.937 42.0307 630.427 50.5373 625.111 59.0439C624.241 60.3973 623.371 61.7506 621.147 62.0406Z" fill="white" fill-opacity="0.01"/>
<path d="M799.889 99.8472C799.406 101.297 799.116 102.457 798.729 103.521C796.989 107.484 795.056 111.35 793.509 115.41C792.252 118.794 790.029 120.534 786.549 121.597C775.916 124.69 765.282 127.977 754.746 131.457C704.963 147.504 656.726 167.32 610.616 191.97C609.553 192.55 608.393 193.034 607.426 193.517C606.169 192.454 606.749 191.584 607.136 190.617C609.263 185.3 611.583 179.984 613.613 174.667C614.869 171.284 616.996 169.35 620.089 167.804C645.126 155.43 670.549 143.83 696.553 133.39C727.679 120.92 759.289 110.094 791.769 101.684C794.282 101.007 796.796 99.9438 799.986 100.041L799.889 99.8472Z" fill="white" fill-opacity="0.01"/>
<path d="M283.974 154.837C284.361 153.193 284.457 152.227 284.844 151.357C286.971 146.04 289.291 140.723 291.321 135.31C292.481 132.217 294.317 130.187 297.314 128.833C314.521 120.907 331.437 112.594 348.741 104.957C387.117 88.0402 426.557 73.8303 467.157 63.0036C469.574 62.327 471.894 61.747 474.31 61.167C475.277 60.9736 476.244 61.0703 477.887 60.9736C475.084 67.3536 472.474 73.1536 469.864 78.9536C468.897 81.0803 466.964 81.6603 464.934 82.2403C455.944 84.9469 446.857 87.7503 437.867 90.5536C386.247 106.987 336.271 127.287 288.421 152.71C287.164 153.387 285.907 153.87 283.974 154.837Z" fill="white" fill-opacity="0.01"/>
<path d="M120.511 339.566C119.254 341.886 118.288 343.626 117.418 345.173C116.258 345.849 115.581 345.173 115.098 344.689C110.458 340.339 105.818 335.893 101.178 331.543C99.2442 329.706 98.2776 327.579 98.6642 324.969C99.7276 318.299 100.694 311.533 101.854 304.863C101.951 304.089 102.531 303.316 102.918 302.349C106.398 303.509 108.911 305.926 111.424 308.343C119.738 316.173 126.601 325.066 132.207 335.023C136.751 343.143 140.231 351.649 142.937 360.543C143.904 363.733 144.774 366.826 145.837 370.016C146.031 370.693 146.611 371.273 147.481 372.626C148.641 368.179 149.221 364.699 149.221 361.026C149.221 356.483 149.414 351.939 149.414 347.493C149.511 332.413 152.121 317.623 156.084 303.123C157.534 297.806 160.144 293.263 164.107 289.493C170.487 283.403 177.737 282.919 184.697 288.236C193.784 295.099 198.424 304.379 199.971 315.496C200.647 320.716 199.101 325.259 195.234 329.416C194.557 328.546 193.881 327.773 193.494 326.999C192.237 324.389 191.174 321.683 189.917 319.169C187.597 314.336 184.504 309.889 180.251 306.506C178.704 305.249 176.867 304.186 174.934 303.413C170.874 301.866 167.201 303.123 164.107 305.926C159.661 309.986 157.341 315.109 156.857 321.103C156.471 325.839 156.084 330.576 155.697 335.216C154.731 349.136 153.764 363.153 152.797 377.073C152.507 381.809 151.927 386.546 149.221 390.606C147.771 392.733 145.741 392.926 144.291 390.799C143.421 389.446 142.647 387.996 142.067 386.449C140.424 382.003 138.781 377.556 137.427 373.013C133.948 361.703 128.437 351.456 121.767 341.693C121.381 341.209 121.091 340.629 120.511 339.663V339.566Z" fill="white" fill-opacity="0.01"/>
<path d="M423.66 186.355C422.79 188.965 422.113 191.285 421.147 193.509C419.987 196.118 418.923 198.922 417.183 201.048C409.353 210.908 395.047 209.845 388.57 199.115C386.83 196.312 385.67 193.218 385.284 189.835C384.8 184.712 384.317 179.589 384.124 174.465C383.834 169.149 383.35 163.832 382.094 158.805C378.517 157.645 378.13 157.355 378.324 154.939C378.71 149.429 379.967 144.015 382.19 138.989C385.187 138.795 386.057 140.729 386.347 142.759C387.314 148.655 388.377 154.552 388.957 160.449C389.537 165.765 389.73 171.082 390.117 176.398C390.504 181.908 393.114 186.162 397.754 189.062C404.714 193.315 414.187 190.512 417.86 183.165C419.31 180.265 419.117 177.172 418.247 174.175C416.603 168.472 415.347 162.575 413.317 156.969C410.514 149.332 411.287 142.082 414.187 134.252C415.057 135.219 415.83 135.799 416.314 136.669C417.184 138.505 417.957 140.439 418.73 142.372C421.63 150.105 424.433 157.839 427.333 165.475C428.3 167.989 429.267 170.405 430.33 172.918C433.23 179.685 438.45 183.649 445.603 184.905C447.537 185.292 449.567 186.065 451.887 185.195C451.5 183.939 451.307 182.779 450.823 181.715C446.763 173.885 442.8 165.959 438.353 158.322C433.907 150.685 433.617 143.339 437.87 135.799C439.417 135.509 439.803 136.669 440.287 137.442C441.35 139.182 442.22 141.019 443.187 142.855C447.44 151.265 451.597 159.772 456.14 168.085C460.683 176.592 460.78 185.389 458.46 194.475C457.01 200.082 454.4 201.918 448.697 201.918C439.803 201.918 432.747 198.535 427.72 191.188C426.753 189.835 425.883 188.482 424.917 187.128C424.82 186.935 424.627 186.935 423.563 186.259L423.66 186.355Z" fill="white" fill-opacity="0.01"/>
<path d="M342.65 266.392C343.424 269.195 344.004 270.548 344.1 271.902C344.777 281.182 344.39 290.365 341.877 299.452C340.524 304.478 338.494 309.118 335.497 313.372C329.31 322.072 321.19 322.845 313.65 315.305C308.914 310.568 305.724 304.865 303.79 298.485C302.244 293.362 301.374 288.142 301.18 282.728C300.6 268.422 302.824 254.405 306.497 240.678C310.46 225.792 314.907 211.002 319.16 196.212C319.644 194.472 320.417 192.732 321.094 191.089C321.384 190.412 322.06 189.735 322.64 189.155C323.51 188.285 325.444 188.672 325.734 189.832C326.024 190.799 326.314 191.862 326.217 192.829C326.024 194.665 325.54 196.502 325.057 198.242C319.644 217.865 315.39 237.779 311.427 257.692C309.977 264.942 309.01 272.385 311.04 279.732C312.007 283.115 313.07 286.498 314.714 289.495C319.837 298.485 330.857 298.388 336.174 289.495C338.204 286.015 338.784 282.148 339.364 278.282C339.75 275.478 340.137 272.578 340.717 269.775C340.814 269.098 341.394 268.518 342.554 266.488L342.65 266.392Z" fill="white" fill-opacity="0.01"/>
<path d="M320.123 59.2383C318.77 56.2417 317.803 54.0184 316.74 51.795C314.903 47.6384 312.39 43.8684 309.006 40.7751C302.723 35.1684 296.633 35.9417 291.993 43.0951C290.06 46.0917 289.19 49.3784 288.9 52.955C287.836 68.5183 286.58 84.0816 285.42 99.7416C285.226 103.125 284.55 106.315 282.616 109.118C282.23 109.795 281.456 110.182 281.07 110.665C278.556 110.278 277.88 108.538 277.203 106.798C275.85 103.125 274.4 99.5483 273.336 95.7783C270.726 86.7883 266.473 78.5716 261.35 70.935C260.673 69.9683 259.803 69.0983 258.933 67.9383C257.967 69.5817 257.193 71.0316 256.323 72.4816C253.81 71.4183 252.263 69.2917 250.523 67.745C248.107 65.5217 245.787 63.2017 243.37 60.9783C241.823 59.4317 240.857 57.6917 241.243 55.4684C242.113 49.9584 242.983 44.545 243.95 39.0351C243.95 38.4551 244.53 37.9717 245.013 37.1017C246.077 37.6817 247.237 38.0684 248.107 38.8417C251.973 42.515 255.936 46.0917 259.416 50.1517C267.44 59.5284 272.95 70.2583 276.72 81.8583C277.686 84.9516 278.556 88.1416 279.62 91.3316C279.91 92.2016 280.586 92.9749 281.166 94.1349C282.81 90.075 282.81 86.4016 282.81 82.7283C283.003 74.5117 282.81 66.295 284.066 58.0784C285.13 50.7317 286.676 43.4817 288.803 36.4251C290.156 31.6884 292.863 27.9184 296.73 24.9218C301.08 21.5384 305.913 21.3451 310.553 24.3417C319.446 30.2384 323.7 38.8417 324.666 49.185C325.053 52.7617 323.41 55.9517 320.316 59.335L320.123 59.2383Z" fill="white" fill-opacity="0.01"/>
<path d="M195.142 46.2861C195.238 47.7361 195.432 48.5095 195.335 49.1861C194.948 52.4728 194.368 55.6628 194.078 58.9495C193.208 67.8428 193.208 66.1994 187.408 70.4527C167.398 85.0494 148.355 100.613 130.085 117.239C128.538 118.593 126.895 119.753 125.252 121.009C125.155 121.009 124.865 121.009 124.285 120.816C124.285 120.043 123.995 119.076 124.092 118.109C124.768 113.856 125.445 109.603 126.122 105.349C126.508 103.029 127.378 100.999 128.925 99.2593C131.342 96.746 133.565 94.0394 136.272 91.816C151.738 79.5394 167.302 67.3594 182.865 55.1795C185.958 52.7628 189.148 50.4428 192.242 48.1228C193.015 47.5428 193.885 47.0595 195.142 46.2861Z" fill="white" fill-opacity="0.01"/>
<path d="M684.943 82.8231C685.523 83.6931 686.2 84.2731 686.296 84.9497C687.166 94.9064 686.78 104.67 682.526 113.95C681.366 116.366 680.013 118.686 678.273 120.716C674.31 125.26 669.283 125.743 664.643 121.876C662.323 119.943 660.293 117.43 658.65 114.916C655.17 109.406 653.623 103.316 653.236 96.8397C652.463 84.3697 654.3 72.1898 657.586 60.2998C660.583 49.1831 663.773 38.1632 666.963 27.1432C667.446 25.4032 668.22 23.6632 669.09 22.0199C669.38 21.4399 670.733 20.7632 671.023 20.9565C671.796 21.4399 672.666 22.4065 672.666 23.1799C672.666 24.8232 672.183 26.3699 671.796 28.0132C669.186 39.2265 666.383 50.3432 663.87 61.5565C662.42 67.9364 661.356 74.4131 660.196 80.8898C659.23 86.6897 660.196 92.3931 662.516 97.8064C664.74 103.123 668.316 105.54 672.763 105.153C677.113 104.766 680.4 101.673 681.85 96.3564C682.526 94.0364 682.72 91.523 683.106 89.1064C683.396 87.0764 683.493 85.0464 685.04 83.0164L684.943 82.8231Z" fill="white" fill-opacity="0.01"/>
<path d="M413.606 18.8295C413.992 20.6662 414.476 21.8262 414.476 22.9862C414.379 30.4295 413.799 37.7762 411.286 44.7362C410.416 47.2495 409.256 49.6662 407.806 51.8895C406.549 53.7262 405.002 55.4662 403.166 56.7228C397.656 60.7828 391.662 59.9128 387.409 54.4995C383.156 48.8928 381.319 42.4162 381.802 35.4562C382.092 31.0095 382.866 26.4662 384.122 22.1162C385.766 16.4129 387.892 10.9029 390.019 5.29627C390.696 3.65294 392.049 2.2996 393.209 0.946269C393.402 0.752936 393.982 0.752936 394.369 0.946269C394.659 1.04294 395.046 1.52627 395.046 1.81627C395.046 3.07293 394.949 4.23292 394.562 5.39292C393.016 10.5162 391.469 15.6396 389.922 20.6662C388.666 24.5329 388.762 28.3029 390.116 32.0729C390.406 32.8462 390.696 33.6195 391.082 34.2962C393.112 37.3895 395.819 39.5162 399.686 39.3229C403.552 39.1295 406.259 36.9062 407.612 33.4262C408.676 30.5262 409.352 27.5296 410.319 24.6296C410.996 22.7929 410.899 20.5695 413.606 18.6362V18.8295Z" fill="white" fill-opacity="0.01"/>
<path d="M124.569 206.945C124.762 199.695 126.309 191.188 129.016 182.971C130.949 177.171 133.366 171.468 135.686 165.765C136.169 164.605 136.749 163.541 137.619 162.671C138.006 162.285 139.166 162.285 139.842 162.478C140.229 162.575 140.712 163.445 140.712 163.928C140.519 165.378 140.132 166.731 139.649 168.085C137.039 175.721 134.429 183.261 131.819 190.801C129.692 197.085 129.982 203.368 132.399 209.555C133.559 212.551 135.589 214.775 138.489 216.128C142.066 217.771 145.159 216.805 146.512 213.131C147.769 209.651 148.446 205.978 149.412 202.401C150.089 199.598 151.249 197.955 152.506 198.631C154.342 199.598 154.149 201.338 153.956 202.981C153.279 209.748 152.602 216.515 150.766 223.088C149.799 226.568 148.156 229.565 145.836 232.175C143.226 235.075 140.422 235.655 136.942 234.108C132.206 231.981 128.919 228.501 127.082 223.571C125.536 219.415 124.569 214.098 124.666 207.041L124.569 206.945Z" fill="white" fill-opacity="0.01"/>
<path d="M632.365 331.457C632.752 325.077 634.008 316.667 636.812 308.74C638.842 302.747 641.258 296.85 643.675 290.857C644.158 289.794 644.932 288.73 645.705 287.86C645.995 287.57 646.865 287.474 647.348 287.667C647.832 287.86 648.412 288.537 648.315 289.02C648.218 290.374 647.928 291.824 647.445 293.177C644.835 301.007 642.128 308.74 639.518 316.474C637.488 322.564 637.875 328.654 640.002 334.55C641.065 337.547 642.998 339.964 645.995 341.317C649.862 343.154 652.955 342.187 654.502 338.127C655.662 334.84 656.242 331.36 657.208 327.977C657.498 326.817 657.885 325.657 658.465 324.594C658.658 324.207 659.528 323.82 660.012 323.917C660.495 323.917 661.268 324.497 661.365 324.98C661.655 325.947 661.848 327.01 661.752 327.977C661.172 335.13 660.495 342.284 658.175 349.244C657.402 351.757 656.048 354.174 654.502 356.3C651.215 360.843 647.542 361.424 642.708 358.524C638.842 356.204 636.135 352.917 634.685 348.664C632.945 343.734 632.172 338.707 632.365 331.457Z" fill="white" fill-opacity="0.01"/>
</svg>
