<svg width="141" height="667" viewBox="0 0 141 667" fill="none" xmlns="http://www.w3.org/2000/svg">
<g opacity="0.13">
<path d="M64.4899 198.672C64.5615 198.567 64.7102 198.551 64.7996 198.64C66.0564 199.903 65.8452 200.915 65.5676 201.861C62.8145 211.321 58.9022 220.286 52.5265 228.051C50.5704 230.451 48.1795 232.287 45.4989 233.91C42.2386 235.958 38.761 236.805 34.9211 235.393C33.7899 234.98 32.5293 235.696 31.8925 236.718C31.687 237.048 31.4878 237.38 31.2986 237.722C24.4159 251.559 19.6342 266.101 16.3739 281.137C14.4902 289.82 12.8238 298.503 12.0993 307.397C11.5197 314.315 11.1575 321.233 12.6065 328.081C12.8963 329.563 13.2585 331.046 13.7657 332.458C18.1127 345.376 29.9945 352.718 43.905 351.094C52.5266 350.035 60.7859 347.706 68.4656 343.682C93.6783 330.481 117.732 315.727 139.974 298.079C152.218 288.337 163.593 277.89 173.518 265.889C178.59 259.818 183.009 253.323 186.849 246.476C188.588 243.37 188.878 240.405 187.936 237.017C182.575 217.886 176.344 199.038 168.664 180.684C162.144 165.083 155.044 149.764 148.088 134.375C143.741 124.774 139.249 115.244 134.685 105.714C133.381 103.032 132.729 100.349 132.801 97.4551C132.946 87.8545 133.091 78.2539 133.309 68.5828C133.309 68.1702 133.329 67.7644 133.36 67.3673C133.481 65.7978 134.732 64.2947 135.772 65.4767C137.438 67.4533 139.249 69.3593 140.554 71.5476C147.509 82.5601 154.464 93.5019 161.202 104.656C167.36 114.75 171.635 125.763 175.909 136.705C182.43 153.435 188.95 170.095 193.515 187.461C196.268 197.908 198.441 208.568 200.542 219.157C203.006 231.51 205.107 244.005 207.208 256.429C208.874 266.03 213.076 274.36 219.597 281.702C228.725 291.867 239.955 299.067 252.489 304.503C256.691 306.338 261.111 307.75 265.675 308.739C267.341 309.091 268.646 308.88 270.022 307.962C277.702 302.668 285.526 297.585 293.134 292.22C296.466 289.82 299.292 286.784 302.407 284.102C304.436 282.337 304.943 280.149 304.436 277.537C302.045 265.324 299.654 253.041 294.51 241.534C291.25 234.405 287.845 227.345 284.295 220.357C282.918 217.604 282.484 215.133 283.28 212.168C285.599 203.273 287.628 194.379 289.801 185.484C289.816 185.409 289.835 185.335 289.856 185.262C290.186 184.133 292.09 183.52 292.627 184.566C293.568 186.119 294.365 187.743 295.09 189.367C297.698 195.155 300.669 200.732 304.219 206.026C308.855 213.015 315.593 216.827 323.78 218.521C332.474 220.286 340.951 219.368 349.355 217.039C355.224 215.415 360.585 212.874 365.511 209.415C368.772 207.156 369.206 205.956 368.12 202.144C366.164 195.155 363.555 188.449 359.86 182.096C358.194 179.201 356.528 176.307 354.861 173.483C354.137 172.283 353.702 171.083 354.137 169.671C356.311 162.568 358.429 155.465 360.939 148.556C361.577 146.799 363.262 145.352 364.352 146.87C371.018 156.117 375.727 166.071 377.538 177.295C379.494 189.367 378.625 201.226 375.365 213.015C374.35 216.615 373.191 220.215 372.177 223.816C370.293 230.451 366.308 235.675 360.657 239.699C350.949 246.617 340.009 249.511 327.982 248.664C324.673 248.412 321.474 247.801 318.228 246.932C315.939 246.32 313.72 247.428 313.854 249.794C313.927 258.194 313.347 266.595 311.898 274.925C310.449 283.043 308.493 291.09 305.957 298.997C304.653 303.232 302.118 306.833 299.437 310.362C299.27 310.591 299.099 310.816 298.923 311.04C296.981 313.517 298.038 316.541 301.176 316.786C316.39 318.127 331.677 318.057 346.964 317.068C367.613 315.727 388.043 312.974 408.257 308.668C412.894 307.68 417.531 306.409 422.095 305.138C424.352 304.589 425.645 302.223 425.645 299.901C425.645 299.477 425.645 299.058 425.645 298.644C424.848 281.56 424.051 264.406 423.254 247.323C422.892 239.981 422.602 232.64 422.24 225.298C421.516 209.838 420.863 194.379 419.994 178.919C418.98 161.553 417.821 144.117 416.734 126.751C416.009 115.386 415.285 103.95 414.56 92.5842C414.271 87.7839 413.401 83.0542 411.88 78.4657C411.445 77.195 411.01 75.995 411.517 74.5125C415.067 64.559 418.473 54.6054 421.878 44.6519C422.009 44.1403 422.783 44.0078 423.178 44.359C424.117 45.1948 424.145 46.5231 424.558 47.6168C428.543 59.4763 432.6 71.2653 436.368 83.1954C439.556 93.3607 442.454 103.667 445.424 113.903C445.859 115.315 446.004 116.868 446.149 118.35C446.221 119.692 446.438 121.245 444.844 121.88C443.251 122.515 442.309 121.315 441.439 120.256C440.135 118.562 438.904 116.868 437.599 115.174C436.658 113.974 435.788 112.774 434.774 111.574C434.309 110.97 433.328 111.794 433.39 112.553C438.359 173.87 440.53 235.056 443.407 296.504C443.479 298.04 444.916 299.581 446.366 299.067C453.249 296.95 460.204 294.832 467.014 292.502C481.867 287.42 496.719 282.337 511.426 277.113C521.424 273.513 531.06 269.207 540.261 263.912C543.691 261.983 544.971 259.136 544.101 255.371C542.29 247.394 539.464 239.84 535.045 232.852C532.219 228.404 529.539 223.816 526.713 219.368C525.626 217.745 525.337 216.121 525.699 214.215C527.22 206.097 528.742 197.979 530.263 189.861C530.302 189.637 530.34 189.409 530.383 189.18C530.788 187.049 533.313 186.023 534.538 187.814C536.204 190.002 537.798 192.19 539.32 194.449C544.101 201.791 548.014 209.697 551.491 217.745C555.114 226.286 555.838 235.181 554.751 244.288C553.52 254.806 550.332 264.901 546.347 274.642C543.159 282.337 537.798 288.408 530.191 292.573C516.498 300.197 502.008 306.056 487.155 311.28C474.839 315.586 462.45 319.822 450.133 324.057C447.181 325.103 444.797 327.392 445.033 330.515C445.045 330.669 445.055 330.822 445.062 330.975C445.352 339.234 445.786 347.494 446.149 355.753C446.656 368.389 447.235 380.955 447.598 393.591C448.032 408.274 448.829 423.028 448.395 437.711C447.96 453.03 447.09 468.348 444.048 483.384C442.381 491.644 440.135 499.762 437.165 507.668C436.73 508.798 436.368 509.998 435.643 510.916C435.209 511.551 434.122 511.974 433.325 511.974C432.311 511.974 431.803 511.057 431.731 510.068C431.731 508.868 431.731 507.668 431.731 506.468C432.6 487.691 433.18 468.913 432.528 450.135C431.948 432.417 431.151 414.698 430.354 396.979C429.702 382.719 428.905 368.46 428.109 354.2C427.746 347.776 427.456 341.282 427.094 334.858C427.094 332.747 424.871 331.181 422.82 331.681C410.141 334.293 397.535 337.187 384.856 339.587C357.614 344.741 330.228 347.07 302.48 345.517C289.221 344.741 276.108 342.976 263.212 339.799C260.893 339.234 259.155 339.517 257.126 340.717C244.23 348.412 231.406 356.177 218.365 363.589C189.747 379.966 160.405 394.932 129.831 407.498C124.18 409.827 118.529 412.227 112.733 414.345C104.908 417.239 96.7212 418.722 88.3894 419.498C72.4504 421.051 56.4389 422.393 40.5723 424.863C32.6752 426.134 24.7781 427.687 17.0984 429.734C16.229 429.946 15.2871 430.228 14.4177 430.369C13.1136 430.511 12.0269 430.017 11.1575 429.028C10.7228 428.463 10.7952 427.334 11.3748 427.052C12.1718 426.628 13.0412 426.204 13.9106 425.993C22.4597 424.016 30.719 420.91 38.8335 417.663C81.1444 400.65 123.166 383.002 164.39 363.518C186.487 353.071 207.86 341.423 229.305 329.916C230.756 329.145 231.509 327.339 230.158 326.404C229.985 326.284 229.817 326.165 229.667 326.034C225.683 322.716 221.625 319.469 217.713 316.01C206.701 306.268 200.18 294.126 197.717 279.866C196.329 271.625 194.761 263.442 193.121 254.675C192.95 253.759 191.5 253.41 191.269 254.312C190.254 258.688 189.457 263.136 188.443 267.513C187.067 273.725 184.386 279.513 180.546 284.667C177.358 288.902 174.026 293.067 170.475 297.02C162.941 305.421 155.044 313.468 146.567 320.88C123.673 340.717 99.2569 358.436 71.9432 372.201C64.2635 376.084 56.3664 379.543 47.8173 381.166C42.9631 382.084 38.109 382.578 33.1099 381.943C24.4159 380.884 17.3882 377.001 11.9544 370.295C7.75232 365.142 5.14411 359.212 3.40531 352.929C-0.289653 339.517 -0.796818 325.963 1.01444 312.268C4.63695 285.372 12.8238 259.818 24.1985 235.181C24.8869 233.657 25.5752 232.08 26.2169 230.678C26.4131 230.249 26.6598 229.741 26.4445 229.322C21.373 219.227 21.8077 208.709 24.1261 198.049C25.72 190.708 28.4731 183.649 31.7333 176.801C40.7172 157.812 51.0051 139.528 61.8002 121.457C66.7268 113.268 71.7983 105.22 76.8698 97.1727C78.7535 94.2078 80.8546 91.4547 82.8832 88.631C83.6736 87.6042 85.4286 87.116 86.0263 88.2656C86.2714 88.7372 86.2784 89.2953 86.071 89.9017C85.5639 91.3136 84.8393 92.6548 84.1148 93.9255C72.1606 115.597 60.1338 137.34 48.1795 159.012C46.0785 162.824 43.9774 166.706 41.9488 170.589C38.4712 177.366 35.863 184.354 34.3416 191.767C33.2548 196.991 33.3272 202.214 34.8487 207.368C37.1671 215.062 44.3397 217.957 51.6572 214.215C54.9174 212.591 57.2358 209.98 58.9022 206.874C59.9889 204.897 61.0032 202.85 62.2349 200.944C62.7397 200.101 63.6752 199.537 64.4698 198.697C64.4771 198.689 64.4839 198.68 64.4899 198.672Z" fill="#8A9CB2"/>
<path d="M534.892 520.481C534.755 520.407 534.614 520.571 534.708 520.696C541.931 530.318 550.178 537.585 561.919 540.359C569.309 542.123 576.626 541.559 583.871 539.582C594.884 536.617 604.665 531.252 613.866 524.828C614.832 524.131 615.727 523.33 616.587 522.52C618.221 520.98 619.155 518.814 619.155 516.569C619.01 496.168 619.082 475.696 618.72 455.295C618.43 438.141 617.778 421.057 617.054 403.974C616.112 383.29 614.953 362.536 613.793 341.852C613.069 328.652 612.344 315.451 611.547 302.25C610.823 289.967 609.953 277.684 609.229 265.401C608.504 252.976 607.78 240.481 607.055 228.057C606.258 213.233 605.389 198.338 604.665 183.513C604.157 173.277 603.723 163.112 603.433 152.876C603.36 149.911 602.853 147.229 600.318 145.252C599.593 144.687 599.013 143.911 598.651 143.134C598.289 142.358 597.999 141.37 598.216 140.593C598.506 139.111 598.941 137.628 599.666 136.357C602.926 130.004 605.027 123.298 606.983 116.45C607.18 115.76 607.312 115.028 607.613 114.333C608.119 113.167 609.767 112.81 610.678 113.697C611.692 114.827 612.562 116.027 613.504 117.297C627.342 135.581 639.658 154.853 650.526 174.901C653.641 180.619 656.684 186.337 659.944 191.984C671.101 211.327 679.361 231.799 685.809 253.047C691.025 270.201 695.517 287.496 698.415 305.144C702.038 327.028 703.414 349.053 702.183 371.148C699.647 416.257 687.113 458.612 665.378 498.497C659.364 509.51 652.337 519.957 644.295 529.699C643.425 530.758 642.484 531.746 641.469 532.664C641.179 532.946 640.238 532.805 639.803 532.523C639.368 532.24 638.861 531.393 639.006 531.04C639.513 529.77 640.165 528.57 640.89 527.44C646.903 517.84 652.337 507.886 657.191 497.65C668.928 472.66 676.897 446.541 681.389 419.434C684.36 401.432 685.809 383.361 685.519 365.148C684.867 322.157 676.173 280.79 658.857 241.187C657.698 238.575 656.467 235.964 655.162 233.422C645.816 215.139 636.036 197.067 625.603 179.348C625.112 178.539 624.621 177.748 624.14 176.967C623.365 175.708 621.684 175.267 621.835 176.736C622.27 184.855 622.632 192.973 623.139 201.02C623.502 207.585 624.081 214.221 624.516 220.786C625.603 236.952 626.617 253.188 627.704 269.354C629.08 290.037 630.602 310.721 631.833 331.405C632.775 347.006 633.427 362.607 634.152 378.207C635.673 408.845 636.18 439.482 635.673 470.119C635.383 485.296 634.079 500.474 630.312 515.228C627.776 525.322 624.009 534.994 619.444 544.382C617.633 548.124 614.953 551.23 611.692 553.771C599.666 563.16 586.262 569.584 570.685 571.137C564.745 571.702 559.021 571.066 553.37 569.301C544.966 566.69 537.793 562.101 531.997 555.677C529.751 553.206 527.795 550.524 526.418 547.418C524.1 542.053 521.781 536.617 519.463 531.252C519.262 530.82 519.06 530.367 518.871 529.928C518.61 529.322 517.989 528.719 517.362 528.923C516.348 529.276 515.333 529.628 514.319 530.052C495.482 538.805 475.703 545.159 456.142 552.006C446.288 555.395 436.58 559.348 427.017 563.513C415.787 568.384 405.716 575.019 396.443 582.785C385.792 591.75 376.446 601.986 367.463 612.433C359.566 621.681 351.668 630.929 343.771 640.106C339.207 645.471 333.773 649.918 328.122 654.083C320.877 659.378 312.618 662.131 303.634 662.484C295.592 662.766 288.057 660.789 281.102 656.836C274.292 652.954 268.93 647.659 264.656 641.306C260.091 634.458 257.048 626.905 254.802 619.069C254.006 616.316 253.426 613.492 252.774 610.739C252.256 608.466 249.754 607.156 247.587 608.016C247.553 608.03 247.519 608.043 247.485 608.057C234.951 612.857 222.055 616.387 208.724 618.222C193.727 620.269 178.875 619.987 164.24 616.104C141.345 610.033 124.03 596.903 112.365 576.855C105.338 564.784 101.57 551.724 100.049 537.958C97.3682 513.957 101.933 491.014 110.844 468.707C113.669 461.577 117.075 454.659 120.842 447.882C121.349 446.965 121.856 446.047 122.436 445.129C123.45 443.647 125.624 443.153 127.363 444.07C127.797 444.282 128.232 445.059 128.16 445.553C127.942 446.541 127.58 447.529 127.073 448.447C121.132 459.742 117.002 471.672 113.742 483.885C111.424 492.638 110.264 501.603 110.337 510.639C110.482 545.3 130.695 573.325 164.24 585.044C179.599 590.409 195.466 591.82 211.622 590.056C224.953 588.644 237.632 585.044 249.803 579.679C250.963 579.184 252.049 578.62 253.136 578.125C254.658 577.42 255.455 576.29 255.817 574.667C256.179 572.619 256.686 570.572 257.121 568.525C260.236 555.254 265.525 542.759 272.046 530.829C275.306 524.828 278.784 519.04 282.261 513.18C283.578 510.923 284.971 508.665 286.385 506.353C287.364 504.752 287.39 502.667 286.246 501.18C282.913 496.874 281.174 492.003 280.522 486.638C279.508 477.531 280.667 468.637 282.986 459.883C285.666 449.859 288.709 439.905 291.607 429.952C291.969 428.681 292.622 427.481 293.346 426.352C293.563 425.999 294.505 425.716 294.94 425.857C295.375 425.999 295.809 426.634 296.027 427.199C296.172 427.552 296.099 428.116 296.027 428.54C295.809 429.74 295.52 430.87 295.157 432.07C291.68 444.07 289.144 456.283 286.608 468.495C285.811 472.449 285.449 476.543 286.246 480.567C286.753 483.108 287.55 485.508 288.927 487.696C292.332 492.85 298.925 492.779 302.112 487.485C303.054 486.002 303.489 484.167 303.924 482.402C304.431 480.355 304.503 478.237 304.938 476.19C304.947 476.15 304.957 476.111 304.968 476.071C305.239 475.064 306.993 475.012 307.112 476.049C307.691 482.684 307.474 489.25 305.155 495.603C304.721 496.874 304.141 498.144 303.489 499.344C301.527 503.059 299.998 504.745 296.822 505.873C294.792 506.594 292.859 507.761 291.825 509.651C286.318 520.24 280.885 530.829 275.378 541.417C270.744 550.258 267.932 559.73 265.195 569.264C264.663 571.116 265.604 572.828 267.336 571.984C279.87 566.125 292.114 559.771 304.141 553.065C323.413 542.265 341.96 530.405 359.855 517.628C362.101 516.004 364.275 514.31 366.376 512.545C367.68 511.486 368.767 510.216 369.926 509.015C371.81 507.039 372.099 504.78 371.013 502.38C370.65 501.533 370.361 500.686 369.998 499.909C367.028 493.344 364.275 486.567 361.015 480.143C355.581 469.484 351.379 458.401 347.466 447.106C344.858 439.694 342.25 432.352 339.569 425.01C337.929 420.339 335.814 414.551 337.373 409.852C338.25 407.211 339.108 404.613 339.931 401.997C341.197 397.906 342.417 393.815 343.699 389.512C344.16 387.966 346.266 387.324 347.176 388.655C350.799 393.314 354.422 397.973 358.044 402.703C364.13 410.68 370.216 418.586 376.157 426.634C378.04 429.175 379.634 431.928 381.228 434.682C381.88 435.74 381.518 436.94 380.721 437.505C379.924 438.141 378.982 438.141 378.113 437.717C377.026 437.223 375.939 436.588 374.925 435.952C371.882 434.187 368.912 432.352 365.796 430.587C365.647 430.502 365.493 430.423 365.336 430.35C364.003 429.721 362.566 430.322 363.043 431.717C365.434 437.435 367.897 443.082 370.288 448.8C373.766 457.13 376.954 465.601 379.055 474.425C382.677 489.814 381.445 504.78 376.157 519.675C372.172 531.04 365.362 539.935 355.218 546.924C336.816 559.56 318.414 572.196 298.925 583.279C287.767 589.632 276.103 595.138 264.438 600.715C263.925 600.952 263.412 601.198 262.888 601.455C261.195 602.283 259.904 604.098 260.309 605.939C261.178 611.022 262.772 615.893 265.235 620.41C268.423 626.199 272.988 630.576 279.291 632.905C296.606 639.259 312.618 637.353 326.746 625.14C339.497 614.128 351.161 602.268 361.884 589.35C366.81 583.42 371.954 577.561 377.243 571.913C385.937 562.666 395.573 554.477 406.803 548.194C411.223 545.724 415.714 543.394 420.351 541.417C439.84 533.087 459.837 525.958 479.833 518.828C489.107 515.51 498.38 512.192 507.581 508.874C511.33 507.57 513.665 503.797 513.191 499.855C513.034 498.545 512.864 497.25 512.725 495.956C511.349 484.59 509.537 473.366 509.32 461.86C509.32 459.883 509.32 457.977 509.248 456C508.958 449.718 510.262 443.788 512.725 437.999C514.319 434.258 515.986 430.517 517.724 426.846C520.622 420.775 524.752 415.551 529.389 410.68C533.881 406.092 539.459 405.95 545.255 407.574C547.791 408.28 549.965 409.833 551.848 411.598C554.239 413.786 556.195 416.257 557.789 419.081C561.557 425.787 564.889 432.705 567.353 440.047C570.251 448.871 570.541 457.765 569.236 466.801C567.57 478.378 563.223 489.108 558.007 499.556C556.485 502.592 554.384 505.133 551.993 507.533C548.153 511.486 543.734 514.733 539.097 517.769C537.883 518.604 536.67 519.438 535.04 520.476C534.995 520.504 534.939 520.506 534.892 520.481ZM526.119 498.709C526.109 498.709 526.107 498.695 526.117 498.693C529.783 497.704 532.665 496.231 535.547 494.968C541.56 492.285 547.356 489.108 552.428 484.802C554.312 483.249 555.978 481.484 557.717 479.72C559.238 478.167 559.528 476.261 558.948 474.284C558.731 473.578 558.514 472.872 558.224 472.166C554.457 463.413 550.399 454.871 545.4 446.753C543.951 444.423 542.285 442.235 540.474 440.188C539.314 438.846 537.721 437.717 536.127 436.87C533.374 435.317 530.403 435.317 527.867 437.223C523.883 440.188 520.695 443.859 519.028 448.518C518.304 450.565 518.231 452.612 518.594 454.73C520.405 465.53 522.144 476.402 523.955 487.202C524.607 490.87 525.33 494.538 526.127 498.699C526.128 498.704 526.124 498.709 526.119 498.709Z" fill="#8A9CB2"/>
<path d="M90.123 247.453C90.123 247.436 90.0995 247.43 90.0909 247.445C89.238 248.979 88.5639 250.164 87.9591 251.214C87.858 251.39 87.7147 251.544 87.5241 251.613C86.8227 251.867 86.3872 251.442 86.0658 251.129C82.5882 247.952 79.1106 244.705 75.633 241.528C74.184 240.187 73.4594 238.634 73.7493 236.728C74.5462 231.857 75.2707 226.916 76.1401 222.045C76.2843 220.921 77.783 220.464 78.7776 221.007C80.492 221.944 81.9023 223.265 83.3127 224.586C89.5434 230.304 94.6874 236.799 98.8895 244.07C102.295 250 104.903 256.212 106.931 262.706C107.656 265.036 108.308 267.295 109.105 269.624C109.353 270.471 110.691 270.181 110.884 269.32C111.388 267.065 111.641 265.103 111.641 263.059C111.641 259.741 111.786 256.424 111.786 253.176C111.858 242.164 113.814 231.363 116.785 220.774C117.871 216.892 119.828 213.574 122.798 210.821C127.58 206.373 133.014 206.02 138.23 209.903C145.04 214.915 148.518 221.692 149.677 229.81C150.092 232.929 149.392 235.717 147.536 238.29C146.856 239.233 145.354 239.245 144.823 238.211C143.881 236.305 143.084 234.328 142.142 232.493C140.403 228.963 138.085 225.716 134.897 223.245C133.738 222.327 132.361 221.551 130.912 220.986C127.87 219.857 125.116 220.774 122.798 222.821C119.465 225.786 117.727 229.528 117.364 233.904C117.074 237.363 116.785 240.823 116.495 244.211C115.77 254.376 115.046 264.612 114.321 274.778C114.104 278.237 113.669 281.696 111.641 284.661C110.554 286.214 109.033 286.355 107.946 284.802C107.294 283.813 106.714 282.755 106.279 281.625C105.048 278.378 103.816 275.131 102.802 271.813C100.194 263.553 96.0639 256.07 91.0648 248.941C90.7756 248.588 90.5586 248.166 90.1256 247.462C90.1239 247.46 90.123 247.457 90.123 247.453Z" fill="#8A9CB2"/>
<path d="M44.8605 461.128C44.9051 461.085 44.9797 461.118 44.9764 461.18C44.7601 465.289 44.4764 469.465 44.3335 473.572C44.1886 479.996 46.507 485.643 50.6367 490.584C53.1 493.549 56.2878 495.102 60.2725 495.032C63.895 495.032 66.2135 493.126 66.2859 489.596C66.4308 485.714 66.141 481.831 65.8512 477.948C65.7787 476.678 65.7063 475.548 66.5033 474.489C67.1553 473.572 68.6043 473.43 69.2564 474.348C69.7635 475.054 70.1982 475.901 70.4156 476.748C71.1401 479.643 71.937 482.607 72.2993 485.572C72.8789 489.879 73.2411 494.255 73.5309 498.561C73.7483 501.809 72.734 504.844 71.4299 507.738C69.5462 511.833 66.2135 513.527 61.6491 512.75C56.2878 511.833 51.7958 509.362 48.608 504.985C44.9855 500.044 42.6671 494.538 41.2906 488.608C38.7548 477.807 38.7548 466.865 39.7691 455.923C40.0589 452.959 40.4212 449.923 40.8559 446.958C41.0008 445.97 41.2906 444.84 41.7977 443.993C42.0875 443.499 43.1018 443.076 43.7539 443.217C44.3335 443.287 45.2029 443.993 45.3478 444.558C45.6376 445.546 45.5651 446.605 45.5651 447.664C45.3486 452.165 45.0602 456.595 44.7715 461.095C44.7697 461.123 44.7673 461.147 44.7957 461.147C44.8085 461.147 44.8458 461.142 44.855 461.133L44.8605 461.128Z" fill="#8A9CB2"/>
<path d="M144.235 34.3211C145.047 33.7853 146.343 34.3789 146.202 35.3414C145.912 37.7415 145.477 40.0711 145.26 42.4713C144.608 48.9658 144.608 47.7657 140.261 50.8718C125.263 61.5312 110.991 72.8966 97.2976 85.0386C96.1969 85.977 95.0309 86.7881 93.8616 87.6532C93.7404 87.7429 93.7124 87.7995 93.5621 87.7873C93.2597 87.7627 92.9494 87.4445 92.9103 87.1436C92.8513 86.6886 92.7537 86.1813 92.8057 85.6739C93.3129 82.5678 93.82 79.4617 94.3272 76.3557C94.617 74.6615 95.269 73.179 96.4283 71.9083C98.2395 70.0729 99.9058 68.0963 101.934 66.4727C113.526 57.5075 125.191 48.6128 136.855 39.7182C139.174 37.9533 141.565 36.2591 143.883 34.5649C143.997 34.4816 144.114 34.401 144.235 34.3211Z" fill="#8A9CB2"/>
<path d="M93.1966 150.569C93.1733 150.546 93.1605 150.515 93.1615 150.482C93.3123 145.199 94.4706 139.007 96.4927 133.026C97.9417 128.791 99.753 124.626 101.492 120.461C101.854 119.614 102.289 118.837 102.941 118.202C103.231 117.919 104.1 117.919 104.607 118.061C104.897 118.131 105.259 118.766 105.259 119.119C105.114 120.178 104.825 121.167 104.462 122.155C102.506 127.732 100.55 133.238 98.5938 138.744C96.9999 143.333 97.2173 147.921 99.0285 152.439C99.8979 154.627 101.419 156.251 103.593 157.239C106.274 158.439 108.592 157.734 109.606 155.051C110.548 152.51 111.055 149.827 111.78 147.215C112.287 145.168 113.156 143.968 114.098 144.462C115.475 145.168 115.33 146.439 115.185 147.639C114.678 152.58 114.171 157.522 112.794 162.322C112.07 164.863 110.838 167.052 109.099 168.958C107.143 171.076 105.042 171.499 102.434 170.37C98.8836 168.817 96.4203 166.275 95.0437 162.675C93.8883 159.649 93.1648 155.782 93.2318 150.654C93.2322 150.622 93.2195 150.591 93.1966 150.569Z" fill="#8A9CB2"/>
<path d="M71.8883 290.342C71.8759 290.33 71.8549 290.337 71.853 290.355C71.275 295.493 70.6948 300.42 69.322 305.207C68.5975 307.537 67.5107 309.655 65.8444 311.49C63.7433 313.82 61.7147 314.243 58.8167 312.972C55.2666 311.419 52.8758 308.737 51.5717 305.207C49.7604 300.266 49.3982 295.254 50.0502 290.1C50.9196 283.041 52.6584 276.264 55.4116 269.699C56.4259 267.37 57.3677 264.97 58.4544 262.64C58.7442 262.005 59.2514 261.369 59.831 260.875C60.1208 260.663 60.7729 260.593 61.1351 260.734C61.4974 260.875 61.9321 261.369 61.8596 261.722C61.7147 262.711 61.5698 263.769 61.2076 264.758C59.2514 270.335 57.2952 275.841 55.3391 281.347C53.7452 285.936 53.8901 290.524 55.6289 295.042C56.3534 296.877 57.5126 298.43 59.3239 299.489C62.6566 301.466 65.3372 300.619 66.5689 297.089C67.3658 294.83 67.8005 292.43 68.3801 290.1C68.5975 289.253 68.9597 288.406 69.3944 287.63C69.7942 286.851 71.1578 287.144 71.5439 287.929C71.5527 287.947 71.5608 287.965 71.5679 287.983C71.7788 288.804 71.8533 289.692 71.9236 290.325C71.9258 290.344 71.9023 290.356 71.8883 290.342Z" fill="#8A9CB2"/>
</g>
</svg>
