<svg width="25" height="25" viewBox="0 0 25 25" fill="none" xmlns="http://www.w3.org/2000/svg">
<path d="M14.7617 16.498H9.76172" stroke="white" stroke-width="1.5" stroke-miterlimit="10" stroke-linecap="round" stroke-linejoin="round"/>
<path d="M13.16 3.01814L13.13 3.08814L10.23 9.81814H7.37996C6.69996 9.81814 6.04996 9.95814 5.45996 10.2081L7.20996 6.02814L7.24996 5.92814L7.31996 5.76814C7.33996 5.70814 7.35996 5.64814 7.38996 5.59814C8.69996 2.56814 10.18 1.87814 13.16 3.01814Z" stroke="white" stroke-width="1.5" stroke-linecap="round" stroke-linejoin="round"/>
<path d="M18.55 10.0181C18.1 9.87814 17.62 9.81814 17.14 9.81814H10.23L13.13 3.08814L13.16 3.01814C13.31 3.06814 13.45 3.13814 13.6 3.19814L15.81 4.12814C17.04 4.63814 17.9 5.16814 18.42 5.80814C18.52 5.92814 18.6 6.03814 18.67 6.16814C18.76 6.30814 18.83 6.44814 18.87 6.59814C18.91 6.68814 18.94 6.77814 18.96 6.85814C19.23 7.69814 19.07 8.72814 18.55 10.0181Z" stroke="white" stroke-width="1.5" stroke-linecap="round" stroke-linejoin="round"/>
<path d="M22.0217 14.6984V16.6484C22.0217 16.8484 22.0117 17.0484 22.0017 17.2484C21.8117 20.7384 19.8617 22.4984 16.1617 22.4984H8.36172C8.12172 22.4984 7.88172 22.4784 7.65172 22.4484C4.47172 22.2384 2.77172 20.5384 2.56172 17.3584C2.53172 17.1284 2.51172 16.8884 2.51172 16.6484V14.6984C2.51172 12.6884 3.73172 10.9584 5.47172 10.2084C6.07172 9.95836 6.71172 9.81836 7.39172 9.81836H17.1517C17.6417 9.81836 18.1217 9.88836 18.5617 10.0184C20.5517 10.6284 22.0217 12.4884 22.0217 14.6984Z" stroke="white" stroke-width="1.5" stroke-linecap="round" stroke-linejoin="round"/>
<path d="M7.21 6.02814L5.46 10.2081C3.72 10.9581 2.5 12.6881 2.5 14.6981V11.7681C2.5 8.92814 4.52 6.55814 7.21 6.02814Z" stroke="white" stroke-width="1.5" stroke-linecap="round" stroke-linejoin="round"/>
<path d="M22.0186 11.7677V14.6977C22.0186 12.4977 20.5586 10.6277 18.5586 10.0277C19.0786 8.72766 19.2286 7.70766 18.9786 6.85766C18.9586 6.76766 18.9286 6.67766 18.8886 6.59766C20.7486 7.55766 22.0186 9.52766 22.0186 11.7677Z" stroke="white" stroke-width="1.5" stroke-linecap="round" stroke-linejoin="round"/>
</svg>
